STARTFONT 2.1
COMMENT
COMMENT Converted from OpenType font "Hack-Bold.ttf" by "otf2bdf 3.0".
COMMENT
FONT -FreeType-Hack-Bold-R-Normal--15-110-100-100-P-76-ISO10646-1
SIZE 11 100 100
FONTBOUNDINGBOX 22 21 -11 -6
STARTPROPERTIES 19
FOUNDRY "FreeType"
FAMILY_NAME "Hack"
WEIGHT_NAME "Bold"
SLANT "R"
SETWIDTH_NAME "Normal"
ADD_STYLE_NAME ""
PIXEL_SIZE 15
POINT_SIZE 110
RESOLUTION_X 100
RESOLUTION_Y 100
SPACING "P"
AVERAGE_WIDTH 76
CHARSET_REGISTRY "ISO10646"
CHARSET_ENCODING "1"
FONT_ASCENT 13
FONT_DESCENT 3
COPYRIGHT "Copyright (c) 2018 Source Foundry Authors / Copyright (c) 2003 by Bitstream, Inc. All Rights Reserved."
_OTF_FONTFILE "Hack-Bold.ttf"
_OTF_PSNAME "Hack-Bold"
ENDPROPERTIES
CHARS 1624
STARTCHAR 0000
ENCODING 0
SWIDTH 0 0
DWIDTH 0 0
BBX 0 0 0 0
BITMAP
ENDCHAR
STARTCHAR 000D
ENCODING 13
SWIDTH 589 0
DWIDTH 9 0
BBX 0 0 0 0
BITMAP
ENDCHAR
STARTCHAR 0020
ENCODING 32
SWIDTH 589 0
DWIDTH 9 0
BBX 0 0 0 0
BITMAP
ENDCHAR
STARTCHAR 0021
ENCODING 33
SWIDTH 589 0
DWIDTH 9 0
BBX 3 12 3 0
BITMAP
E0
E0
E0
E0
60
40
40
40
00
40
E0
60
ENDCHAR
STARTCHAR 0022
ENCODING 34
SWIDTH 589 0
DWIDTH 9 0
BBX 5 4 2 8
BITMAP
C8
C8
C8
C8
ENDCHAR
STARTCHAR 0023
ENCODING 35
SWIDTH 589 0
DWIDTH 9 0
BBX 9 12 0 0
BITMAP
0900
1B00
1B00
7F80
7F80
3200
3600
FF00
FF00
6400
6C00
6C00
ENDCHAR
STARTCHAR 0024
ENCODING 36
SWIDTH 589 0
DWIDTH 9 0
BBX 7 14 1 -2
BITMAP
10
10
7C
D2
D0
F0
7C
1E
16
96
FE
38
10
10
ENDCHAR
STARTCHAR 0025
ENCODING 37
SWIDTH 589 0
DWIDTH 9 0
BBX 9 12 0 0
BITMAP
7000
7800
D800
C800
7880
7700
1C00
7700
8780
0C80
0780
0700
ENDCHAR
STARTCHAR 0026
ENCODING 38
SWIDTH 589 0
DWIDTH 9 0
BBX 9 12 0 0
BITMAP
1E00
3E00
3000
3000
3800
7800
7D80
CD80
C780
E700
7F00
3D80
ENDCHAR
STARTCHAR 0027
ENCODING 39
SWIDTH 589 0
DWIDTH 9 0
BBX 2 4 4 8
BITMAP
C0
C0
C0
C0
ENDCHAR
STARTCHAR 0028
ENCODING 40
SWIDTH 589 0
DWIDTH 9 0
BBX 4 14 2 -2
BITMAP
30
20
60
60
C0
C0
C0
C0
C0
C0
60
60
20
30
ENDCHAR
STARTCHAR 0029
ENCODING 41
SWIDTH 589 0
DWIDTH 9 0
BBX 4 14 3 -2
BITMAP
C0
60
60
30
30
30
30
30
30
30
70
60
60
C0
ENDCHAR
STARTCHAR 002A
ENCODING 42
SWIDTH 589 0
DWIDTH 9 0
BBX 7 8 1 3
BITMAP
10
10
92
FE
38
38
6C
46
ENDCHAR
STARTCHAR 002B
ENCODING 43
SWIDTH 589 0
DWIDTH 9 0
BBX 8 9 1 1
BITMAP
10
10
10
10
FF
FF
10
10
10
ENDCHAR
STARTCHAR 002C
ENCODING 44
SWIDTH 589 0
DWIDTH 9 0
BBX 3 6 3 -3
BITMAP
60
E0
60
20
60
C0
ENDCHAR
STARTCHAR 002D
ENCODING 45
SWIDTH 589 0
DWIDTH 9 0
BBX 6 2 2 4
BITMAP
FC
FC
ENDCHAR
STARTCHAR 002E
ENCODING 46
SWIDTH 589 0
DWIDTH 9 0
BBX 3 3 3 0
BITMAP
40
E0
60
ENDCHAR
STARTCHAR 002F
ENCODING 47
SWIDTH 589 0
DWIDTH 9 0
BBX 7 13 1 -1
BITMAP
06
06
04
0C
08
18
10
30
30
60
60
40
C0
ENDCHAR
STARTCHAR 0030
ENCODING 48
SWIDTH 589 0
DWIDTH 9 0
BBX 7 12 1 0
BITMAP
38
7C
E6
C6
D6
D6
D6
D6
C6
E6
7C
38
ENDCHAR
STARTCHAR 0031
ENCODING 49
SWIDTH 589 0
DWIDTH 9 0
BBX 7 12 1 0
BITMAP
38
38
78
D8
58
18
18
18
18
18
FE
FE
ENDCHAR
STARTCHAR 0032
ENCODING 50
SWIDTH 589 0
DWIDTH 9 0
BBX 7 12 1 0
BITMAP
F8
FC
8E
06
0E
0C
1C
38
70
E0
FE
FE
ENDCHAR
STARTCHAR 0033
ENCODING 51
SWIDTH 589 0
DWIDTH 9 0
BBX 7 12 1 0
BITMAP
F8
FE
86
06
0E
3C
3C
06
06
86
FE
FC
ENDCHAR
STARTCHAR 0034
ENCODING 52
SWIDTH 589 0
DWIDTH 9 0
BBX 8 12 1 0
BITMAP
0C
1C
3C
3C
6C
4C
CC
FF
FF
0C
0C
0C
ENDCHAR
STARTCHAR 0035
ENCODING 53
SWIDTH 589 0
DWIDTH 9 0
BBX 7 12 1 0
BITMAP
FC
FC
C0
C0
F8
FC
8E
06
06
86
FC
F8
ENDCHAR
STARTCHAR 0036
ENCODING 54
SWIDTH 589 0
DWIDTH 9 0
BBX 7 12 1 0
BITMAP
3E
7E
62
C0
DC
FE
E6
C6
C6
E6
7E
3C
ENDCHAR
STARTCHAR 0037
ENCODING 55
SWIDTH 589 0
DWIDTH 9 0
BBX 7 12 1 0
BITMAP
FE
FE
0E
0C
0C
1C
18
18
38
30
30
60
ENDCHAR
STARTCHAR 0038
ENCODING 56
SWIDTH 589 0
DWIDTH 9 0
BBX 7 12 1 0
BITMAP
3C
7E
C6
C6
E6
7C
7C
C6
C6
C6
FE
7C
ENDCHAR
STARTCHAR 0039
ENCODING 57
SWIDTH 589 0
DWIDTH 9 0
BBX 7 12 1 0
BITMAP
78
FC
C6
C6
C6
CE
FE
76
06
8E
7C
78
ENDCHAR
STARTCHAR 003A
ENCODING 58
SWIDTH 589 0
DWIDTH 9 0
BBX 3 9 3 0
BITMAP
60
E0
60
00
00
00
60
E0
60
ENDCHAR
STARTCHAR 003B
ENCODING 59
SWIDTH 589 0
DWIDTH 9 0
BBX 3 13 3 -4
BITMAP
E0
E0
E0
00
00
00
60
E0
60
20
60
C0
80
ENDCHAR
STARTCHAR 003C
ENCODING 60
SWIDTH 589 0
DWIDTH 9 0
BBX 8 8 1 1
BITMAP
01
0F
3C
F0
C0
78
1F
03
ENDCHAR
STARTCHAR 003D
ENCODING 61
SWIDTH 589 0
DWIDTH 9 0
BBX 8 6 1 2
BITMAP
FF
FF
00
00
FF
FF
ENDCHAR
STARTCHAR 003E
ENCODING 62
SWIDTH 589 0
DWIDTH 9 0
BBX 8 8 1 1
BITMAP
80
E0
78
0F
07
3E
F0
80
ENDCHAR
STARTCHAR 003F
ENCODING 63
SWIDTH 589 0
DWIDTH 9 0
BBX 6 12 2 0
BITMAP
78
FC
8C
0C
18
30
20
20
00
20
70
60
ENDCHAR
STARTCHAR 0040
ENCODING 64
SWIDTH 589 0
DWIDTH 9 0
BBX 9 14 0 -2
BITMAP
1E00
3F00
6300
4180
CF80
DF80
D980
D180
D980
DF80
4F80
6000
3F80
1F00
ENDCHAR
STARTCHAR 0041
ENCODING 65
SWIDTH 589 0
DWIDTH 9 0
BBX 9 12 0 0
BITMAP
1C00
1C00
1E00
3600
3600
3600
3300
7F00
7F00
6300
6380
E180
ENDCHAR
STARTCHAR 0042
ENCODING 66
SWIDTH 589 0
DWIDTH 9 0
BBX 8 12 1 0
BITMAP
FC
FE
C6
C6
C6
FC
FE
C6
C7
C7
FE
FC
ENDCHAR
STARTCHAR 0043
ENCODING 67
SWIDTH 589 0
DWIDTH 9 0
BBX 7 12 1 0
BITMAP
3E
7E
62
E0
C0
C0
C0
C0
E0
62
7E
3E
ENDCHAR
STARTCHAR 0044
ENCODING 68
SWIDTH 589 0
DWIDTH 9 0
BBX 8 12 1 0
BITMAP
F8
FC
CE
C6
C6
C7
C7
C6
C6
CE
FC
F8
ENDCHAR
STARTCHAR 0045
ENCODING 69
SWIDTH 589 0
DWIDTH 9 0
BBX 7 12 1 0
BITMAP
FE
FE
C0
C0
C0
FE
FE
C0
C0
C0
FE
FE
ENDCHAR
STARTCHAR 0046
ENCODING 70
SWIDTH 589 0
DWIDTH 9 0
BBX 7 12 1 0
BITMAP
FE
FE
E0
E0
E0
FE
FE
E0
E0
E0
E0
E0
ENDCHAR
STARTCHAR 0047
ENCODING 71
SWIDTH 589 0
DWIDTH 9 0
BBX 7 12 1 0
BITMAP
3E
7E
E2
C0
C0
CE
CE
C6
E6
66
7E
3E
ENDCHAR
STARTCHAR 0048
ENCODING 72
SWIDTH 589 0
DWIDTH 9 0
BBX 7 12 1 0
BITMAP
C6
C6
C6
C6
C6
FE
FE
C6
C6
C6
C6
C6
ENDCHAR
STARTCHAR 0049
ENCODING 73
SWIDTH 589 0
DWIDTH 9 0
BBX 7 12 1 0
BITMAP
FE
FE
38
38
38
38
38
38
38
38
FE
FE
ENDCHAR
STARTCHAR 004A
ENCODING 74
SWIDTH 589 0
DWIDTH 9 0
BBX 7 12 1 0
BITMAP
3E
3E
0E
0E
0E
0E
0E
0E
0E
8C
FC
F8
ENDCHAR
STARTCHAR 004B
ENCODING 75
SWIDTH 589 0
DWIDTH 9 0
BBX 8 12 1 0
BITMAP
C7
CE
CC
D8
F8
F8
F8
DC
CC
CE
C6
C7
ENDCHAR
STARTCHAR 004C
ENCODING 76
SWIDTH 589 0
DWIDTH 9 0
BBX 7 12 2 0
BITMAP
C0
C0
C0
C0
C0
C0
C0
C0
C0
C0
FE
FE
ENDCHAR
STARTCHAR 004D
ENCODING 77
SWIDTH 589 0
DWIDTH 9 0
BBX 8 12 1 0
BITMAP
C7
E7
EF
EB
EB
FB
FB
DB
C3
C3
C3
C3
ENDCHAR
STARTCHAR 004E
ENCODING 78
SWIDTH 589 0
DWIDTH 9 0
BBX 7 12 1 0
BITMAP
C6
E6
E6
E6
F6
D6
DE
DE
CE
CE
CE
C6
ENDCHAR
STARTCHAR 004F
ENCODING 79
SWIDTH 589 0
DWIDTH 9 0
BBX 8 12 1 0
BITMAP
3C
7E
E6
C6
C6
C7
C7
C6
C6
E6
7E
3C
ENDCHAR
STARTCHAR 0050
ENCODING 80
SWIDTH 589 0
DWIDTH 9 0
BBX 8 12 1 0
BITMAP
FC
FE
C6
C7
C7
C6
FE
FC
C0
C0
C0
C0
ENDCHAR
STARTCHAR 0051
ENCODING 81
SWIDTH 589 0
DWIDTH 9 0
BBX 8 14 1 -2
BITMAP
3C
7E
E6
C6
C6
C7
C7
C6
C6
E6
7E
3C
0E
07
ENDCHAR
STARTCHAR 0052
ENCODING 82
SWIDTH 589 0
DWIDTH 9 0
BBX 8 12 1 0
BITMAP
FC
FE
C6
C6
C6
FC
FC
CC
CE
C6
C7
C3
ENDCHAR
STARTCHAR 0053
ENCODING 83
SWIDTH 589 0
DWIDTH 9 0
BBX 7 12 1 0
BITMAP
7C
FE
C2
C0
E0
7C
3E
0E
06
86
FE
7C
ENDCHAR
STARTCHAR 0054
ENCODING 84
SWIDTH 589 0
DWIDTH 9 0
BBX 8 12 1 0
BITMAP
FF
FF
38
38
38
38
38
38
38
38
38
38
ENDCHAR
STARTCHAR 0055
ENCODING 85
SWIDTH 589 0
DWIDTH 9 0
BBX 7 12 1 0
BITMAP
C6
C6
C6
C6
C6
C6
C6
C6
C6
C6
FE
7C
ENDCHAR
STARTCHAR 0056
ENCODING 86
SWIDTH 589 0
DWIDTH 9 0
BBX 9 12 0 0
BITMAP
E380
6300
6300
6300
7300
3700
3600
3600
3600
1600
1C00
1C00
ENDCHAR
STARTCHAR 0057
ENCODING 87
SWIDTH 589 0
DWIDTH 9 0
BBX 9 12 0 0
BITMAP
C180
C180
C180
CD80
5D80
5D80
7580
7500
7700
7700
7300
7300
ENDCHAR
STARTCHAR 0058
ENCODING 88
SWIDTH 589 0
DWIDTH 9 0
BBX 9 12 0 0
BITMAP
E380
6300
3700
3600
1E00
1C00
1C00
1E00
3600
3700
6300
E380
ENDCHAR
STARTCHAR 0059
ENCODING 89
SWIDTH 589 0
DWIDTH 9 0
BBX 9 12 0 0
BITMAP
E180
6300
7300
3600
3600
1E00
1C00
1C00
1C00
1C00
1C00
1C00
ENDCHAR
STARTCHAR 005A
ENCODING 90
SWIDTH 589 0
DWIDTH 9 0
BBX 8 12 1 0
BITMAP
FE
FE
0E
0C
1C
18
30
70
60
E0
FF
FF
ENDCHAR
STARTCHAR 005B
ENCODING 91
SWIDTH 589 0
DWIDTH 9 0
BBX 5 15 2 -2
BITMAP
F8
F8
C0
C0
C0
C0
C0
C0
C0
C0
C0
C0
C0
F8
F8
ENDCHAR
STARTCHAR 005C
ENCODING 92
SWIDTH 589 0
DWIDTH 9 0
BBX 7 13 1 -1
BITMAP
C0
40
60
60
30
30
10
18
08
0C
04
06
06
ENDCHAR
STARTCHAR 005D
ENCODING 93
SWIDTH 589 0
DWIDTH 9 0
BBX 5 15 2 -2
BITMAP
F8
F8
18
18
18
18
18
18
18
18
18
18
18
F8
F8
ENDCHAR
STARTCHAR 005E
ENCODING 94
SWIDTH 589 0
DWIDTH 9 0
BBX 9 5 0 7
BITMAP
0C00
1C00
3E00
3700
E380
ENDCHAR
STARTCHAR 005F
ENCODING 95
SWIDTH 589 0
DWIDTH 9 0
BBX 7 2 1 -3
BITMAP
FE
FE
ENDCHAR
STARTCHAR 0060
ENCODING 96
SWIDTH 589 0
DWIDTH 9 0
BBX 5 3 1 10
BITMAP
E0
30
18
ENDCHAR
STARTCHAR 0061
ENCODING 97
SWIDTH 589 0
DWIDTH 9 0
BBX 8 9 1 0
BITMAP
7C
7E
86
7E
FE
C6
C6
FE
77
ENDCHAR
STARTCHAR 0062
ENCODING 98
SWIDTH 589 0
DWIDTH 9 0
BBX 8 12 1 0
BITMAP
C0
C0
C0
DC
FE
E6
C6
C7
C6
E6
FE
DC
ENDCHAR
STARTCHAR 0063
ENCODING 99
SWIDTH 589 0
DWIDTH 9 0
BBX 7 9 1 0
BITMAP
3C
7E
E2
C0
C0
C0
E2
7E
3E
ENDCHAR
STARTCHAR 0064
ENCODING 100
SWIDTH 589 0
DWIDTH 9 0
BBX 7 12 1 0
BITMAP
06
06
06
76
FE
CE
C6
C6
C6
CE
FE
76
ENDCHAR
STARTCHAR 0065
ENCODING 101
SWIDTH 589 0
DWIDTH 9 0
BBX 8 9 1 0
BITMAP
3C
FE
C6
FE
FF
C0
C2
FE
3E
ENDCHAR
STARTCHAR 0066
ENCODING 102
SWIDTH 589 0
DWIDTH 9 0
BBX 7 12 1 0
BITMAP
1E
3E
30
FE
FE
30
30
30
30
30
30
30
ENDCHAR
STARTCHAR 0067
ENCODING 103
SWIDTH 589 0
DWIDTH 9 0
BBX 7 12 1 -3
BITMAP
76
FE
C6
C6
C6
C6
C6
FE
76
06
7E
7C
ENDCHAR
STARTCHAR 0068
ENCODING 104
SWIDTH 589 0
DWIDTH 9 0
BBX 7 12 1 0
BITMAP
C0
C0
C0
DC
FE
E6
C6
C6
C6
C6
C6
C6
ENDCHAR
STARTCHAR 0069
ENCODING 105
SWIDTH 589 0
DWIDTH 9 0
BBX 7 12 1 0
BITMAP
30
30
30
F0
F0
30
30
30
30
38
3E
1E
ENDCHAR
STARTCHAR 006A
ENCODING 106
SWIDTH 589 0
DWIDTH 9 0
BBX 6 15 1 -3
BITMAP
1C
1C
1C
7C
7C
1C
1C
1C
1C
1C
1C
1C
18
F8
F8
ENDCHAR
STARTCHAR 006B
ENCODING 107
SWIDTH 589 0
DWIDTH 9 0
BBX 8 12 1 0
BITMAP
C0
C0
C0
C7
CC
D8
F8
F8
EC
CC
C6
C7
ENDCHAR
STARTCHAR 006C
ENCODING 108
SWIDTH 589 0
DWIDTH 9 0
BBX 7 12 1 0
BITMAP
F0
F0
30
30
30
30
30
30
30
30
3E
1E
ENDCHAR
STARTCHAR 006D
ENCODING 109
SWIDTH 589 0
DWIDTH 9 0
BBX 8 9 1 0
BITMAP
B6
FE
9B
9B
9B
9B
9B
9B
9B
ENDCHAR
STARTCHAR 006E
ENCODING 110
SWIDTH 589 0
DWIDTH 9 0
BBX 7 9 1 0
BITMAP
DC
FE
E6
C6
C6
C6
C6
C6
C6
ENDCHAR
STARTCHAR 006F
ENCODING 111
SWIDTH 589 0
DWIDTH 9 0
BBX 7 9 1 0
BITMAP
3C
7E
C6
C6
C6
C6
C6
7E
3C
ENDCHAR
STARTCHAR 0070
ENCODING 112
SWIDTH 589 0
DWIDTH 9 0
BBX 8 12 1 -3
BITMAP
DC
FE
E6
C6
C7
C6
E6
FE
DC
C0
C0
C0
ENDCHAR
STARTCHAR 0071
ENCODING 113
SWIDTH 589 0
DWIDTH 9 0
BBX 7 12 1 -3
BITMAP
76
FE
CE
C6
C6
C6
CE
FE
76
06
06
06
ENDCHAR
STARTCHAR 0072
ENCODING 114
SWIDTH 589 0
DWIDTH 9 0
BBX 6 9 2 0
BITMAP
DC
FC
E4
C0
C0
C0
C0
C0
C0
ENDCHAR
STARTCHAR 0073
ENCODING 115
SWIDTH 589 0
DWIDTH 9 0
BBX 7 9 1 0
BITMAP
7C
FC
C2
E0
7C
0E
86
FE
7C
ENDCHAR
STARTCHAR 0074
ENCODING 116
SWIDTH 589 0
DWIDTH 9 0
BBX 7 12 1 0
BITMAP
30
30
30
FE
FE
30
30
30
30
30
3E
1E
ENDCHAR
STARTCHAR 0075
ENCODING 117
SWIDTH 589 0
DWIDTH 9 0
BBX 7 9 1 0
BITMAP
C6
C6
C6
C6
C6
C6
EE
FE
76
ENDCHAR
STARTCHAR 0076
ENCODING 118
SWIDTH 589 0
DWIDTH 9 0
BBX 8 9 1 0
BITMAP
C7
C6
C6
6E
6C
6C
2C
38
38
ENDCHAR
STARTCHAR 0077
ENCODING 119
SWIDTH 589 0
DWIDTH 9 0
BBX 9 9 0 0
BITMAP
C180
C180
CD80
5D80
5D00
7500
7700
7700
7700
ENDCHAR
STARTCHAR 0078
ENCODING 120
SWIDTH 589 0
DWIDTH 9 0
BBX 9 9 0 0
BITMAP
6380
3700
3600
1C00
1C00
1C00
3600
7700
E380
ENDCHAR
STARTCHAR 0079
ENCODING 121
SWIDTH 589 0
DWIDTH 9 0
BBX 8 12 1 -3
BITMAP
C7
C6
E6
6E
6C
3C
3C
38
18
30
F0
E0
ENDCHAR
STARTCHAR 007A
ENCODING 122
SWIDTH 589 0
DWIDTH 9 0
BBX 7 9 1 0
BITMAP
FE
FE
0E
1C
38
30
60
FE
FE
ENDCHAR
STARTCHAR 007B
ENCODING 123
SWIDTH 589 0
DWIDTH 9 0
BBX 6 15 1 -3
BITMAP
1C
3C
30
30
30
30
30
F0
F0
30
30
30
30
3C
1C
ENDCHAR
STARTCHAR 007C
ENCODING 124
SWIDTH 589 0
DWIDTH 9 0
BBX 1 16 4 -4
BITMAP
80
80
80
80
80
80
80
80
80
80
80
80
80
80
80
80
ENDCHAR
STARTCHAR 007D
ENCODING 125
SWIDTH 589 0
DWIDTH 9 0
BBX 6 15 2 -3
BITMAP
E0
F0
30
30
30
30
30
1C
3C
30
30
30
30
F0
E0
ENDCHAR
STARTCHAR 007E
ENCODING 126
SWIDTH 589 0
DWIDTH 9 0
BBX 8 4 1 3
BITMAP
63
F3
9E
8E
ENDCHAR
STARTCHAR 00A0
ENCODING 160
SWIDTH 589 0
DWIDTH 9 0
BBX 0 0 0 0
BITMAP
ENDCHAR
STARTCHAR 00A1
ENCODING 161
SWIDTH 589 0
DWIDTH 9 0
BBX 3 12 3 0
BITMAP
60
E0
60
00
40
40
40
60
60
E0
E0
E0
ENDCHAR
STARTCHAR 00A2
ENCODING 162
SWIDTH 589 0
DWIDTH 9 0
BBX 7 14 1 -3
BITMAP
08
08
3E
7E
EA
C8
C8
C8
C8
6A
7E
1C
08
08
ENDCHAR
STARTCHAR 00A3
ENCODING 163
SWIDTH 589 0
DWIDTH 9 0
BBX 7 12 1 0
BITMAP
1E
3E
32
30
30
FC
FC
30
30
30
FE
FE
ENDCHAR
STARTCHAR 00A4
ENCODING 164
SWIDTH 589 0
DWIDTH 9 0
BBX 7 8 1 1
BITMAP
42
DE
7C
64
64
7C
FE
42
ENDCHAR
STARTCHAR 00A5
ENCODING 165
SWIDTH 589 0
DWIDTH 9 0
BBX 9 12 0 0
BITMAP
E180
6300
7300
3600
F780
FF80
1C00
FF80
FF80
1C00
1C00
1C00
ENDCHAR
STARTCHAR 00A6
ENCODING 166
SWIDTH 589 0
DWIDTH 9 0
BBX 1 14 4 -3
BITMAP
80
80
80
80
80
80
00
00
80
80
80
80
80
80
ENDCHAR
STARTCHAR 00A7
ENCODING 167
SWIDTH 589 0
DWIDTH 9 0
BBX 7 14 1 -2
BITMAP
3C
7C
60
60
38
7C
C6
E6
7C
1C
0C
0C
7C
78
ENDCHAR
STARTCHAR 00A8
ENCODING 168
SWIDTH 589 0
DWIDTH 9 0
BBX 5 2 2 10
BITMAP
D8
D8
ENDCHAR
STARTCHAR 00A9
ENCODING 169
SWIDTH 589 0
DWIDTH 9 0
BBX 9 10 0 1
BITMAP
1E00
6300
4180
9C80
B080
A080
B080
5D80
6300
1E00
ENDCHAR
STARTCHAR 00AA
ENCODING 170
SWIDTH 589 0
DWIDTH 9 0
BBX 5 8 2 3
BITMAP
F0
88
78
C8
C8
F8
00
F8
ENDCHAR
STARTCHAR 00AB
ENCODING 171
SWIDTH 589 0
DWIDTH 9 0
BBX 7 7 0 1
BITMAP
12
32
6E
C8
6C
32
12
ENDCHAR
STARTCHAR 00AC
ENCODING 172
SWIDTH 589 0
DWIDTH 9 0
BBX 8 4 1 3
BITMAP
FF
FF
03
03
ENDCHAR
STARTCHAR 00AD
ENCODING 173
SWIDTH 589 0
DWIDTH 9 0
BBX 5 2 2 3
BITMAP
F8
F8
ENDCHAR
STARTCHAR 00AE
ENCODING 174
SWIDTH 589 0
DWIDTH 9 0
BBX 9 10 0 1
BITMAP
1E00
6300
4180
9C80
9480
9C80
9480
5780
6300
1E00
ENDCHAR
STARTCHAR 00AF
ENCODING 175
SWIDTH 589 0
DWIDTH 9 0
BBX 5 2 2 11
BITMAP
F8
F8
ENDCHAR
STARTCHAR 00B0
ENCODING 176
SWIDTH 589 0
DWIDTH 9 0
BBX 5 6 2 7
BITMAP
70
F8
C8
88
F8
70
ENDCHAR
STARTCHAR 00B1
ENCODING 177
SWIDTH 589 0
DWIDTH 9 0
BBX 8 10 1 0
BITMAP
10
10
10
FF
FF
10
10
00
FF
FF
ENDCHAR
STARTCHAR 00B2
ENCODING 178
SWIDTH 589 0
DWIDTH 9 0
BBX 5 7 2 8
BITMAP
F0
98
18
10
20
40
F8
ENDCHAR
STARTCHAR 00B3
ENCODING 179
SWIDTH 589 0
DWIDTH 9 0
BBX 5 7 2 8
BITMAP
F0
98
18
30
08
08
F8
ENDCHAR
STARTCHAR 00B4
ENCODING 180
SWIDTH 589 0
DWIDTH 9 0
BBX 4 3 4 10
BITMAP
70
40
80
ENDCHAR
STARTCHAR 00B5
ENCODING 181
SWIDTH 589 0
DWIDTH 9 0
BBX 8 12 1 -3
BITMAP
C6
C6
C6
C6
C6
C6
C6
FF
FB
C0
C0
C0
ENDCHAR
STARTCHAR 00B6
ENCODING 182
SWIDTH 589 0
DWIDTH 9 0
BBX 7 13 1 -1
BITMAP
7E
F2
F2
F2
F2
F2
32
12
12
12
12
12
12
ENDCHAR
STARTCHAR 00B7
ENCODING 183
SWIDTH 589 0
DWIDTH 9 0
BBX 3 3 3 5
BITMAP
40
E0
60
ENDCHAR
STARTCHAR 00B8
ENCODING 184
SWIDTH 589 0
DWIDTH 9 0
BBX 3 3 3 -3
BITMAP
60
20
E0
ENDCHAR
STARTCHAR 00B9
ENCODING 185
SWIDTH 589 0
DWIDTH 9 0
BBX 5 7 2 8
BITMAP
E0
A0
20
20
20
20
F8
ENDCHAR
STARTCHAR 00BA
ENCODING 186
SWIDTH 589 0
DWIDTH 9 0
BBX 5 8 2 3
BITMAP
70
C8
C8
C8
C8
78
00
F8
ENDCHAR
STARTCHAR 00BB
ENCODING 187
SWIDTH 589 0
DWIDTH 9 0
BBX 7 7 2 1
BITMAP
90
D8
6C
26
6C
D8
90
ENDCHAR
STARTCHAR 00BC
ENCODING 188
SWIDTH 589 0
DWIDTH 9 0
BBX 9 15 0 -3
BITMAP
F000
3000
3000
3000
3000
F800
0780
7800
8300
0700
0B00
0B00
1F00
0300
0300
ENDCHAR
STARTCHAR 00BD
ENCODING 189
SWIDTH 589 0
DWIDTH 9 0
BBX 9 15 0 -2
BITMAP
F000
B000
3000
3000
3000
F800
0780
7800
8F00
0980
0100
0300
0600
0C00
0F80
ENDCHAR
STARTCHAR 00BE
ENCODING 190
SWIDTH 589 0
DWIDTH 9 0
BBX 9 16 0 -3
BITMAP
7800
8800
0800
3000
0800
0800
F800
0780
7800
8300
0700
0B00
1B00
1F00
0300
0300
ENDCHAR
STARTCHAR 00BF
ENCODING 191
SWIDTH 589 0
DWIDTH 9 0
BBX 7 12 1 0
BITMAP
18
18
18
18
18
18
30
60
E0
E2
7E
3C
ENDCHAR
STARTCHAR 00C0
ENCODING 192
SWIDTH 589 0
DWIDTH 9 0
BBX 9 14 0 0
BITMAP
3800
0400
1C00
1C00
1E00
3600
3600
3600
3300
7F00
7F00
6300
6380
E180
ENDCHAR
STARTCHAR 00C1
ENCODING 193
SWIDTH 589 0
DWIDTH 9 0
BBX 9 14 0 0
BITMAP
0E00
1000
1C00
1C00
1E00
3600
3600
3600
3300
7F00
7F00
6300
6380
E180
ENDCHAR
STARTCHAR 00C2
ENCODING 194
SWIDTH 589 0
DWIDTH 9 0
BBX 9 14 0 0
BITMAP
1C00
2200
1C00
1C00
1E00
3600
3600
3600
3300
7F00
7F00
6300
6380
E180
ENDCHAR
STARTCHAR 00C3
ENCODING 195
SWIDTH 589 0
DWIDTH 9 0
BBX 9 14 0 0
BITMAP
3E00
0000
1C00
1C00
1E00
3600
3600
3600
3300
7F00
7F00
6300
6380
E180
ENDCHAR
STARTCHAR 00C4
ENCODING 196
SWIDTH 589 0
DWIDTH 9 0
BBX 9 14 0 0
BITMAP
3600
3600
1C00
1C00
1E00
3600
3600
3600
3300
7F00
7F00
6300
6380
E180
ENDCHAR
STARTCHAR 00C5
ENCODING 197
SWIDTH 589 0
DWIDTH 9 0
BBX 9 14 0 0
BITMAP
1C00
1200
3C00
1C00
1E00
1600
3600
3600
3300
7F00
7F00
6300
6380
E180
ENDCHAR
STARTCHAR 00C6
ENCODING 198
SWIDTH 589 0
DWIDTH 9 0
BBX 9 12 0 0
BITMAP
1F80
3F80
3400
3400
2400
6700
6700
7C00
7C00
4400
C780
C780
ENDCHAR
STARTCHAR 00C7
ENCODING 199
SWIDTH 589 0
DWIDTH 9 0
BBX 7 15 1 -3
BITMAP
3E
7E
62
E0
C0
C0
C0
C0
E0
62
7E
3E
0C
04
1C
ENDCHAR
STARTCHAR 00C8
ENCODING 200
SWIDTH 589 0
DWIDTH 9 0
BBX 7 15 1 0
BITMAP
60
30
18
FE
FE
C0
C0
C0
FE
FE
C0
C0
C0
FE
FE
ENDCHAR
STARTCHAR 00C9
ENCODING 201
SWIDTH 589 0
DWIDTH 9 0
BBX 7 15 1 0
BITMAP
0C
18
10
FE
FE
C0
C0
C0
FE
FE
C0
C0
C0
FE
FE
ENDCHAR
STARTCHAR 00CA
ENCODING 202
SWIDTH 589 0
DWIDTH 9 0
BBX 7 14 1 0
BITMAP
3C
42
FE
FE
C0
C0
C0
FE
FE
C0
C0
C0
FE
FE
ENDCHAR
STARTCHAR 00CB
ENCODING 203
SWIDTH 589 0
DWIDTH 9 0
BBX 7 14 1 0
BITMAP
6C
6C
FE
FE
C0
C0
C0
FE
FE
C0
C0
C0
FE
FE
ENDCHAR
STARTCHAR 00CC
ENCODING 204
SWIDTH 589 0
DWIDTH 9 0
BBX 7 14 1 0
BITMAP
70
08
FE
FE
38
38
38
38
38
38
38
38
FE
FE
ENDCHAR
STARTCHAR 00CD
ENCODING 205
SWIDTH 589 0
DWIDTH 9 0
BBX 7 14 1 0
BITMAP
1C
20
FE
FE
38
38
38
38
38
38
38
38
FE
FE
ENDCHAR
STARTCHAR 00CE
ENCODING 206
SWIDTH 589 0
DWIDTH 9 0
BBX 7 14 1 0
BITMAP
38
44
FE
FE
38
38
38
38
38
38
38
38
FE
FE
ENDCHAR
STARTCHAR 00CF
ENCODING 207
SWIDTH 589 0
DWIDTH 9 0
BBX 7 14 1 0
BITMAP
6C
6C
FE
FE
38
38
38
38
38
38
38
38
FE
FE
ENDCHAR
STARTCHAR 00D0
ENCODING 208
SWIDTH 589 0
DWIDTH 9 0
BBX 9 12 0 0
BITMAP
7C00
7E00
6700
6300
6300
FB80
FB80
6300
6300
6700
7E00
7C00
ENDCHAR
STARTCHAR 00D1
ENCODING 209
SWIDTH 589 0
DWIDTH 9 0
BBX 7 14 1 0
BITMAP
7C
00
C6
E6
E6
E6
F6
D6
DE
DE
CE
CE
CE
C6
ENDCHAR
STARTCHAR 00D2
ENCODING 210
SWIDTH 589 0
DWIDTH 9 0
BBX 8 14 1 0
BITMAP
70
18
3C
7E
E6
C6
C6
C7
C7
C6
C6
E6
7E
3C
ENDCHAR
STARTCHAR 00D3
ENCODING 211
SWIDTH 589 0
DWIDTH 9 0
BBX 8 14 1 0
BITMAP
0C
10
3C
7E
E6
C6
C6
C7
C7
C6
C6
E6
7E
3C
ENDCHAR
STARTCHAR 00D4
ENCODING 212
SWIDTH 589 0
DWIDTH 9 0
BBX 8 14 1 0
BITMAP
38
44
3C
7E
E6
C6
C6
C7
C7
C6
C6
E6
7E
3C
ENDCHAR
STARTCHAR 00D5
ENCODING 213
SWIDTH 589 0
DWIDTH 9 0
BBX 8 14 1 0
BITMAP
7C
00
3C
7E
E6
C6
C6
C7
C7
C6
C6
E6
7E
3C
ENDCHAR
STARTCHAR 00D6
ENCODING 214
SWIDTH 589 0
DWIDTH 9 0
BBX 8 14 1 0
BITMAP
6C
6C
3C
7E
E6
C6
C6
C7
C7
C6
C6
E6
7E
3C
ENDCHAR
STARTCHAR 00D7
ENCODING 215
SWIDTH 589 0
DWIDTH 9 0
BBX 7 8 1 1
BITMAP
42
C6
6E
3C
38
7C
E6
42
ENDCHAR
STARTCHAR 00D8
ENCODING 216
SWIDTH 589 0
DWIDTH 9 0
BBX 9 12 0 0
BITMAP
1F80
3F00
7300
6700
6700
6F80
7B80
7300
7300
7300
7F00
DE00
ENDCHAR
STARTCHAR 00D9
ENCODING 217
SWIDTH 589 0
DWIDTH 9 0
BBX 7 14 1 0
BITMAP
70
08
C6
C6
C6
C6
C6
C6
C6
C6
C6
C6
FE
7C
ENDCHAR
STARTCHAR 00DA
ENCODING 218
SWIDTH 589 0
DWIDTH 9 0
BBX 7 14 1 0
BITMAP
1C
20
C6
C6
C6
C6
C6
C6
C6
C6
C6
C6
FE
7C
ENDCHAR
STARTCHAR 00DB
ENCODING 219
SWIDTH 589 0
DWIDTH 9 0
BBX 7 14 1 0
BITMAP
38
44
C6
C6
C6
C6
C6
C6
C6
C6
C6
C6
FE
7C
ENDCHAR
STARTCHAR 00DC
ENCODING 220
SWIDTH 589 0
DWIDTH 9 0
BBX 7 14 1 0
BITMAP
6C
6C
C6
C6
C6
C6
C6
C6
C6
C6
C6
C6
FE
7C
ENDCHAR
STARTCHAR 00DD
ENCODING 221
SWIDTH 589 0
DWIDTH 9 0
BBX 9 14 0 0
BITMAP
0E00
1000
E180
6300
7300
3600
3600
1E00
1C00
1C00
1C00
1C00
1C00
1C00
ENDCHAR
STARTCHAR 00DE
ENCODING 222
SWIDTH 589 0
DWIDTH 9 0
BBX 8 12 1 0
BITMAP
C0
C0
FC
FE
C6
C7
C6
FE
FC
C0
C0
C0
ENDCHAR
STARTCHAR 00DF
ENCODING 223
SWIDTH 589 0
DWIDTH 9 0
BBX 8 12 1 0
BITMAP
78
FC
C6
CE
D8
D8
DC
CE
C7
C3
DF
DE
ENDCHAR
STARTCHAR 00E0
ENCODING 224
SWIDTH 589 0
DWIDTH 9 0
BBX 8 14 1 0
BITMAP
E0
60
30
18
00
7C
7E
86
7E
FE
C6
C6
FE
77
ENDCHAR
STARTCHAR 00E1
ENCODING 225
SWIDTH 589 0
DWIDTH 9 0
BBX 8 14 1 0
BITMAP
06
0C
18
30
00
7C
7E
86
7E
FE
C6
C6
FE
77
ENDCHAR
STARTCHAR 00E2
ENCODING 226
SWIDTH 589 0
DWIDTH 9 0
BBX 8 14 1 0
BITMAP
18
38
6C
44
00
7C
7E
86
7E
FE
C6
C6
FE
77
ENDCHAR
STARTCHAR 00E3
ENCODING 227
SWIDTH 589 0
DWIDTH 9 0
BBX 8 12 1 0
BITMAP
7C
00
00
7C
7E
86
7E
FE
C6
C6
FE
77
ENDCHAR
STARTCHAR 00E4
ENCODING 228
SWIDTH 589 0
DWIDTH 9 0
BBX 8 12 1 0
BITMAP
6C
6C
00
7C
7E
86
7E
FE
C6
C6
FE
77
ENDCHAR
STARTCHAR 00E5
ENCODING 229
SWIDTH 589 0
DWIDTH 9 0
BBX 8 14 1 0
BITMAP
38
6C
2C
38
00
7C
7E
86
7E
FE
C6
C6
FE
77
ENDCHAR
STARTCHAR 00E6
ENCODING 230
SWIDTH 589 0
DWIDTH 9 0
BBX 9 9 0 0
BITMAP
7700
7F80
0D80
7F80
FF80
CC00
CC80
FF80
7700
ENDCHAR
STARTCHAR 00E7
ENCODING 231
SWIDTH 589 0
DWIDTH 9 0
BBX 7 12 1 -3
BITMAP
3E
7E
62
E0
C0
E0
62
7E
3E
08
0C
38
ENDCHAR
STARTCHAR 00E8
ENCODING 232
SWIDTH 589 0
DWIDTH 9 0
BBX 8 14 1 0
BITMAP
60
30
10
08
00
3C
7E
C6
FF
FF
C0
C2
7E
3E
ENDCHAR
STARTCHAR 00E9
ENCODING 233
SWIDTH 589 0
DWIDTH 9 0
BBX 8 14 1 0
BITMAP
06
0C
18
10
00
3C
FE
C6
FE
FF
C0
C2
FE
3E
ENDCHAR
STARTCHAR 00EA
ENCODING 234
SWIDTH 589 0
DWIDTH 9 0
BBX 8 14 1 0
BITMAP
18
38
2C
46
00
3C
FE
C6
FE
FF
C0
C2
FE
3E
ENDCHAR
STARTCHAR 00EB
ENCODING 235
SWIDTH 589 0
DWIDTH 9 0
BBX 8 12 1 0
BITMAP
6C
6C
00
3C
FE
C6
FE
FF
C0
C2
FE
3E
ENDCHAR
STARTCHAR 00EC
ENCODING 236
SWIDTH 589 0
DWIDTH 9 0
BBX 7 14 1 0
BITMAP
C0
60
30
10
00
F0
F0
30
30
30
30
38
1E
1E
ENDCHAR
STARTCHAR 00ED
ENCODING 237
SWIDTH 589 0
DWIDTH 9 0
BBX 7 13 1 0
BITMAP
0C
18
30
00
F0
F0
30
30
30
30
30
3E
1E
ENDCHAR
STARTCHAR 00EE
ENCODING 238
SWIDTH 589 0
DWIDTH 9 0
BBX 7 13 1 0
BITMAP
30
78
CC
00
F0
F0
30
30
30
30
30
3E
1E
ENDCHAR
STARTCHAR 00EF
ENCODING 239
SWIDTH 589 0
DWIDTH 9 0
BBX 7 12 1 0
BITMAP
48
48
00
F0
F0
30
30
30
30
38
3E
1E
ENDCHAR
STARTCHAR 00F0
ENCODING 240
SWIDTH 589 0
DWIDTH 9 0
BBX 7 12 1 0
BITMAP
76
78
8C
3C
7E
C6
C6
C6
C6
C6
7E
3C
ENDCHAR
STARTCHAR 00F1
ENCODING 241
SWIDTH 589 0
DWIDTH 9 0
BBX 7 12 1 0
BITMAP
7C
00
00
DC
FE
E6
C6
C6
C6
C6
C6
C6
ENDCHAR
STARTCHAR 00F2
ENCODING 242
SWIDTH 589 0
DWIDTH 9 0
BBX 7 12 1 0
BITMAP
E0
18
00
3C
7E
C6
C6
C6
C6
C6
7E
3C
ENDCHAR
STARTCHAR 00F3
ENCODING 243
SWIDTH 589 0
DWIDTH 9 0
BBX 7 12 1 0
BITMAP
0E
38
00
3C
7E
C6
C6
C6
C6
C6
7E
3C
ENDCHAR
STARTCHAR 00F4
ENCODING 244
SWIDTH 589 0
DWIDTH 9 0
BBX 7 12 1 0
BITMAP
38
6C
00
3C
7E
C6
C6
C6
C6
C6
7E
3C
ENDCHAR
STARTCHAR 00F5
ENCODING 245
SWIDTH 589 0
DWIDTH 9 0
BBX 7 12 1 0
BITMAP
7C
00
00
3C
7E
C6
C6
C6
C6
C6
7E
3C
ENDCHAR
STARTCHAR 00F6
ENCODING 246
SWIDTH 589 0
DWIDTH 9 0
BBX 7 12 1 0
BITMAP
6C
6C
00
3C
7E
C6
C6
C6
C6
C6
7E
3C
ENDCHAR
STARTCHAR 00F7
ENCODING 247
SWIDTH 589 0
DWIDTH 9 0
BBX 8 9 1 1
BITMAP
38
38
00
00
FF
FF
00
38
38
ENDCHAR
STARTCHAR 00F8
ENCODING 248
SWIDTH 589 0
DWIDTH 9 0
BBX 9 11 0 -1
BITMAP
0100
1F80
3F00
6700
6700
6F00
7B00
7300
7F00
DE00
4000
ENDCHAR
STARTCHAR 00F9
ENCODING 249
SWIDTH 589 0
DWIDTH 9 0
BBX 7 13 1 0
BITMAP
E0
30
18
00
C6
C6
C6
C6
C6
C6
EE
FE
76
ENDCHAR
STARTCHAR 00FA
ENCODING 250
SWIDTH 589 0
DWIDTH 9 0
BBX 7 13 1 0
BITMAP
0E
08
10
20
C6
C6
C6
C6
C6
C6
EE
FE
76
ENDCHAR
STARTCHAR 00FB
ENCODING 251
SWIDTH 589 0
DWIDTH 9 0
BBX 7 13 1 0
BITMAP
38
28
64
00
C6
C6
C6
C6
C6
C6
EE
FE
76
ENDCHAR
STARTCHAR 00FC
ENCODING 252
SWIDTH 589 0
DWIDTH 9 0
BBX 7 12 1 0
BITMAP
6C
6C
00
C6
C6
C6
C6
C6
C6
EE
FE
76
ENDCHAR
STARTCHAR 00FD
ENCODING 253
SWIDTH 589 0
DWIDTH 9 0
BBX 8 16 1 -3
BITMAP
0E
08
18
00
C7
C6
E6
6E
6C
3C
3C
38
18
30
F0
E0
ENDCHAR
STARTCHAR 00FE
ENCODING 254
SWIDTH 589 0
DWIDTH 9 0
BBX 8 15 1 -3
BITMAP
C0
C0
C0
DC
FE
E6
C6
C7
C6
E6
FE
DC
C0
C0
C0
ENDCHAR
STARTCHAR 00FF
ENCODING 255
SWIDTH 589 0
DWIDTH 9 0
BBX 8 15 1 -3
BITMAP
6C
6C
00
C7
C6
E6
6E
6C
3C
3C
38
18
30
F0
E0
ENDCHAR
STARTCHAR 0100
ENCODING 256
SWIDTH 589 0
DWIDTH 9 0
BBX 9 15 0 0
BITMAP
3E00
3E00
0000
1C00
1C00
1E00
3600
3600
3600
3300
7F00
7F00
6300
6380
E180
ENDCHAR
STARTCHAR 0101
ENCODING 257
SWIDTH 589 0
DWIDTH 9 0
BBX 8 12 1 0
BITMAP
7C
7C
00
7C
7E
86
7E
FE
C6
C6
FE
77
ENDCHAR
STARTCHAR 0102
ENCODING 258
SWIDTH 589 0
DWIDTH 9 0
BBX 9 14 0 0
BITMAP
3E00
0000
1C00
1C00
1E00
3600
3600
3600
3300
7F00
7F00
6300
6380
E180
ENDCHAR
STARTCHAR 0103
ENCODING 259
SWIDTH 589 0
DWIDTH 9 0
BBX 8 12 1 0
BITMAP
7C
00
00
7C
7E
86
7E
FE
C6
C6
FE
77
ENDCHAR
STARTCHAR 0104
ENCODING 260
SWIDTH 589 0
DWIDTH 9 0
BBX 9 15 0 -3
BITMAP
1C00
1C00
1E00
3600
3600
3600
3300
7F00
7F00
6300
6380
E180
0300
0200
0380
ENDCHAR
STARTCHAR 0105
ENCODING 261
SWIDTH 589 0
DWIDTH 9 0
BBX 8 12 1 -3
BITMAP
7C
7E
86
7E
FE
C6
C6
FE
77
04
04
07
ENDCHAR
STARTCHAR 0106
ENCODING 262
SWIDTH 589 0
DWIDTH 9 0
BBX 7 14 1 0
BITMAP
0E
08
3E
7E
62
E0
C0
C0
C0
C0
E0
62
7E
3E
ENDCHAR
STARTCHAR 0107
ENCODING 263
SWIDTH 589 0
DWIDTH 9 0
BBX 7 14 1 0
BITMAP
06
06
0C
18
00
3E
7E
62
E0
C0
E0
62
7E
3E
ENDCHAR
STARTCHAR 0108
ENCODING 264
SWIDTH 589 0
DWIDTH 9 0
BBX 7 14 1 0
BITMAP
3C
66
3E
7E
62
E0
C0
C0
C0
C0
E0
62
7E
3E
ENDCHAR
STARTCHAR 0109
ENCODING 265
SWIDTH 589 0
DWIDTH 9 0
BBX 7 12 1 0
BITMAP
18
66
00
3C
7E
E2
C0
C0
C0
E2
7E
3C
ENDCHAR
STARTCHAR 010A
ENCODING 266
SWIDTH 589 0
DWIDTH 9 0
BBX 7 15 1 0
BITMAP
18
18
00
3E
7E
62
E0
C0
C0
C0
C0
E0
62
7E
3E
ENDCHAR
STARTCHAR 010B
ENCODING 267
SWIDTH 589 0
DWIDTH 9 0
BBX 7 12 1 0
BITMAP
18
18
00
3E
7E
62
E0
C0
E0
62
7E
3E
ENDCHAR
STARTCHAR 010C
ENCODING 268
SWIDTH 589 0
DWIDTH 9 0
BBX 7 14 1 0
BITMAP
36
1C
3E
7E
62
E0
C0
C0
C0
C0
E0
62
7E
3E
ENDCHAR
STARTCHAR 010D
ENCODING 269
SWIDTH 589 0
DWIDTH 9 0
BBX 7 14 1 0
BITMAP
22
36
1C
18
00
3E
7E
62
E0
C0
E0
62
7E
3E
ENDCHAR
STARTCHAR 010E
ENCODING 270
SWIDTH 589 0
DWIDTH 9 0
BBX 8 14 1 0
BITMAP
6C
10
F8
FC
CE
C6
C6
C7
C7
C6
C6
CE
FC
F8
ENDCHAR
STARTCHAR 010F
ENCODING 271
SWIDTH 589 0
DWIDTH 9 0
BBX 10 12 1 0
BITMAP
06C0
0780
0780
7600
FE00
CE00
C600
C600
C600
CE00
FE00
7600
ENDCHAR
STARTCHAR 0110
ENCODING 272
SWIDTH 589 0
DWIDTH 9 0
BBX 9 12 0 0
BITMAP
7C00
7E00
6700
6300
6300
FB80
FB80
6300
6300
6700
7E00
7C00
ENDCHAR
STARTCHAR 0111
ENCODING 273
SWIDTH 589 0
DWIDTH 9 0
BBX 8 12 1 0
BITMAP
1F
1F
06
76
FE
CE
C6
C6
C6
CE
FE
76
ENDCHAR
STARTCHAR 0112
ENCODING 274
SWIDTH 589 0
DWIDTH 9 0
BBX 7 15 1 0
BITMAP
7C
7C
00
FE
FE
C0
C0
C0
FE
FE
C0
C0
C0
FE
FE
ENDCHAR
STARTCHAR 0113
ENCODING 275
SWIDTH 589 0
DWIDTH 9 0
BBX 8 12 1 0
BITMAP
7C
7C
00
3C
FE
C6
FE
FF
C0
C2
FE
3E
ENDCHAR
STARTCHAR 0114
ENCODING 276
SWIDTH 589 0
DWIDTH 9 0
BBX 7 14 1 0
BITMAP
3E
00
FE
FE
C0
C0
C0
FE
FE
C0
C0
C0
FE
FE
ENDCHAR
STARTCHAR 0115
ENCODING 277
SWIDTH 589 0
DWIDTH 9 0
BBX 8 12 1 0
BITMAP
7C
00
00
3C
FE
C6
FE
FF
C0
C2
FE
3E
ENDCHAR
STARTCHAR 0116
ENCODING 278
SWIDTH 589 0
DWIDTH 9 0
BBX 7 14 1 0
BITMAP
18
18
FE
FE
C0
C0
C0
FE
FE
C0
C0
C0
FE
FE
ENDCHAR
STARTCHAR 0117
ENCODING 279
SWIDTH 589 0
DWIDTH 9 0
BBX 8 12 1 0
BITMAP
18
18
00
3C
FE
C6
FE
FF
C0
C2
FE
3E
ENDCHAR
STARTCHAR 0118
ENCODING 280
SWIDTH 589 0
DWIDTH 9 0
BBX 7 15 1 -3
BITMAP
FE
FE
C0
C0
C0
FE
FE
C0
C0
C0
FE
FE
0C
08
0E
ENDCHAR
STARTCHAR 0119
ENCODING 281
SWIDTH 589 0
DWIDTH 9 0
BBX 8 12 1 -3
BITMAP
3C
FE
C6
FE
FF
C0
C2
FE
3E
08
08
0E
ENDCHAR
STARTCHAR 011A
ENCODING 282
SWIDTH 589 0
DWIDTH 9 0
BBX 7 14 1 0
BITMAP
66
18
FE
FE
C0
C0
C0
FE
FE
C0
C0
C0
FE
FE
ENDCHAR
STARTCHAR 011B
ENCODING 283
SWIDTH 589 0
DWIDTH 9 0
BBX 8 14 1 0
BITMAP
44
6C
38
18
00
3C
FE
C6
FE
FF
C0
C2
FE
3E
ENDCHAR
STARTCHAR 011C
ENCODING 284
SWIDTH 589 0
DWIDTH 9 0
BBX 7 14 1 0
BITMAP
3C
66
3E
7E
E2
C0
C0
CE
CE
C6
C6
66
7E
3E
ENDCHAR
STARTCHAR 011D
ENCODING 285
SWIDTH 589 0
DWIDTH 9 0
BBX 7 17 1 -3
BITMAP
18
38
2C
46
00
76
FE
C6
C6
C6
C6
C6
FE
76
06
7E
7C
ENDCHAR
STARTCHAR 011E
ENCODING 286
SWIDTH 589 0
DWIDTH 9 0
BBX 7 14 1 0
BITMAP
3E
00
3E
7E
E2
E0
C0
CE
CE
C6
E6
66
7E
3E
ENDCHAR
STARTCHAR 011F
ENCODING 287
SWIDTH 589 0
DWIDTH 9 0
BBX 7 15 1 -3
BITMAP
7C
00
00
76
FE
C6
C6
C6
C6
C6
FE
76
06
7E
7C
ENDCHAR
STARTCHAR 0120
ENCODING 288
SWIDTH 589 0
DWIDTH 9 0
BBX 7 14 1 0
BITMAP
18
18
3E
7E
E2
C0
C0
CE
CE
C6
C6
66
7E
3E
ENDCHAR
STARTCHAR 0121
ENCODING 289
SWIDTH 589 0
DWIDTH 9 0
BBX 7 15 1 -3
BITMAP
18
18
00
76
FE
C6
C6
C6
C6
C6
FE
76
06
7E
7C
ENDCHAR
STARTCHAR 0122
ENCODING 290
SWIDTH 589 0
DWIDTH 9 0
BBX 7 16 1 -4
BITMAP
3E
7E
E2
C0
C0
C0
CE
CE
C6
66
7E
3E
00
00
0C
18
ENDCHAR
STARTCHAR 0123
ENCODING 291
SWIDTH 589 0
DWIDTH 9 0
BBX 7 15 1 -3
BITMAP
18
38
00
76
FE
C6
C6
C6
C6
C6
FE
76
06
7E
7C
ENDCHAR
STARTCHAR 0124
ENCODING 292
SWIDTH 589 0
DWIDTH 9 0
BBX 7 14 1 0
BITMAP
38
44
C6
C6
C6
C6
C6
FE
FE
C6
C6
C6
C6
C6
ENDCHAR
STARTCHAR 0125
ENCODING 293
SWIDTH 589 0
DWIDTH 9 0
BBX 7 14 1 0
BITMAP
1C
22
C0
C0
C0
DC
FE
E6
C6
C6
C6
C6
C6
C6
ENDCHAR
STARTCHAR 0126
ENCODING 294
SWIDTH 589 0
DWIDTH 9 0
BBX 9 12 0 0
BITMAP
6300
6300
FF80
FF80
6300
7F00
7F00
6300
6300
6300
6300
6300
ENDCHAR
STARTCHAR 0127
ENCODING 295
SWIDTH 589 0
DWIDTH 9 0
BBX 8 12 0 0
BITMAP
FC
FC
60
6E
7F
73
63
63
63
63
63
63
ENDCHAR
STARTCHAR 0128
ENCODING 296
SWIDTH 589 0
DWIDTH 9 0
BBX 7 14 1 0
BITMAP
7C
00
FE
FE
38
38
38
38
38
38
38
38
FE
FE
ENDCHAR
STARTCHAR 0129
ENCODING 297
SWIDTH 589 0
DWIDTH 9 0
BBX 7 12 1 0
BITMAP
64
58
00
F0
F0
30
30
30
30
38
3E
1E
ENDCHAR
STARTCHAR 012A
ENCODING 298
SWIDTH 589 0
DWIDTH 9 0
BBX 7 15 1 0
BITMAP
7C
7C
00
FE
FE
38
38
38
38
38
38
38
38
FE
FE
ENDCHAR
STARTCHAR 012B
ENCODING 299
SWIDTH 589 0
DWIDTH 9 0
BBX 7 12 1 0
BITMAP
78
78
00
F0
F0
30
30
30
30
38
3E
1E
ENDCHAR
STARTCHAR 012C
ENCODING 300
SWIDTH 589 0
DWIDTH 9 0
BBX 7 14 1 0
BITMAP
7C
00
FE
FE
38
38
38
38
38
38
38
38
FE
FE
ENDCHAR
STARTCHAR 012D
ENCODING 301
SWIDTH 589 0
DWIDTH 9 0
BBX 7 12 1 0
BITMAP
7C
00
00
F0
F0
30
30
30
30
38
3E
1E
ENDCHAR
STARTCHAR 012E
ENCODING 302
SWIDTH 589 0
DWIDTH 9 0
BBX 7 15 1 -3
BITMAP
FE
FE
38
38
38
38
38
38
38
38
FE
FE
10
10
1C
ENDCHAR
STARTCHAR 012F
ENCODING 303
SWIDTH 589 0
DWIDTH 9 0
BBX 7 16 1 -3
BITMAP
30
30
30
00
F0
F0
30
30
30
30
38
3E
1E
04
08
06
ENDCHAR
STARTCHAR 0130
ENCODING 304
SWIDTH 589 0
DWIDTH 9 0
BBX 7 14 1 0
BITMAP
18
18
FE
FE
38
38
38
38
38
38
38
38
FE
FE
ENDCHAR
STARTCHAR 0131
ENCODING 305
SWIDTH 589 0
DWIDTH 9 0
BBX 7 9 1 0
BITMAP
F0
F0
30
30
30
30
38
3E
1E
ENDCHAR
STARTCHAR 0132
ENCODING 306
SWIDTH 589 0
DWIDTH 9 0
BBX 7 12 1 0
BITMAP
C6
C6
C6
C6
C6
C6
C6
06
06
0E
FC
F8
ENDCHAR
STARTCHAR 0133
ENCODING 307
SWIDTH 589 0
DWIDTH 9 0
BBX 7 15 1 -3
BITMAP
C6
C6
C6
C6
C6
C6
C6
C6
C6
C6
C6
C6
06
3E
3C
ENDCHAR
STARTCHAR 0134
ENCODING 308
SWIDTH 589 0
DWIDTH 9 0
BBX 8 14 1 0
BITMAP
0E
11
3E
3E
0E
0E
0E
0E
0E
0E
0E
8C
FC
F8
ENDCHAR
STARTCHAR 0135
ENCODING 309
SWIDTH 589 0
DWIDTH 9 0
BBX 7 17 1 -3
BITMAP
08
1C
36
22
00
7C
7C
1C
1C
1C
1C
1C
1C
1C
18
F8
F8
ENDCHAR
STARTCHAR 0136
ENCODING 310
SWIDTH 589 0
DWIDTH 9 0
BBX 8 16 1 -4
BITMAP
C7
CE
CC
D8
F8
F8
F8
DC
CC
CE
C6
C7
00
00
18
10
ENDCHAR
STARTCHAR 0137
ENCODING 311
SWIDTH 589 0
DWIDTH 9 0
BBX 8 16 1 -4
BITMAP
C0
C0
C0
C7
CC
D8
F8
F8
EC
CC
C6
C7
00
00
1C
18
ENDCHAR
STARTCHAR 0138
ENCODING 312
SWIDTH 589 0
DWIDTH 9 0
BBX 8 9 1 0
BITMAP
C7
CC
D8
F8
F8
EC
CC
C6
C7
ENDCHAR
STARTCHAR 0139
ENCODING 313
SWIDTH 589 0
DWIDTH 9 0
BBX 7 14 2 0
BITMAP
38
40
C0
C0
C0
C0
C0
C0
C0
C0
C0
C0
FE
FE
ENDCHAR
STARTCHAR 013A
ENCODING 314
SWIDTH 589 0
DWIDTH 9 0
BBX 7 14 1 0
BITMAP
1C
10
F0
F0
30
30
30
30
30
30
30
30
3E
1E
ENDCHAR
STARTCHAR 013B
ENCODING 315
SWIDTH 589 0
DWIDTH 9 0
BBX 7 16 2 -4
BITMAP
C0
C0
C0
C0
C0
C0
C0
C0
C0
C0
FE
FE
00
00
38
30
ENDCHAR
STARTCHAR 013C
ENCODING 316
SWIDTH 589 0
DWIDTH 9 0
BBX 7 16 1 -4
BITMAP
F0
F0
30
30
30
30
30
30
30
30
3E
1E
00
00
38
30
ENDCHAR
STARTCHAR 013D
ENCODING 317
SWIDTH 589 0
DWIDTH 9 0
BBX 7 12 2 0
BITMAP
CE
CC
CC
C0
C0
C0
C0
C0
C0
C0
FE
FE
ENDCHAR
STARTCHAR 013E
ENCODING 318
SWIDTH 589 0
DWIDTH 9 0
BBX 8 12 1 0
BITMAP
F3
F6
36
30
30
30
30
30
30
30
3E
1E
ENDCHAR
STARTCHAR 013F
ENCODING 319
SWIDTH 589 0
DWIDTH 9 0
BBX 7 12 2 0
BITMAP
C0
C0
C0
C0
C0
D8
D8
C0
C0
C0
FE
FE
ENDCHAR
STARTCHAR 0140
ENCODING 320
SWIDTH 589 0
DWIDTH 9 0
BBX 8 12 0 0
BITMAP
F8
F8
18
18
18
1B
1B
18
18
18
1F
0F
ENDCHAR
STARTCHAR 0141
ENCODING 321
SWIDTH 589 0
DWIDTH 9 0
BBX 9 12 0 0
BITMAP
3000
3000
3000
3600
3C00
3800
7000
F000
B000
3000
3F80
3F80
ENDCHAR
STARTCHAR 0142
ENCODING 322
SWIDTH 589 0
DWIDTH 9 0
BBX 8 12 0 0
BITMAP
78
78
19
1B
1E
18
38
F8
58
18
1F
0F
ENDCHAR
STARTCHAR 0143
ENCODING 323
SWIDTH 589 0
DWIDTH 9 0
BBX 7 14 1 0
BITMAP
0C
10
C6
E6
E6
E6
F6
D6
DE
DE
CE
CE
CE
C6
ENDCHAR
STARTCHAR 0144
ENCODING 324
SWIDTH 589 0
DWIDTH 9 0
BBX 7 14 1 0
BITMAP
06
0C
18
30
00
DC
FE
E6
C6
C6
C6
C6
C6
C6
ENDCHAR
STARTCHAR 0145
ENCODING 325
SWIDTH 589 0
DWIDTH 9 0
BBX 7 16 1 -4
BITMAP
C6
E6
E6
E6
F6
D6
DE
DE
CE
CE
CE
C6
00
00
18
30
ENDCHAR
STARTCHAR 0146
ENCODING 326
SWIDTH 589 0
DWIDTH 9 0
BBX 7 13 1 -4
BITMAP
DC
FE
E6
C6
C6
C6
C6
C6
C6
00
00
18
30
ENDCHAR
STARTCHAR 0147
ENCODING 327
SWIDTH 589 0
DWIDTH 9 0
BBX 7 14 1 0
BITMAP
66
18
C6
E6
E6
E6
F6
D6
DE
DE
CE
CE
CE
C6
ENDCHAR
STARTCHAR 0148
ENCODING 328
SWIDTH 589 0
DWIDTH 9 0
BBX 7 13 1 0
BITMAP
66
3C
18
00
DC
FE
E6
C6
C6
C6
C6
C6
C6
ENDCHAR
STARTCHAR 0149
ENCODING 329
SWIDTH 589 0
DWIDTH 9 0
BBX 9 12 0 0
BITMAP
E000
E000
C000
FF00
BF80
3980
3980
3980
3980
3980
3980
3980
ENDCHAR
STARTCHAR 014A
ENCODING 330
SWIDTH 589 0
DWIDTH 9 0
BBX 7 15 1 -3
BITMAP
DC
FE
C6
C6
C6
C6
C6
C6
C6
C6
C6
C6
06
0E
0C
ENDCHAR
STARTCHAR 014B
ENCODING 331
SWIDTH 589 0
DWIDTH 9 0
BBX 7 12 1 -3
BITMAP
DC
FE
E6
C6
C6
C6
C6
C6
C6
06
1E
1C
ENDCHAR
STARTCHAR 014C
ENCODING 332
SWIDTH 589 0
DWIDTH 9 0
BBX 8 15 1 0
BITMAP
7C
7C
00
3C
7E
E6
C6
C6
C7
C7
C6
C6
E6
7E
3C
ENDCHAR
STARTCHAR 014D
ENCODING 333
SWIDTH 589 0
DWIDTH 9 0
BBX 7 12 1 0
BITMAP
7C
7C
00
3C
7E
C6
C6
C6
C6
C6
7E
3C
ENDCHAR
STARTCHAR 014E
ENCODING 334
SWIDTH 589 0
DWIDTH 9 0
BBX 8 14 1 0
BITMAP
7C
00
3C
7E
E6
C6
C6
C7
C7
C6
C6
E6
7E
3C
ENDCHAR
STARTCHAR 014F
ENCODING 335
SWIDTH 589 0
DWIDTH 9 0
BBX 7 12 1 0
BITMAP
7C
00
00
3C
7E
C6
C6
C6
C6
C6
7E
3C
ENDCHAR
STARTCHAR 0150
ENCODING 336
SWIDTH 589 0
DWIDTH 9 0
BBX 8 14 1 0
BITMAP
3E
6C
3C
7E
E6
C6
C6
C7
C7
C6
C6
E6
7E
3C
ENDCHAR
STARTCHAR 0151
ENCODING 337
SWIDTH 589 0
DWIDTH 9 0
BBX 7 13 1 0
BITMAP
36
24
68
00
3C
7E
C6
C6
C6
C6
C6
7E
3C
ENDCHAR
STARTCHAR 0152
ENCODING 338
SWIDTH 589 0
DWIDTH 9 0
BBX 8 12 1 0
BITMAP
7F
FF
CC
CC
CC
CF
CF
CC
CC
CC
FF
7F
ENDCHAR
STARTCHAR 0153
ENCODING 339
SWIDTH 589 0
DWIDTH 9 0
BBX 9 9 0 0
BITMAP
7700
7F80
CD80
CF80
CF80
CC00
CC80
7F80
7780
ENDCHAR
STARTCHAR 0154
ENCODING 340
SWIDTH 589 0
DWIDTH 9 0
BBX 8 14 1 0
BITMAP
1C
20
FC
FE
C6
C6
C6
FC
FC
CC
CE
C6
C7
C3
ENDCHAR
STARTCHAR 0155
ENCODING 341
SWIDTH 589 0
DWIDTH 9 0
BBX 7 13 2 0
BITMAP
0E
18
30
00
DE
FE
E2
C0
C0
C0
C0
C0
C0
ENDCHAR
STARTCHAR 0156
ENCODING 342
SWIDTH 589 0
DWIDTH 9 0
BBX 8 16 1 -4
BITMAP
FC
FE
C6
C6
C6
C6
FC
FC
CC
C6
C6
C3
00
00
18
18
ENDCHAR
STARTCHAR 0157
ENCODING 343
SWIDTH 589 0
DWIDTH 9 0
BBX 7 13 2 -4
BITMAP
DE
FE
E2
C0
C0
C0
C0
C0
C0
00
00
E0
C0
ENDCHAR
STARTCHAR 0158
ENCODING 344
SWIDTH 589 0
DWIDTH 9 0
BBX 8 14 1 0
BITMAP
6C
10
FC
FE
C6
C6
C6
FC
FC
CC
CE
C6
C7
C3
ENDCHAR
STARTCHAR 0159
ENCODING 345
SWIDTH 589 0
DWIDTH 9 0
BBX 7 13 2 0
BITMAP
4C
28
38
00
DE
FE
E2
C0
C0
C0
C0
C0
C0
ENDCHAR
STARTCHAR 015A
ENCODING 346
SWIDTH 589 0
DWIDTH 9 0
BBX 7 14 1 0
BITMAP
0C
10
7C
FE
C2
C0
E0
7C
3E
0E
06
86
FE
7C
ENDCHAR
STARTCHAR 015B
ENCODING 347
SWIDTH 589 0
DWIDTH 9 0
BBX 7 14 1 0
BITMAP
06
0C
18
30
00
7C
FC
C2
E0
7C
0E
86
FE
7C
ENDCHAR
STARTCHAR 015C
ENCODING 348
SWIDTH 589 0
DWIDTH 9 0
BBX 7 14 1 0
BITMAP
38
44
7C
FE
C2
C0
E0
7C
3E
0E
06
86
FE
7C
ENDCHAR
STARTCHAR 015D
ENCODING 349
SWIDTH 589 0
DWIDTH 9 0
BBX 7 12 1 0
BITMAP
38
6C
00
7C
FC
C2
E0
7C
0E
86
FE
7C
ENDCHAR
STARTCHAR 015E
ENCODING 350
SWIDTH 589 0
DWIDTH 9 0
BBX 7 15 1 -3
BITMAP
7C
FE
C2
C0
E0
7C
3E
0E
06
86
FE
7C
08
08
38
ENDCHAR
STARTCHAR 015F
ENCODING 351
SWIDTH 589 0
DWIDTH 9 0
BBX 7 12 1 -3
BITMAP
7C
FC
C2
E0
7C
0E
86
FE
7C
08
08
38
ENDCHAR
STARTCHAR 0160
ENCODING 352
SWIDTH 589 0
DWIDTH 9 0
BBX 7 14 1 0
BITMAP
6C
38
7C
FE
C2
C0
E0
7C
3E
0E
06
86
FE
7C
ENDCHAR
STARTCHAR 0161
ENCODING 353
SWIDTH 589 0
DWIDTH 9 0
BBX 7 14 1 0
BITMAP
44
6C
38
18
00
7C
7C
C0
F0
7C
0E
86
FE
7C
ENDCHAR
STARTCHAR 0162
ENCODING 354
SWIDTH 589 0
DWIDTH 9 0
BBX 8 15 1 -3
BITMAP
FF
FF
38
38
38
38
38
38
38
38
38
38
08
08
38
ENDCHAR
STARTCHAR 0163
ENCODING 355
SWIDTH 589 0
DWIDTH 9 0
BBX 7 15 1 -3
BITMAP
30
30
30
FE
FE
30
30
30
30
30
3E
1E
04
04
1C
ENDCHAR
STARTCHAR 0164
ENCODING 356
SWIDTH 589 0
DWIDTH 9 0
BBX 8 14 1 0
BITMAP
6C
10
FF
FF
38
38
38
38
38
38
38
38
38
38
ENDCHAR
STARTCHAR 0165
ENCODING 357
SWIDTH 589 0
DWIDTH 9 0
BBX 8 13 1 0
BITMAP
03
16
36
30
FE
FE
30
30
30
30
30
3E
1E
ENDCHAR
STARTCHAR 0166
ENCODING 358
SWIDTH 589 0
DWIDTH 9 0
BBX 8 12 1 0
BITMAP
FF
FF
38
38
38
38
7E
7E
38
38
38
38
ENDCHAR
STARTCHAR 0167
ENCODING 359
SWIDTH 589 0
DWIDTH 9 0
BBX 7 12 1 0
BITMAP
30
30
30
FE
FE
30
7C
7C
30
30
3E
1E
ENDCHAR
STARTCHAR 0168
ENCODING 360
SWIDTH 589 0
DWIDTH 9 0
BBX 7 14 1 0
BITMAP
7C
00
C6
C6
C6
C6
C6
C6
C6
C6
C6
C6
FE
7C
ENDCHAR
STARTCHAR 0169
ENCODING 361
SWIDTH 589 0
DWIDTH 9 0
BBX 7 12 1 0
BITMAP
74
4C
00
C6
C6
C6
C6
C6
C6
EE
FE
76
ENDCHAR
STARTCHAR 016A
ENCODING 362
SWIDTH 589 0
DWIDTH 9 0
BBX 7 15 1 0
BITMAP
7C
7C
00
C6
C6
C6
C6
C6
C6
C6
C6
C6
C6
FE
7C
ENDCHAR
STARTCHAR 016B
ENCODING 363
SWIDTH 589 0
DWIDTH 9 0
BBX 7 12 1 0
BITMAP
7C
7C
00
C6
C6
C6
C6
C6
C6
EE
FE
76
ENDCHAR
STARTCHAR 016C
ENCODING 364
SWIDTH 589 0
DWIDTH 9 0
BBX 7 14 1 0
BITMAP
7C
00
C6
C6
C6
C6
C6
C6
C6
C6
C6
C6
FE
7C
ENDCHAR
STARTCHAR 016D
ENCODING 365
SWIDTH 589 0
DWIDTH 9 0
BBX 7 12 1 0
BITMAP
7C
00
00
C6
C6
C6
C6
C6
C6
EE
FE
76
ENDCHAR
STARTCHAR 016E
ENCODING 366
SWIDTH 589 0
DWIDTH 9 0
BBX 7 14 1 0
BITMAP
38
3C
FE
DE
C6
C6
C6
C6
C6
C6
C6
C6
FE
7C
ENDCHAR
STARTCHAR 016F
ENCODING 367
SWIDTH 589 0
DWIDTH 9 0
BBX 7 14 1 0
BITMAP
38
2C
6C
38
00
C6
C6
C6
C6
C6
C6
EE
FE
76
ENDCHAR
STARTCHAR 0170
ENCODING 368
SWIDTH 589 0
DWIDTH 9 0
BBX 7 14 1 0
BITMAP
3E
6C
C6
C6
C6
C6
C6
C6
C6
C6
C6
C6
FE
7C
ENDCHAR
STARTCHAR 0171
ENCODING 369
SWIDTH 589 0
DWIDTH 9 0
BBX 7 13 1 0
BITMAP
36
24
68
00
C6
C6
C6
C6
C6
C6
EE
FE
76
ENDCHAR
STARTCHAR 0172
ENCODING 370
SWIDTH 589 0
DWIDTH 9 0
BBX 7 15 1 -3
BITMAP
C6
C6
C6
C6
C6
C6
C6
C6
C6
C6
FE
7C
10
20
18
ENDCHAR
STARTCHAR 0173
ENCODING 371
SWIDTH 589 0
DWIDTH 9 0
BBX 8 12 1 -3
BITMAP
C6
C6
C6
C6
C6
C6
C6
FE
76
06
04
07
ENDCHAR
STARTCHAR 0174
ENCODING 372
SWIDTH 589 0
DWIDTH 9 0
BBX 9 14 0 0
BITMAP
1C00
2200
C180
C180
C180
CD80
5D80
5D80
7580
7500
7700
7700
7300
7300
ENDCHAR
STARTCHAR 0175
ENCODING 373
SWIDTH 589 0
DWIDTH 9 0
BBX 9 13 0 0
BITMAP
1C00
1400
3200
0000
C180
C180
CD80
5D80
5D00
7500
7700
7700
7700
ENDCHAR
STARTCHAR 0176
ENCODING 374
SWIDTH 589 0
DWIDTH 9 0
BBX 9 14 0 0
BITMAP
1C00
2200
E180
6300
7300
3600
3600
1E00
1C00
1C00
1C00
1C00
1C00
1C00
ENDCHAR
STARTCHAR 0177
ENCODING 375
SWIDTH 589 0
DWIDTH 9 0
BBX 8 16 1 -3
BITMAP
38
2C
64
00
C7
C6
E6
6E
6C
3C
3C
38
18
30
F0
E0
ENDCHAR
STARTCHAR 0178
ENCODING 376
SWIDTH 589 0
DWIDTH 9 0
BBX 9 14 0 0
BITMAP
3600
3600
E180
6300
7300
3600
3600
1E00
1C00
1C00
1C00
1C00
1C00
1C00
ENDCHAR
STARTCHAR 0179
ENCODING 377
SWIDTH 589 0
DWIDTH 9 0
BBX 8 14 1 0
BITMAP
0C
10
FF
FF
0E
0C
1C
18
38
30
60
E0
FF
FF
ENDCHAR
STARTCHAR 017A
ENCODING 378
SWIDTH 589 0
DWIDTH 9 0
BBX 7 13 1 0
BITMAP
0E
08
30
00
FE
FE
0E
1C
38
30
60
FE
FE
ENDCHAR
STARTCHAR 017B
ENCODING 379
SWIDTH 589 0
DWIDTH 9 0
BBX 8 14 1 0
BITMAP
18
18
FF
FF
0E
0C
1C
18
38
30
60
E0
FF
FF
ENDCHAR
STARTCHAR 017C
ENCODING 380
SWIDTH 589 0
DWIDTH 9 0
BBX 7 12 1 0
BITMAP
18
18
00
FE
FE
0E
1C
38
30
60
FE
FE
ENDCHAR
STARTCHAR 017D
ENCODING 381
SWIDTH 589 0
DWIDTH 9 0
BBX 8 14 1 0
BITMAP
6C
10
FF
FF
0E
0C
1C
18
38
30
60
E0
FF
FF
ENDCHAR
STARTCHAR 017E
ENCODING 382
SWIDTH 589 0
DWIDTH 9 0
BBX 7 13 1 0
BITMAP
64
28
38
00
FE
FE
0E
1C
38
30
60
FE
FE
ENDCHAR
STARTCHAR 017F
ENCODING 383
SWIDTH 589 0
DWIDTH 9 0
BBX 7 14 1 -2
BITMAP
1E
1E
38
F8
F8
38
38
38
38
38
38
38
38
38
ENDCHAR
STARTCHAR 0192
ENCODING 402
SWIDTH 589 0
DWIDTH 9 0
BBX 9 15 0 -3
BITMAP
0780
0F80
0C00
0C00
0C00
3F00
3F00
1800
1800
1800
1800
1800
1800
F000
E000
ENDCHAR
STARTCHAR 01A0
ENCODING 416
SWIDTH 589 0
DWIDTH 9 0
BBX 9 12 0 0
BITMAP
3C80
7E80
6780
E700
C300
C300
C300
C300
E700
6600
7E00
3C00
ENDCHAR
STARTCHAR 01A1
ENCODING 417
SWIDTH 589 0
DWIDTH 9 0
BBX 9 9 0 0
BITMAP
3C80
7E80
E780
C300
C300
C300
E600
7E00
3C00
ENDCHAR
STARTCHAR 01A4
ENCODING 420
SWIDTH 589 0
DWIDTH 9 0
BBX 9 12 0 0
BITMAP
7E00
FF80
B180
B180
3180
3380
3F00
3E00
3000
3000
3000
3000
ENDCHAR
STARTCHAR 01AF
ENCODING 431
SWIDTH 589 0
DWIDTH 9 0
BBX 9 12 0 0
BITMAP
C780
C780
C780
C700
C700
C700
C700
C700
C700
E600
7E00
3C00
ENDCHAR
STARTCHAR 01B0
ENCODING 432
SWIDTH 589 0
DWIDTH 9 0
BBX 9 9 0 0
BITMAP
C680
C680
C780
C600
C600
C600
CE00
FE00
7600
ENDCHAR
STARTCHAR 01E6
ENCODING 486
SWIDTH 589 0
DWIDTH 9 0
BBX 7 14 1 0
BITMAP
36
1C
3E
7E
E2
C0
C0
CE
CE
C6
C6
66
7E
3E
ENDCHAR
STARTCHAR 01E7
ENCODING 487
SWIDTH 589 0
DWIDTH 9 0
BBX 7 17 1 -3
BITMAP
44
6C
38
10
00
76
FE
C6
C6
C6
C6
C6
FE
76
06
7E
7C
ENDCHAR
STARTCHAR 01FE
ENCODING 510
SWIDTH 589 0
DWIDTH 9 0
BBX 9 14 0 0
BITMAP
0600
0800
1F80
3F00
7300
6700
6700
6F80
7B80
7300
7300
7300
7E00
DC00
ENDCHAR
STARTCHAR 01FF
ENCODING 511
SWIDTH 589 0
DWIDTH 9 0
BBX 9 15 0 -1
BITMAP
0300
0600
0C00
0800
0100
1F80
3F00
6700
6700
6B00
7B00
7300
7F00
DE00
4000
ENDCHAR
STARTCHAR 0218
ENCODING 536
SWIDTH 589 0
DWIDTH 9 0
BBX 7 16 1 -4
BITMAP
7C
FE
C2
C0
E0
7C
3E
0E
06
86
FE
7C
00
00
38
30
ENDCHAR
STARTCHAR 0219
ENCODING 537
SWIDTH 589 0
DWIDTH 9 0
BBX 7 13 1 -4
BITMAP
7C
FC
C2
E0
7C
0E
86
FE
7C
00
00
38
30
ENDCHAR
STARTCHAR 021A
ENCODING 538
SWIDTH 589 0
DWIDTH 9 0
BBX 8 15 1 -3
BITMAP
FF
FF
38
38
38
38
38
38
38
38
38
38
08
08
38
ENDCHAR
STARTCHAR 021B
ENCODING 539
SWIDTH 589 0
DWIDTH 9 0
BBX 7 15 1 -3
BITMAP
30
30
30
FE
FE
30
30
30
30
30
3E
1E
04
04
1C
ENDCHAR
STARTCHAR 02B9
ENCODING 697
SWIDTH 589 0
DWIDTH 9 0
BBX 2 4 4 9
BITMAP
C0
C0
80
80
ENDCHAR
STARTCHAR 02BB
ENCODING 699
SWIDTH 589 0
DWIDTH 9 0
BBX 3 5 3 7
BITMAP
60
60
E0
E0
E0
ENDCHAR
STARTCHAR 02BC
ENCODING 700
SWIDTH 589 0
DWIDTH 9 0
BBX 3 5 3 7
BITMAP
60
60
60
60
C0
ENDCHAR
STARTCHAR 02BD
ENCODING 701
SWIDTH 589 0
DWIDTH 9 0
BBX 2 4 4 10
BITMAP
C0
C0
80
C0
ENDCHAR
STARTCHAR 02BE
ENCODING 702
SWIDTH 589 0
DWIDTH 9 0
BBX 2 4 4 8
BITMAP
80
C0
C0
80
ENDCHAR
STARTCHAR 02BF
ENCODING 703
SWIDTH 589 0
DWIDTH 9 0
BBX 2 4 4 8
BITMAP
C0
80
80
C0
ENDCHAR
STARTCHAR 02C0
ENCODING 704
SWIDTH 589 0
DWIDTH 9 0
BBX 5 7 2 5
BITMAP
F0
F0
18
18
70
60
60
ENDCHAR
STARTCHAR 02C1
ENCODING 705
SWIDTH 589 0
DWIDTH 9 0
BBX 5 7 2 5
BITMAP
38
78
C0
40
70
30
30
ENDCHAR
STARTCHAR 02C6
ENCODING 710
SWIDTH 589 0
DWIDTH 9 0
BBX 5 3 2 10
BITMAP
70
50
C8
ENDCHAR
STARTCHAR 02C7
ENCODING 711
SWIDTH 589 0
DWIDTH 9 0
BBX 5 3 2 10
BITMAP
C8
50
70
ENDCHAR
STARTCHAR 02C8
ENCODING 712
SWIDTH 589 0
DWIDTH 9 0
BBX 1 4 4 8
BITMAP
80
80
80
80
ENDCHAR
STARTCHAR 02C9
ENCODING 713
SWIDTH 589 0
DWIDTH 9 0
BBX 5 2 2 11
BITMAP
F8
F8
ENDCHAR
STARTCHAR 02CC
ENCODING 716
SWIDTH 589 0
DWIDTH 9 0
BBX 1 4 4 -1
BITMAP
80
80
80
80
ENDCHAR
STARTCHAR 02CD
ENCODING 717
SWIDTH 589 0
DWIDTH 9 0
BBX 5 2 2 -3
BITMAP
F8
F8
ENDCHAR
STARTCHAR 02CE
ENCODING 718
SWIDTH 589 0
DWIDTH 9 0
BBX 4 3 2 -5
BITMAP
E0
20
10
ENDCHAR
STARTCHAR 02CF
ENCODING 719
SWIDTH 589 0
DWIDTH 9 0
BBX 4 3 3 -5
BITMAP
30
60
C0
ENDCHAR
STARTCHAR 02D0
ENCODING 720
SWIDTH 589 0
DWIDTH 9 0
BBX 3 9 3 0
BITMAP
E0
40
40
00
00
00
40
40
E0
ENDCHAR
STARTCHAR 02D1
ENCODING 721
SWIDTH 589 0
DWIDTH 9 0
BBX 3 3 3 6
BITMAP
E0
40
40
ENDCHAR
STARTCHAR 02D8
ENCODING 728
SWIDTH 589 0
DWIDTH 9 0
BBX 5 3 2 10
BITMAP
88
C8
70
ENDCHAR
STARTCHAR 02D9
ENCODING 729
SWIDTH 589 0
DWIDTH 9 0
BBX 2 2 4 10
BITMAP
C0
C0
ENDCHAR
STARTCHAR 02DA
ENCODING 730
SWIDTH 589 0
DWIDTH 9 0
BBX 5 4 2 10
BITMAP
70
D8
58
70
ENDCHAR
STARTCHAR 02DB
ENCODING 731
SWIDTH 589 0
DWIDTH 9 0
BBX 4 3 3 -3
BITMAP
40
C0
70
ENDCHAR
STARTCHAR 02DC
ENCODING 732
SWIDTH 589 0
DWIDTH 9 0
BBX 5 2 2 10
BITMAP
E8
B8
ENDCHAR
STARTCHAR 02DD
ENCODING 733
SWIDTH 589 0
DWIDTH 9 0
BBX 6 3 2 10
BITMAP
6C
48
D0
ENDCHAR
STARTCHAR 0300
ENCODING 768
SWIDTH 0 0
DWIDTH 0 0
BBX 5 3 -8 10
BITMAP
E0
20
18
ENDCHAR
STARTCHAR 0301
ENCODING 769
SWIDTH 0 0
DWIDTH 0 0
BBX 5 3 -6 10
BITMAP
38
60
C0
ENDCHAR
STARTCHAR 0302
ENCODING 770
SWIDTH 0 0
DWIDTH 0 0
BBX 5 3 -7 10
BITMAP
70
50
98
ENDCHAR
STARTCHAR 0303
ENCODING 771
SWIDTH 0 0
DWIDTH 0 0
BBX 5 2 -7 10
BITMAP
C8
B8
ENDCHAR
STARTCHAR 0304
ENCODING 772
SWIDTH 0 0
DWIDTH 0 0
BBX 5 2 -7 11
BITMAP
F8
F8
ENDCHAR
STARTCHAR 0305
ENCODING 773
SWIDTH 0 0
DWIDTH 0 0
BBX 9 2 -9 11
BITMAP
FF80
FF80
ENDCHAR
STARTCHAR 0306
ENCODING 774
SWIDTH 0 0
DWIDTH 0 0
BBX 5 3 -7 10
BITMAP
88
98
70
ENDCHAR
STARTCHAR 0307
ENCODING 775
SWIDTH 0 0
DWIDTH 0 0
BBX 2 2 -6 10
BITMAP
C0
C0
ENDCHAR
STARTCHAR 0308
ENCODING 776
SWIDTH 0 0
DWIDTH 0 0
BBX 5 2 -7 10
BITMAP
D8
D8
ENDCHAR
STARTCHAR 0309
ENCODING 777
SWIDTH 0 0
DWIDTH 0 0
BBX 3 3 -6 11
BITMAP
E0
20
60
ENDCHAR
STARTCHAR 030A
ENCODING 778
SWIDTH 0 0
DWIDTH 0 0
BBX 5 4 -7 10
BITMAP
70
D8
D0
70
ENDCHAR
STARTCHAR 030B
ENCODING 779
SWIDTH 0 0
DWIDTH 0 0
BBX 6 3 -7 10
BITMAP
6C
58
D0
ENDCHAR
STARTCHAR 030C
ENCODING 780
SWIDTH 0 0
DWIDTH 0 0
BBX 5 3 -7 10
BITMAP
98
50
70
ENDCHAR
STARTCHAR 030D
ENCODING 781
SWIDTH 0 0
DWIDTH 0 0
BBX 1 3 -5 10
BITMAP
80
80
80
ENDCHAR
STARTCHAR 030E
ENCODING 782
SWIDTH 0 0
DWIDTH 0 0
BBX 5 3 -7 10
BITMAP
88
88
88
ENDCHAR
STARTCHAR 030F
ENCODING 783
SWIDTH 0 0
DWIDTH 0 0
BBX 6 3 -8 10
BITMAP
D8
48
2C
ENDCHAR
STARTCHAR 0310
ENCODING 784
SWIDTH 0 0
DWIDTH 0 0
BBX 5 4 -7 10
BITMAP
60
60
88
70
ENDCHAR
STARTCHAR 0311
ENCODING 785
SWIDTH 0 0
DWIDTH 0 0
BBX 5 2 -7 10
BITMAP
70
88
ENDCHAR
STARTCHAR 0312
ENCODING 786
SWIDTH 0 0
DWIDTH 0 0
BBX 3 2 -6 7
BITMAP
60
C0
ENDCHAR
STARTCHAR 0313
ENCODING 787
SWIDTH 0 0
DWIDTH 0 0
BBX 2 4 -6 10
BITMAP
C0
C0
40
C0
ENDCHAR
STARTCHAR 0314
ENCODING 788
SWIDTH 0 0
DWIDTH 0 0
BBX 2 4 -6 10
BITMAP
C0
C0
C0
40
ENDCHAR
STARTCHAR 0315
ENCODING 789
SWIDTH 0 0
DWIDTH 0 0
BBX 3 3 -6 10
BITMAP
60
40
C0
ENDCHAR
STARTCHAR 0316
ENCODING 790
SWIDTH 0 0
DWIDTH 0 0
BBX 5 3 -7 -5
BITMAP
E0
20
18
ENDCHAR
STARTCHAR 0317
ENCODING 791
SWIDTH 0 0
DWIDTH 0 0
BBX 5 3 -7 -5
BITMAP
38
60
C0
ENDCHAR
STARTCHAR 0318
ENCODING 792
SWIDTH 0 0
DWIDTH 0 0
BBX 2 4 -6 -6
BITMAP
40
C0
C0
40
ENDCHAR
STARTCHAR 0319
ENCODING 793
SWIDTH 0 0
DWIDTH 0 0
BBX 3 4 -6 -6
BITMAP
C0
E0
E0
C0
ENDCHAR
STARTCHAR 031A
ENCODING 794
SWIDTH 0 0
DWIDTH 0 0
BBX 4 5 -7 10
BITMAP
F0
F0
10
10
10
ENDCHAR
STARTCHAR 031B
ENCODING 795
SWIDTH 0 0
DWIDTH 0 0
BBX 3 3 -6 6
BITMAP
20
A0
E0
ENDCHAR
STARTCHAR 031C
ENCODING 796
SWIDTH 0 0
DWIDTH 0 0
BBX 1 3 -5 -4
BITMAP
80
80
80
ENDCHAR
STARTCHAR 031D
ENCODING 797
SWIDTH 0 0
DWIDTH 0 0
BBX 5 3 -7 -5
BITMAP
20
20
F8
ENDCHAR
STARTCHAR 031E
ENCODING 798
SWIDTH 0 0
DWIDTH 0 0
BBX 4 3 -7 -6
BITMAP
F0
F0
20
ENDCHAR
STARTCHAR 031F
ENCODING 799
SWIDTH 0 0
DWIDTH 0 0
BBX 5 4 -7 -6
BITMAP
20
F8
F8
20
ENDCHAR
STARTCHAR 0320
ENCODING 800
SWIDTH 0 0
DWIDTH 0 0
BBX 4 2 -7 -3
BITMAP
F0
F0
ENDCHAR
STARTCHAR 0321
ENCODING 801
SWIDTH 0 0
DWIDTH 0 0
BBX 4 5 -5 -3
BITMAP
30
30
70
E0
E0
ENDCHAR
STARTCHAR 0322
ENCODING 802
SWIDTH 0 0
DWIDTH 0 0
BBX 4 5 -8 -3
BITMAP
C0
C0
C0
F0
70
ENDCHAR
STARTCHAR 0323
ENCODING 803
SWIDTH 0 0
DWIDTH 0 0
BBX 2 2 -6 -4
BITMAP
C0
C0
ENDCHAR
STARTCHAR 0324
ENCODING 804
SWIDTH 0 0
DWIDTH 0 0
BBX 5 2 -7 -4
BITMAP
D8
D8
ENDCHAR
STARTCHAR 0325
ENCODING 805
SWIDTH 0 0
DWIDTH 0 0
BBX 3 3 -6 -4
BITMAP
E0
A0
E0
ENDCHAR
STARTCHAR 0326
ENCODING 806
SWIDTH 0 0
DWIDTH 0 0
BBX 2 2 -6 -4
BITMAP
C0
80
ENDCHAR
STARTCHAR 0327
ENCODING 807
SWIDTH 0 0
DWIDTH 0 0
BBX 3 3 -6 -3
BITMAP
40
20
E0
ENDCHAR
STARTCHAR 0328
ENCODING 808
SWIDTH 0 0
DWIDTH 0 0
BBX 3 3 -6 -3
BITMAP
C0
80
E0
ENDCHAR
STARTCHAR 0329
ENCODING 809
SWIDTH 0 0
DWIDTH 0 0
BBX 1 3 -5 -5
BITMAP
80
80
80
ENDCHAR
STARTCHAR 032A
ENCODING 810
SWIDTH 0 0
DWIDTH 0 0
BBX 5 3 -7 -4
BITMAP
F8
F8
98
ENDCHAR
STARTCHAR 032B
ENCODING 811
SWIDTH 0 0
DWIDTH 0 0
BBX 6 2 -8 -4
BITMAP
D4
7C
ENDCHAR
STARTCHAR 032C
ENCODING 812
SWIDTH 0 0
DWIDTH 0 0
BBX 5 3 -7 -4
BITMAP
98
50
70
ENDCHAR
STARTCHAR 032D
ENCODING 813
SWIDTH 0 0
DWIDTH 0 0
BBX 5 3 -7 -4
BITMAP
70
50
98
ENDCHAR
STARTCHAR 032E
ENCODING 814
SWIDTH 0 0
DWIDTH 0 0
BBX 5 3 -7 -4
BITMAP
88
98
70
ENDCHAR
STARTCHAR 032F
ENCODING 815
SWIDTH 0 0
DWIDTH 0 0
BBX 5 2 -7 -4
BITMAP
70
88
ENDCHAR
STARTCHAR 0330
ENCODING 816
SWIDTH 0 0
DWIDTH 0 0
BBX 5 2 -7 -4
BITMAP
C8
B8
ENDCHAR
STARTCHAR 0331
ENCODING 817
SWIDTH 0 0
DWIDTH 0 0
BBX 5 2 -7 -3
BITMAP
F8
F8
ENDCHAR
STARTCHAR 0332
ENCODING 818
SWIDTH 0 0
DWIDTH 0 0
BBX 9 2 -9 -4
BITMAP
FF80
FF80
ENDCHAR
STARTCHAR 0333
ENCODING 819
SWIDTH 0 0
DWIDTH 0 0
BBX 9 4 -9 -4
BITMAP
FF80
FF80
FF80
FF80
ENDCHAR
STARTCHAR 0334
ENCODING 820
SWIDTH 0 0
DWIDTH 0 0
BBX 8 3 -9 4
BITMAP
71
FF
8F
ENDCHAR
STARTCHAR 0335
ENCODING 821
SWIDTH 0 0
DWIDTH 0 0
BBX 6 2 -8 3
BITMAP
FC
FC
ENDCHAR
STARTCHAR 0336
ENCODING 822
SWIDTH 0 0
DWIDTH 0 0
BBX 9 2 -9 3
BITMAP
FF80
FF80
ENDCHAR
STARTCHAR 0337
ENCODING 823
SWIDTH 0 0
DWIDTH 0 0
BBX 9 10 -9 -1
BITMAP
0180
0300
0600
0400
0C00
1800
3000
6000
C000
8000
ENDCHAR
STARTCHAR 0338
ENCODING 824
SWIDTH 0 0
DWIDTH 0 0
BBX 9 12 -9 0
BITMAP
0100
0180
0300
0600
0600
0C00
1800
1000
3000
6000
4000
C000
ENDCHAR
STARTCHAR 0339
ENCODING 825
SWIDTH 0 0
DWIDTH 0 0
BBX 1 3 -5 -4
BITMAP
80
80
80
ENDCHAR
STARTCHAR 033A
ENCODING 826
SWIDTH 0 0
DWIDTH 0 0
BBX 5 3 -7 -4
BITMAP
98
98
F8
ENDCHAR
STARTCHAR 033B
ENCODING 827
SWIDTH 0 0
DWIDTH 0 0
BBX 5 5 -7 -6
BITMAP
F8
F8
D8
F8
F8
ENDCHAR
STARTCHAR 033C
ENCODING 828
SWIDTH 0 0
DWIDTH 0 0
BBX 6 2 -8 -4
BITMAP
7C
D4
ENDCHAR
STARTCHAR 033D
ENCODING 829
SWIDTH 0 0
DWIDTH 0 0
BBX 4 4 -7 9
BITMAP
50
F0
70
D0
ENDCHAR
STARTCHAR 033E
ENCODING 830
SWIDTH 0 0
DWIDTH 0 0
BBX 2 4 -6 10
BITMAP
40
C0
40
C0
ENDCHAR
STARTCHAR 033F
ENCODING 831
SWIDTH 0 0
DWIDTH 0 0
BBX 9 2 -9 8
BITMAP
FF80
FF80
ENDCHAR
STARTCHAR 0358
ENCODING 856
SWIDTH 0 0
DWIDTH 0 0
BBX 2 2 -2 10
BITMAP
C0
C0
ENDCHAR
STARTCHAR 0361
ENCODING 865
SWIDTH 0 0
DWIDTH 0 0
BBX 13 2 -11 12
BITMAP
3FE0
C018
ENDCHAR
STARTCHAR 0384
ENCODING 900
SWIDTH 589 0
DWIDTH 9 0
BBX 4 3 4 10
BITMAP
70
40
80
ENDCHAR
STARTCHAR 0385
ENCODING 901
SWIDTH 589 0
DWIDTH 9 0
BBX 7 5 1 10
BITMAP
06
0C
18
E6
C6
ENDCHAR
STARTCHAR 0386
ENCODING 902
SWIDTH 589 0
DWIDTH 9 0
BBX 10 13 -1 0
BITMAP
3800
6E00
CE00
0F00
1B00
1B00
1B00
1980
3F80
3F80
3180
31C0
70C0
ENDCHAR
STARTCHAR 0388
ENCODING 904
SWIDTH 589 0
DWIDTH 9 0
BBX 11 13 -3 0
BITMAP
3800
6FE0
CFE0
0C00
0C00
0C00
0FE0
0FE0
0C00
0C00
0C00
0FE0
0FE0
ENDCHAR
STARTCHAR 0389
ENCODING 905
SWIDTH 589 0
DWIDTH 9 0
BBX 11 13 -3 0
BITMAP
3000
6C60
CC60
0C60
0C60
0C60
0FE0
0FE0
0C60
0C60
0C60
0C60
0C60
ENDCHAR
STARTCHAR 038A
ENCODING 906
SWIDTH 589 0
DWIDTH 9 0
BBX 10 13 -2 0
BITMAP
7000
DFC0
9FC0
0700
0700
0700
0700
0700
0700
0700
0700
1FC0
1FC0
ENDCHAR
STARTCHAR 038C
ENCODING 908
SWIDTH 589 0
DWIDTH 9 0
BBX 10 13 -1 0
BITMAP
7000
6F00
DF80
3980
3180
3180
31C0
31C0
3180
3180
3980
1F80
0F00
ENDCHAR
STARTCHAR 038E
ENCODING 910
SWIDTH 589 0
DWIDTH 9 0
BBX 13 13 -4 0
BITMAP
3000
6E10
CF78
0378
0148
01C0
01C0
01C0
01C0
01C0
01C0
01C0
01C0
ENDCHAR
STARTCHAR 038F
ENCODING 911
SWIDTH 589 0
DWIDTH 9 0
BBX 10 13 -1 0
BITMAP
3000
6E00
9F00
3980
3180
3180
3180
3180
3180
3180
1B00
3BC0
3BC0
ENDCHAR
STARTCHAR 0390
ENCODING 912
SWIDTH 589 0
DWIDTH 9 0
BBX 7 14 1 0
BITMAP
0E
18
E6
C6
00
78
78
18
18
18
18
18
1C
1C
ENDCHAR
STARTCHAR 0391
ENCODING 913
SWIDTH 589 0
DWIDTH 9 0
BBX 9 12 0 0
BITMAP
1C00
1C00
1E00
3600
3600
3600
3300
7F00
7F00
6300
6380
E180
ENDCHAR
STARTCHAR 0392
ENCODING 914
SWIDTH 589 0
DWIDTH 9 0
BBX 8 12 1 0
BITMAP
FC
FE
C6
C6
C6
FC
FE
C6
C7
C7
FE
FC
ENDCHAR
STARTCHAR 0393
ENCODING 915
SWIDTH 589 0
DWIDTH 9 0
BBX 7 12 1 0
BITMAP
FE
FE
E0
E0
E0
E0
E0
E0
E0
E0
E0
E0
ENDCHAR
STARTCHAR 0394
ENCODING 916
SWIDTH 589 0
DWIDTH 9 0
BBX 9 12 0 0
BITMAP
1C00
1C00
1E00
3600
3600
3600
3300
6300
6300
6300
7F80
FF80
ENDCHAR
STARTCHAR 0395
ENCODING 917
SWIDTH 589 0
DWIDTH 9 0
BBX 7 12 1 0
BITMAP
FE
FE
C0
C0
C0
FE
FE
C0
C0
C0
FE
FE
ENDCHAR
STARTCHAR 0396
ENCODING 918
SWIDTH 589 0
DWIDTH 9 0
BBX 8 12 1 0
BITMAP
FF
FF
0E
0C
1C
18
38
30
60
E0
FF
FF
ENDCHAR
STARTCHAR 0397
ENCODING 919
SWIDTH 589 0
DWIDTH 9 0
BBX 7 12 1 0
BITMAP
C6
C6
C6
C6
C6
FE
FE
C6
C6
C6
C6
C6
ENDCHAR
STARTCHAR 0398
ENCODING 920
SWIDTH 589 0
DWIDTH 9 0
BBX 9 11 0 0
BITMAP
3E00
7F00
6380
C180
DD80
DD80
C180
C180
6380
7F00
3E00
ENDCHAR
STARTCHAR 0399
ENCODING 921
SWIDTH 589 0
DWIDTH 9 0
BBX 7 12 1 0
BITMAP
FE
FE
38
38
38
38
38
38
38
38
FE
FE
ENDCHAR
STARTCHAR 039A
ENCODING 922
SWIDTH 589 0
DWIDTH 9 0
BBX 8 12 1 0
BITMAP
C7
CE
CC
D8
F8
F8
F8
DC
CC
CE
C6
C7
ENDCHAR
STARTCHAR 039B
ENCODING 923
SWIDTH 589 0
DWIDTH 9 0
BBX 9 12 0 0
BITMAP
1C00
1C00
1E00
3600
3600
3600
3300
6300
6300
6300
6380
E180
ENDCHAR
STARTCHAR 039C
ENCODING 924
SWIDTH 589 0
DWIDTH 9 0
BBX 8 12 1 0
BITMAP
C7
E7
EF
EB
EB
FB
FB
DB
C3
C3
C3
C3
ENDCHAR
STARTCHAR 039D
ENCODING 925
SWIDTH 589 0
DWIDTH 9 0
BBX 7 12 1 0
BITMAP
C6
E6
E6
E6
F6
D6
DE
DE
CE
CE
CE
C6
ENDCHAR
STARTCHAR 039E
ENCODING 926
SWIDTH 589 0
DWIDTH 9 0
BBX 7 12 1 0
BITMAP
FE
FE
00
00
00
38
38
00
00
00
FE
FE
ENDCHAR
STARTCHAR 039F
ENCODING 927
SWIDTH 589 0
DWIDTH 9 0
BBX 8 12 1 0
BITMAP
3C
7E
E6
C6
C6
C7
C7
C6
C6
E6
7E
3C
ENDCHAR
STARTCHAR 03A0
ENCODING 928
SWIDTH 589 0
DWIDTH 9 0
BBX 7 12 1 0
BITMAP
FE
FE
C6
C6
C6
C6
C6
C6
C6
C6
C6
C6
ENDCHAR
STARTCHAR 03A1
ENCODING 929
SWIDTH 589 0
DWIDTH 9 0
BBX 8 12 1 0
BITMAP
FC
FE
C6
C7
C7
C6
FE
FC
C0
C0
C0
C0
ENDCHAR
STARTCHAR 03A3
ENCODING 931
SWIDTH 589 0
DWIDTH 9 0
BBX 8 12 1 0
BITMAP
FF
FF
E0
60
30
38
38
30
60
E0
FF
FF
ENDCHAR
STARTCHAR 03A4
ENCODING 932
SWIDTH 589 0
DWIDTH 9 0
BBX 8 12 1 0
BITMAP
FF
FF
38
38
38
38
38
38
38
38
38
38
ENDCHAR
STARTCHAR 03A5
ENCODING 933
SWIDTH 589 0
DWIDTH 9 0
BBX 9 12 0 0
BITMAP
E300
F780
3780
1C80
1C00
1C00
1C00
1C00
1C00
1C00
1C00
1C00
ENDCHAR
STARTCHAR 03A6
ENCODING 934
SWIDTH 589 0
DWIDTH 9 0
BBX 8 12 1 0
BITMAP
3C
3C
38
7E
FE
FA
FB
FE
FE
38
3C
3C
ENDCHAR
STARTCHAR 03A7
ENCODING 935
SWIDTH 589 0
DWIDTH 9 0
BBX 9 12 0 0
BITMAP
E380
6300
3700
3600
1E00
1C00
1C00
1E00
3600
3700
6300
E380
ENDCHAR
STARTCHAR 03A8
ENCODING 936
SWIDTH 589 0
DWIDTH 9 0
BBX 8 12 1 0
BITMAP
FF
FF
FF
FF
FF
FE
FE
7E
3C
38
3C
3C
ENDCHAR
STARTCHAR 03A9
ENCODING 937
SWIDTH 589 0
DWIDTH 9 0
BBX 8 12 1 0
BITMAP
38
7C
E6
C6
C6
C6
C6
C6
C6
6C
EF
EF
ENDCHAR
STARTCHAR 03AA
ENCODING 938
SWIDTH 589 0
DWIDTH 9 0
BBX 7 14 1 0
BITMAP
6C
6C
FE
FE
38
38
38
38
38
38
38
38
FE
FE
ENDCHAR
STARTCHAR 03AB
ENCODING 939
SWIDTH 589 0
DWIDTH 9 0
BBX 9 14 0 0
BITMAP
3600
3600
E300
F780
3780
1C80
1C00
1C00
1C00
1C00
1C00
1C00
1C00
1C00
ENDCHAR
STARTCHAR 03AC
ENCODING 940
SWIDTH 589 0
DWIDTH 9 0
BBX 9 13 0 0
BITMAP
0700
0400
0800
1000
3F80
7F00
6700
E700
C600
C600
6600
7F80
3F80
ENDCHAR
STARTCHAR 03AD
ENCODING 941
SWIDTH 589 0
DWIDTH 9 0
BBX 7 13 1 0
BITMAP
0E
18
30
00
7C
FC
C0
78
78
C0
C0
FE
7E
ENDCHAR
STARTCHAR 03AE
ENCODING 942
SWIDTH 589 0
DWIDTH 9 0
BBX 7 17 1 -3
BITMAP
06
0C
18
30
00
DC
FE
E6
C6
C6
C6
C6
C6
C6
06
06
06
ENDCHAR
STARTCHAR 03AF
ENCODING 943
SWIDTH 589 0
DWIDTH 9 0
BBX 6 13 2 0
BITMAP
1C
10
20
40
F0
F0
30
30
30
30
30
38
38
ENDCHAR
STARTCHAR 03B0
ENCODING 944
SWIDTH 589 0
DWIDTH 9 0
BBX 8 14 1 0
BITMAP
0E
18
E6
C6
00
EE
E6
67
67
67
67
66
7E
3C
ENDCHAR
STARTCHAR 03B1
ENCODING 945
SWIDTH 589 0
DWIDTH 9 0
BBX 9 9 0 0
BITMAP
3F80
7F00
6700
E700
C600
C600
6600
7F80
3F80
ENDCHAR
STARTCHAR 03B2
ENCODING 946
SWIDTH 589 0
DWIDTH 9 0
BBX 7 15 1 -3
BITMAP
78
FC
CE
C6
CE
DC
DE
C6
C6
E6
FE
FC
C0
C0
C0
ENDCHAR
STARTCHAR 03B3
ENCODING 947
SWIDTH 589 0
DWIDTH 9 0
BBX 8 12 1 -3
BITMAP
C7
C6
66
6E
6C
3C
3C
38
18
18
18
18
ENDCHAR
STARTCHAR 03B4
ENCODING 948
SWIDTH 589 0
DWIDTH 9 0
BBX 7 12 1 0
BITMAP
7C
FC
C0
70
7C
E6
C6
C6
C6
C6
7E
3C
ENDCHAR
STARTCHAR 03B5
ENCODING 949
SWIDTH 589 0
DWIDTH 9 0
BBX 7 9 1 0
BITMAP
7C
FC
C0
78
78
C0
C0
FE
7E
ENDCHAR
STARTCHAR 03B6
ENCODING 950
SWIDTH 589 0
DWIDTH 9 0
BBX 7 15 1 -3
BITMAP
FE
FE
1C
38
70
60
E0
C0
C0
E0
7C
3E
02
06
04
ENDCHAR
STARTCHAR 03B7
ENCODING 951
SWIDTH 589 0
DWIDTH 9 0
BBX 7 12 1 -3
BITMAP
DC
FE
E6
C6
C6
C6
C6
C6
C6
06
06
06
ENDCHAR
STARTCHAR 03B8
ENCODING 952
SWIDTH 589 0
DWIDTH 9 0
BBX 7 12 1 0
BITMAP
38
7C
E6
C6
C6
FE
FE
C6
C6
E6
7C
38
ENDCHAR
STARTCHAR 03B9
ENCODING 953
SWIDTH 589 0
DWIDTH 9 0
BBX 5 9 2 0
BITMAP
F0
F0
30
30
30
30
30
38
38
ENDCHAR
STARTCHAR 03BA
ENCODING 954
SWIDTH 589 0
DWIDTH 9 0
BBX 8 9 1 0
BITMAP
C7
CC
D8
F8
F8
EC
CC
C6
C7
ENDCHAR
STARTCHAR 03BB
ENCODING 955
SWIDTH 589 0
DWIDTH 9 0
BBX 8 12 1 0
BITMAP
E0
F0
38
18
38
3C
3C
7C
6C
66
C6
C7
ENDCHAR
STARTCHAR 03BC
ENCODING 956
SWIDTH 589 0
DWIDTH 9 0
BBX 8 12 1 -3
BITMAP
C6
C6
C6
C6
C6
C6
E6
FF
DB
C0
C0
C0
ENDCHAR
STARTCHAR 03BD
ENCODING 957
SWIDTH 589 0
DWIDTH 9 0
BBX 9 9 0 0
BITMAP
E700
6300
6300
7380
7300
3700
3E00
3E00
3C00
ENDCHAR
STARTCHAR 03BE
ENCODING 958
SWIDTH 589 0
DWIDTH 9 0
BBX 7 15 1 -3
BITMAP
FE
FE
60
60
60
3C
7C
E0
C0
E0
7C
3E
06
06
04
ENDCHAR
STARTCHAR 03BF
ENCODING 959
SWIDTH 589 0
DWIDTH 9 0
BBX 7 9 1 0
BITMAP
3C
7E
C6
C6
C6
C6
C6
7E
3C
ENDCHAR
STARTCHAR 03C0
ENCODING 960
SWIDTH 589 0
DWIDTH 9 0
BBX 9 9 0 0
BITMAP
FF80
FF80
6700
6700
6700
6700
6700
6300
6380
ENDCHAR
STARTCHAR 03C1
ENCODING 961
SWIDTH 589 0
DWIDTH 9 0
BBX 8 12 1 -3
BITMAP
3C
7E
E6
C6
C7
C6
E6
FE
DC
C0
C0
C0
ENDCHAR
STARTCHAR 03C2
ENCODING 962
SWIDTH 589 0
DWIDTH 9 0
BBX 7 12 1 -3
BITMAP
3E
7E
62
E0
C0
E0
E0
7C
3E
06
06
04
ENDCHAR
STARTCHAR 03C3
ENCODING 963
SWIDTH 589 0
DWIDTH 9 0
BBX 8 9 1 0
BITMAP
7F
FF
CE
C6
C6
C6
C6
FC
78
ENDCHAR
STARTCHAR 03C4
ENCODING 964
SWIDTH 589 0
DWIDTH 9 0
BBX 7 9 1 0
BITMAP
FE
FE
18
18
18
18
18
1C
1C
ENDCHAR
STARTCHAR 03C5
ENCODING 965
SWIDTH 589 0
DWIDTH 9 0
BBX 8 9 1 0
BITMAP
EE
E6
67
67
67
67
66
7E
3C
ENDCHAR
STARTCHAR 03C6
ENCODING 966
SWIDTH 589 0
DWIDTH 9 0
BBX 9 12 0 -3
BITMAP
2600
6F00
6F80
6D80
CD80
6D80
6F00
7F00
1E00
0C00
0C00
0C00
ENDCHAR
STARTCHAR 03C7
ENCODING 967
SWIDTH 589 0
DWIDTH 9 0
BBX 8 12 1 -3
BITMAP
C7
E6
6C
7C
38
38
38
38
7C
6C
E7
C7
ENDCHAR
STARTCHAR 03C8
ENCODING 968
SWIDTH 589 0
DWIDTH 9 0
BBX 8 12 1 -3
BITMAP
DB
DB
DB
DB
DB
DF
DE
FE
3C
18
18
18
ENDCHAR
STARTCHAR 03C9
ENCODING 969
SWIDTH 589 0
DWIDTH 9 0
BBX 9 9 0 0
BITMAP
6300
6300
6380
6180
ED80
6D80
7D80
7F00
3700
ENDCHAR
STARTCHAR 03CA
ENCODING 970
SWIDTH 589 0
DWIDTH 9 0
BBX 5 12 2 0
BITMAP
D8
D8
00
F0
F0
30
30
30
30
30
38
38
ENDCHAR
STARTCHAR 03CB
ENCODING 971
SWIDTH 589 0
DWIDTH 9 0
BBX 8 12 1 0
BITMAP
6C
6C
00
EE
E6
67
67
67
67
66
7E
3C
ENDCHAR
STARTCHAR 03CC
ENCODING 972
SWIDTH 589 0
DWIDTH 9 0
BBX 7 14 1 0
BITMAP
06
0C
18
30
00
3C
7E
C6
C6
C6
C6
C6
7E
3C
ENDCHAR
STARTCHAR 03CD
ENCODING 973
SWIDTH 589 0
DWIDTH 9 0
BBX 8 13 1 0
BITMAP
0E
08
10
20
EE
E6
67
67
67
67
66
7E
3C
ENDCHAR
STARTCHAR 03CE
ENCODING 974
SWIDTH 589 0
DWIDTH 9 0
BBX 9 13 0 0
BITMAP
0700
0400
0800
1000
6300
6300
6380
6180
ED80
6D80
7D80
7F00
3700
ENDCHAR
STARTCHAR 03F4
ENCODING 1012
SWIDTH 589 0
DWIDTH 9 0
BBX 8 12 1 0
BITMAP
3C
7E
E6
C6
C6
FF
FF
C6
C6
E6
7E
3C
ENDCHAR
STARTCHAR 0400
ENCODING 1024
SWIDTH 589 0
DWIDTH 9 0
BBX 7 15 1 0
BITMAP
60
30
18
FE
FE
C0
C0
C0
FE
FE
C0
C0
C0
FE
FE
ENDCHAR
STARTCHAR 0401
ENCODING 1025
SWIDTH 589 0
DWIDTH 9 0
BBX 7 15 1 0
BITMAP
6C
6C
00
FE
FE
C0
C0
C0
FE
FE
C0
C0
C0
FE
FE
ENDCHAR
STARTCHAR 0402
ENCODING 1026
SWIDTH 589 0
DWIDTH 9 0
BBX 9 16 0 -3
BITMAP
FE00
FE00
6000
6000
6000
6F00
7F80
7380
6180
6180
6180
6180
6180
0380
0F00
0F00
ENDCHAR
STARTCHAR 0403
ENCODING 1027
SWIDTH 589 0
DWIDTH 9 0
BBX 7 14 1 0
BITMAP
1C
00
FE
FE
E0
E0
E0
E0
E0
E0
E0
E0
E0
E0
ENDCHAR
STARTCHAR 0404
ENCODING 1028
SWIDTH 589 0
DWIDTH 9 0
BBX 7 12 1 0
BITMAP
3E
7E
62
E0
C0
FE
FE
C0
E0
62
7E
3E
ENDCHAR
STARTCHAR 0405
ENCODING 1029
SWIDTH 589 0
DWIDTH 9 0
BBX 7 12 1 0
BITMAP
7C
FE
C2
C0
E0
7C
3E
0E
06
86
FE
7C
ENDCHAR
STARTCHAR 0406
ENCODING 1030
SWIDTH 589 0
DWIDTH 9 0
BBX 7 12 1 0
BITMAP
FE
FE
38
38
38
38
38
38
38
38
FE
FE
ENDCHAR
STARTCHAR 0407
ENCODING 1031
SWIDTH 589 0
DWIDTH 9 0
BBX 7 15 1 0
BITMAP
6C
6C
00
FE
FE
38
38
38
38
38
38
38
38
FE
FE
ENDCHAR
STARTCHAR 0408
ENCODING 1032
SWIDTH 589 0
DWIDTH 9 0
BBX 7 12 1 0
BITMAP
3E
3E
0E
0E
0E
0E
0E
0E
0E
8C
FC
F8
ENDCHAR
STARTCHAR 0409
ENCODING 1033
SWIDTH 589 0
DWIDTH 9 0
BBX 9 12 0 0
BITMAP
3C00
3C00
2C00
2C00
2C00
2F00
2F80
2D80
6D80
6D80
EF80
CF00
ENDCHAR
STARTCHAR 040A
ENCODING 1034
SWIDTH 589 0
DWIDTH 9 0
BBX 9 12 0 0
BITMAP
CC00
CC00
CC00
CC00
CC00
FF00
FF80
CD80
CD80
CD80
CF80
CF00
ENDCHAR
STARTCHAR 040B
ENCODING 1035
SWIDTH 589 0
DWIDTH 9 0
BBX 9 12 0 0
BITMAP
FE00
FE00
6000
6000
6000
7F00
7F80
6180
6180
6180
6180
6180
ENDCHAR
STARTCHAR 040C
ENCODING 1036
SWIDTH 589 0
DWIDTH 9 0
BBX 8 15 1 0
BITMAP
0C
18
10
C7
CE
CC
D8
F8
F8
F8
DC
CC
CE
C6
C7
ENDCHAR
STARTCHAR 040D
ENCODING 1037
SWIDTH 589 0
DWIDTH 9 0
BBX 7 15 1 0
BITMAP
60
30
18
C6
CE
CE
CE
DE
DE
D6
F6
F6
E6
E6
C6
ENDCHAR
STARTCHAR 040E
ENCODING 1038
SWIDTH 589 0
DWIDTH 9 0
BBX 9 15 0 0
BITMAP
2200
3200
1C00
E180
6380
7300
3300
3E00
1E00
1E00
0C00
0C00
1C00
7800
7000
ENDCHAR
STARTCHAR 040F
ENCODING 1039
SWIDTH 589 0
DWIDTH 9 0
BBX 7 14 1 -2
BITMAP
C6
C6
C6
C6
C6
C6
C6
C6
C6
C6
FE
FE
18
18
ENDCHAR
STARTCHAR 0410
ENCODING 1040
SWIDTH 589 0
DWIDTH 9 0
BBX 9 12 0 0
BITMAP
1C00
1C00
1E00
3600
3600
3600
3300
7F00
7F00
6300
6380
E180
ENDCHAR
STARTCHAR 0411
ENCODING 1041
SWIDTH 589 0
DWIDTH 9 0
BBX 7 12 1 0
BITMAP
FE
FE
C0
C0
C0
FC
FE
C6
C6
C6
FE
FC
ENDCHAR
STARTCHAR 0412
ENCODING 1042
SWIDTH 589 0
DWIDTH 9 0
BBX 8 12 1 0
BITMAP
FC
FE
C6
C6
C6
FC
FE
C6
C7
C7
FE
FC
ENDCHAR
STARTCHAR 0413
ENCODING 1043
SWIDTH 589 0
DWIDTH 9 0
BBX 7 12 1 0
BITMAP
FE
FE
E0
E0
E0
E0
E0
E0
E0
E0
E0
E0
ENDCHAR
STARTCHAR 0414
ENCODING 1044
SWIDTH 589 0
DWIDTH 9 0
BBX 9 15 0 -3
BITMAP
3F00
3F00
3300
3300
3300
3300
3300
3300
3300
7300
FF80
FF80
C180
C180
C180
ENDCHAR
STARTCHAR 0415
ENCODING 1045
SWIDTH 589 0
DWIDTH 9 0
BBX 7 12 1 0
BITMAP
FE
FE
C0
C0
C0
FE
FE
C0
C0
C0
FE
FE
ENDCHAR
STARTCHAR 0416
ENCODING 1046
SWIDTH 589 0
DWIDTH 9 0
BBX 9 12 0 0
BITMAP
CD80
6D80
6F00
6F00
3E00
3E00
3F00
7F00
7F00
6D00
CD80
CD80
ENDCHAR
STARTCHAR 0417
ENCODING 1047
SWIDTH 589 0
DWIDTH 9 0
BBX 7 12 1 0
BITMAP
F8
FE
86
06
0E
3C
3C
06
06
86
FE
FC
ENDCHAR
STARTCHAR 0418
ENCODING 1048
SWIDTH 589 0
DWIDTH 9 0
BBX 7 12 1 0
BITMAP
C6
CE
CE
CE
DE
DE
D6
F6
F6
E6
E6
C6
ENDCHAR
STARTCHAR 0419
ENCODING 1049
SWIDTH 589 0
DWIDTH 9 0
BBX 7 15 1 0
BITMAP
44
64
38
C6
CE
CE
CE
DE
DE
D6
F6
F6
E6
E6
C6
ENDCHAR
STARTCHAR 041A
ENCODING 1050
SWIDTH 589 0
DWIDTH 9 0
BBX 8 12 1 0
BITMAP
C7
CE
CC
D8
F8
F8
F8
DC
CC
CE
C6
C7
ENDCHAR
STARTCHAR 041B
ENCODING 1051
SWIDTH 589 0
DWIDTH 9 0
BBX 8 12 0 0
BITMAP
3F
3F
33
33
33
33
33
33
33
33
E3
E3
ENDCHAR
STARTCHAR 041C
ENCODING 1052
SWIDTH 589 0
DWIDTH 9 0
BBX 8 12 1 0
BITMAP
C7
E7
EF
EB
EB
FB
FB
DB
C3
C3
C3
C3
ENDCHAR
STARTCHAR 041D
ENCODING 1053
SWIDTH 589 0
DWIDTH 9 0
BBX 7 12 1 0
BITMAP
C6
C6
C6
C6
C6
FE
FE
C6
C6
C6
C6
C6
ENDCHAR
STARTCHAR 041E
ENCODING 1054
SWIDTH 589 0
DWIDTH 9 0
BBX 8 12 1 0
BITMAP
3C
7E
E6
C6
C6
C7
C7
C6
C6
E6
7E
3C
ENDCHAR
STARTCHAR 041F
ENCODING 1055
SWIDTH 589 0
DWIDTH 9 0
BBX 7 12 1 0
BITMAP
FE
FE
C6
C6
C6
C6
C6
C6
C6
C6
C6
C6
ENDCHAR
STARTCHAR 0420
ENCODING 1056
SWIDTH 589 0
DWIDTH 9 0
BBX 8 12 1 0
BITMAP
FC
FE
C6
C7
C7
C6
FE
FC
C0
C0
C0
C0
ENDCHAR
STARTCHAR 0421
ENCODING 1057
SWIDTH 589 0
DWIDTH 9 0
BBX 7 12 1 0
BITMAP
3E
7E
62
E0
C0
C0
C0
C0
E0
62
7E
3E
ENDCHAR
STARTCHAR 0422
ENCODING 1058
SWIDTH 589 0
DWIDTH 9 0
BBX 8 12 1 0
BITMAP
FF
FF
38
38
38
38
38
38
38
38
38
38
ENDCHAR
STARTCHAR 0423
ENCODING 1059
SWIDTH 589 0
DWIDTH 9 0
BBX 9 12 0 0
BITMAP
E180
6380
7300
3300
3E00
1E00
1E00
0C00
0C00
1C00
7800
7000
ENDCHAR
STARTCHAR 0424
ENCODING 1060
SWIDTH 589 0
DWIDTH 9 0
BBX 9 12 0 0
BITMAP
0C00
3E00
7F00
6F80
CD80
CD80
CD80
CD80
6F00
7F00
3E00
0C00
ENDCHAR
STARTCHAR 0425
ENCODING 1061
SWIDTH 589 0
DWIDTH 9 0
BBX 9 12 0 0
BITMAP
E380
6300
3700
3600
1E00
1C00
1C00
1E00
3600
3700
6300
E380
ENDCHAR
STARTCHAR 0426
ENCODING 1062
SWIDTH 589 0
DWIDTH 9 0
BBX 8 15 1 -3
BITMAP
C6
C6
C6
C6
C6
C6
C6
C6
C6
C6
FF
FF
03
03
03
ENDCHAR
STARTCHAR 0427
ENCODING 1063
SWIDTH 589 0
DWIDTH 9 0
BBX 7 12 1 0
BITMAP
C6
C6
C6
C6
C6
FE
7E
06
06
06
06
06
ENDCHAR
STARTCHAR 0428
ENCODING 1064
SWIDTH 589 0
DWIDTH 9 0
BBX 8 12 1 0
BITMAP
93
93
93
93
93
93
93
93
93
93
FF
FF
ENDCHAR
STARTCHAR 0429
ENCODING 1065
SWIDTH 589 0
DWIDTH 9 0
BBX 8 15 1 -3
BITMAP
9B
9B
9B
9B
9B
9B
9B
9B
9B
9B
FF
FF
03
03
03
ENDCHAR
STARTCHAR 042A
ENCODING 1066
SWIDTH 589 0
DWIDTH 9 0
BBX 9 12 0 0
BITMAP
F000
F000
3000
3000
3000
3E00
3F00
3380
3180
3380
3F00
3E00
ENDCHAR
STARTCHAR 042B
ENCODING 1067
SWIDTH 589 0
DWIDTH 9 0
BBX 9 12 0 0
BITMAP
C180
C180
C180
C180
C180
F980
FD80
CD80
CD80
CD80
FD80
F980
ENDCHAR
STARTCHAR 042C
ENCODING 1068
SWIDTH 589 0
DWIDTH 9 0
BBX 8 12 1 0
BITMAP
C0
C0
C0
C0
C0
FC
FE
C6
C7
C6
FE
FC
ENDCHAR
STARTCHAR 042D
ENCODING 1069
SWIDTH 589 0
DWIDTH 9 0
BBX 7 12 1 0
BITMAP
F8
FC
8E
06
06
7E
7E
06
06
8E
FC
F8
ENDCHAR
STARTCHAR 042E
ENCODING 1070
SWIDTH 589 0
DWIDTH 9 0
BBX 9 12 0 0
BITMAP
C700
CF00
CD80
D980
D980
F980
F980
D980
D980
CD80
CF00
C600
ENDCHAR
STARTCHAR 042F
ENCODING 1071
SWIDTH 589 0
DWIDTH 9 0
BBX 8 12 0 0
BITMAP
3F
7F
63
63
63
7F
3F
3B
33
73
63
E3
ENDCHAR
STARTCHAR 0430
ENCODING 1072
SWIDTH 589 0
DWIDTH 9 0
BBX 8 9 1 0
BITMAP
7C
7E
86
7E
FE
C6
C6
FE
77
ENDCHAR
STARTCHAR 0431
ENCODING 1073
SWIDTH 589 0
DWIDTH 9 0
BBX 8 13 1 0
BITMAP
04
7E
E0
C0
BC
FE
E6
C7
C7
C7
E6
7E
3C
ENDCHAR
STARTCHAR 0432
ENCODING 1074
SWIDTH 589 0
DWIDTH 9 0
BBX 7 9 1 0
BITMAP
FC
FE
C6
FE
FE
C6
C6
FE
FC
ENDCHAR
STARTCHAR 0433
ENCODING 1075
SWIDTH 589 0
DWIDTH 9 0
BBX 6 9 2 0
BITMAP
FC
FC
C0
C0
C0
C0
C0
C0
C0
ENDCHAR
STARTCHAR 0434
ENCODING 1076
SWIDTH 589 0
DWIDTH 9 0
BBX 8 11 1 -2
BITMAP
7E
7E
66
66
66
66
66
FF
FF
83
83
ENDCHAR
STARTCHAR 0435
ENCODING 1077
SWIDTH 589 0
DWIDTH 9 0
BBX 8 9 1 0
BITMAP
3C
7E
C6
FF
FF
C0
C2
7E
3E
ENDCHAR
STARTCHAR 0436
ENCODING 1078
SWIDTH 589 0
DWIDTH 9 0
BBX 9 9 0 0
BITMAP
CD80
6F00
7F00
3E00
3F00
7F00
6F00
6D80
CD80
ENDCHAR
STARTCHAR 0437
ENCODING 1079
SWIDTH 589 0
DWIDTH 9 0
BBX 7 9 1 0
BITMAP
FC
FE
06
3C
3C
06
86
FE
FC
ENDCHAR
STARTCHAR 0438
ENCODING 1080
SWIDTH 589 0
DWIDTH 9 0
BBX 7 9 1 0
BITMAP
C6
CE
CE
DE
D6
F6
E6
E6
E6
ENDCHAR
STARTCHAR 0439
ENCODING 1081
SWIDTH 589 0
DWIDTH 9 0
BBX 7 13 1 0
BITMAP
44
44
38
00
C6
CE
CE
DE
D6
F6
E6
E6
E6
ENDCHAR
STARTCHAR 043A
ENCODING 1082
SWIDTH 589 0
DWIDTH 9 0
BBX 8 9 1 0
BITMAP
C7
CC
D8
F8
F8
EC
CC
C6
C7
ENDCHAR
STARTCHAR 043B
ENCODING 1083
SWIDTH 589 0
DWIDTH 9 0
BBX 8 9 0 0
BITMAP
3F
3F
33
33
33
33
33
F3
E3
ENDCHAR
STARTCHAR 043C
ENCODING 1084
SWIDTH 589 0
DWIDTH 9 0
BBX 8 9 1 0
BITMAP
C7
E7
EF
AB
AB
BB
BB
9B
83
ENDCHAR
STARTCHAR 043D
ENCODING 1085
SWIDTH 589 0
DWIDTH 9 0
BBX 7 9 1 0
BITMAP
C6
C6
C6
FE
FE
C6
C6
C6
C6
ENDCHAR
STARTCHAR 043E
ENCODING 1086
SWIDTH 589 0
DWIDTH 9 0
BBX 7 9 1 0
BITMAP
3C
7E
C6
C6
C6
C6
C6
7E
3C
ENDCHAR
STARTCHAR 043F
ENCODING 1087
SWIDTH 589 0
DWIDTH 9 0
BBX 7 9 1 0
BITMAP
FE
FE
C6
C6
C6
C6
C6
C6
C6
ENDCHAR
STARTCHAR 0440
ENCODING 1088
SWIDTH 589 0
DWIDTH 9 0
BBX 8 12 1 -3
BITMAP
DC
FE
E6
C6
C7
C6
E6
FE
DC
C0
C0
C0
ENDCHAR
STARTCHAR 0441
ENCODING 1089
SWIDTH 589 0
DWIDTH 9 0
BBX 7 9 1 0
BITMAP
3C
7E
E2
C0
C0
C0
E2
7E
3E
ENDCHAR
STARTCHAR 0442
ENCODING 1090
SWIDTH 589 0
DWIDTH 9 0
BBX 7 9 1 0
BITMAP
FE
FE
18
18
18
18
18
18
18
ENDCHAR
STARTCHAR 0443
ENCODING 1091
SWIDTH 589 0
DWIDTH 9 0
BBX 8 12 1 -3
BITMAP
C7
C6
E6
6E
6C
3C
3C
38
18
30
F0
E0
ENDCHAR
STARTCHAR 0444
ENCODING 1092
SWIDTH 589 0
DWIDTH 9 0
BBX 8 15 1 -3
BITMAP
10
10
10
38
7E
D6
D3
93
93
D6
FE
7C
10
10
10
ENDCHAR
STARTCHAR 0445
ENCODING 1093
SWIDTH 589 0
DWIDTH 9 0
BBX 9 9 0 0
BITMAP
6380
3700
3600
1C00
1C00
1C00
3600
7700
E380
ENDCHAR
STARTCHAR 0446
ENCODING 1094
SWIDTH 589 0
DWIDTH 9 0
BBX 8 11 1 -2
BITMAP
C6
C6
C6
C6
C6
C6
C6
FF
FF
03
03
ENDCHAR
STARTCHAR 0447
ENCODING 1095
SWIDTH 589 0
DWIDTH 9 0
BBX 7 9 1 0
BITMAP
C6
C6
C6
C6
FE
7E
06
06
06
ENDCHAR
STARTCHAR 0448
ENCODING 1096
SWIDTH 589 0
DWIDTH 9 0
BBX 8 9 1 0
BITMAP
93
93
93
93
93
93
93
FF
FF
ENDCHAR
STARTCHAR 0449
ENCODING 1097
SWIDTH 589 0
DWIDTH 9 0
BBX 8 11 1 -2
BITMAP
93
93
93
93
93
93
93
FF
FF
01
01
ENDCHAR
STARTCHAR 044A
ENCODING 1098
SWIDTH 589 0
DWIDTH 9 0
BBX 9 9 0 0
BITMAP
F000
F000
3000
3E00
3F00
3380
3180
3F00
3F00
ENDCHAR
STARTCHAR 044B
ENCODING 1099
SWIDTH 589 0
DWIDTH 9 0
BBX 9 9 0 0
BITMAP
C180
C180
C180
F180
FD80
CD80
CD80
FD80
F980
ENDCHAR
STARTCHAR 044C
ENCODING 1100
SWIDTH 589 0
DWIDTH 9 0
BBX 7 9 2 0
BITMAP
C0
C0
C0
F8
FC
CC
CE
FC
F8
ENDCHAR
STARTCHAR 044D
ENCODING 1101
SWIDTH 589 0
DWIDTH 9 0
BBX 7 9 1 0
BITMAP
78
FC
8E
7E
7E
06
8E
FC
78
ENDCHAR
STARTCHAR 044E
ENCODING 1102
SWIDTH 589 0
DWIDTH 9 0
BBX 8 9 1 0
BITMAP
CC
DE
F3
F3
F3
F3
D3
DE
CC
ENDCHAR
STARTCHAR 044F
ENCODING 1103
SWIDTH 589 0
DWIDTH 9 0
BBX 7 9 1 0
BITMAP
7E
FE
C6
C6
7E
7E
76
E6
C6
ENDCHAR
STARTCHAR 0450
ENCODING 1104
SWIDTH 589 0
DWIDTH 9 0
BBX 8 14 1 0
BITMAP
60
30
10
08
00
3C
7E
C6
FF
FF
C0
C2
7E
3E
ENDCHAR
STARTCHAR 0451
ENCODING 1105
SWIDTH 589 0
DWIDTH 9 0
BBX 8 13 1 0
BITMAP
2C
2C
00
00
3C
7E
C6
FF
FF
C0
C2
7E
3E
ENDCHAR
STARTCHAR 0452
ENCODING 1106
SWIDTH 589 0
DWIDTH 9 0
BBX 9 15 0 -3
BITMAP
3000
3000
3000
FE00
FE00
3000
3F00
3F00
3380
3380
3380
3380
0300
0700
0E00
ENDCHAR
STARTCHAR 0453
ENCODING 1107
SWIDTH 589 0
DWIDTH 9 0
BBX 6 13 2 0
BITMAP
0C
18
30
00
FC
FC
C0
C0
C0
C0
C0
C0
C0
ENDCHAR
STARTCHAR 0454
ENCODING 1108
SWIDTH 589 0
DWIDTH 9 0
BBX 7 9 1 0
BITMAP
3C
7E
E2
F8
F8
C0
E2
7E
3C
ENDCHAR
STARTCHAR 0455
ENCODING 1109
SWIDTH 589 0
DWIDTH 9 0
BBX 7 9 1 0
BITMAP
7C
FC
C2
E0
7C
0E
86
FE
7C
ENDCHAR
STARTCHAR 0456
ENCODING 1110
SWIDTH 589 0
DWIDTH 9 0
BBX 7 13 1 0
BITMAP
30
30
30
00
F0
F0
30
30
30
30
30
3E
1E
ENDCHAR
STARTCHAR 0457
ENCODING 1111
SWIDTH 589 0
DWIDTH 9 0
BBX 7 12 1 0
BITMAP
6C
6C
00
F0
F0
30
30
30
30
30
3E
1E
ENDCHAR
STARTCHAR 0458
ENCODING 1112
SWIDTH 589 0
DWIDTH 9 0
BBX 6 16 1 -3
BITMAP
1C
1C
1C
00
7C
7C
1C
1C
1C
1C
1C
1C
1C
18
F8
F8
ENDCHAR
STARTCHAR 0459
ENCODING 1113
SWIDTH 589 0
DWIDTH 9 0
BBX 9 9 0 0
BITMAP
3C00
3C00
2C00
2F00
2F80
2D80
6D80
EF80
CF00
ENDCHAR
STARTCHAR 045A
ENCODING 1114
SWIDTH 589 0
DWIDTH 9 0
BBX 9 9 0 0
BITMAP
CC00
CC00
CC00
FE00
FF80
CD80
CD80
CF80
CF00
ENDCHAR
STARTCHAR 045B
ENCODING 1115
SWIDTH 589 0
DWIDTH 9 0
BBX 8 12 0 0
BITMAP
30
30
30
FE
FE
30
3E
3F
33
33
33
33
ENDCHAR
STARTCHAR 045C
ENCODING 1116
SWIDTH 589 0
DWIDTH 9 0
BBX 8 13 1 0
BITMAP
0E
08
10
20
C7
CC
D8
F8
F8
EC
CC
C6
C7
ENDCHAR
STARTCHAR 045D
ENCODING 1117
SWIDTH 589 0
DWIDTH 9 0
BBX 7 13 1 0
BITMAP
60
30
18
00
C6
CE
CE
DE
D6
F6
E6
E6
E6
ENDCHAR
STARTCHAR 045E
ENCODING 1118
SWIDTH 589 0
DWIDTH 9 0
BBX 8 16 1 -3
BITMAP
44
64
38
00
C7
C6
E6
6E
6C
3C
3C
38
18
30
F0
E0
ENDCHAR
STARTCHAR 045F
ENCODING 1119
SWIDTH 589 0
DWIDTH 9 0
BBX 7 11 1 -2
BITMAP
C6
C6
C6
C6
C6
C6
C6
FE
FE
10
10
ENDCHAR
STARTCHAR 0462
ENCODING 1122
SWIDTH 589 0
DWIDTH 9 0
BBX 9 12 0 0
BITMAP
3000
FE00
FE00
3000
3000
3E00
3F00
3380
3180
3380
3F00
3E00
ENDCHAR
STARTCHAR 0463
ENCODING 1123
SWIDTH 589 0
DWIDTH 9 0
BBX 9 12 0 0
BITMAP
3000
3000
3000
FE00
FE00
3000
3E00
3F00
3380
3380
3F00
3E00
ENDCHAR
STARTCHAR 0472
ENCODING 1138
SWIDTH 589 0
DWIDTH 9 0
BBX 8 12 1 0
BITMAP
3C
7E
E6
C6
C6
FF
FF
C6
C6
E6
7E
3C
ENDCHAR
STARTCHAR 0473
ENCODING 1139
SWIDTH 589 0
DWIDTH 9 0
BBX 7 9 1 0
BITMAP
3C
7E
C6
C6
FE
FE
C6
7E
3C
ENDCHAR
STARTCHAR 0490
ENCODING 1168
SWIDTH 589 0
DWIDTH 9 0
BBX 7 14 2 0
BITMAP
06
06
FE
FE
C0
C0
C0
C0
C0
C0
C0
C0
C0
C0
ENDCHAR
STARTCHAR 0491
ENCODING 1169
SWIDTH 589 0
DWIDTH 9 0
BBX 6 11 2 0
BITMAP
0C
0C
FC
FC
C0
C0
C0
C0
C0
C0
C0
ENDCHAR
STARTCHAR 0492
ENCODING 1170
SWIDTH 589 0
DWIDTH 9 0
BBX 8 12 1 0
BITMAP
7F
7F
60
60
60
FC
FC
60
60
60
60
60
ENDCHAR
STARTCHAR 0493
ENCODING 1171
SWIDTH 589 0
DWIDTH 9 0
BBX 7 9 1 0
BITMAP
7E
7E
60
60
FC
FC
60
60
60
ENDCHAR
STARTCHAR 0494
ENCODING 1172
SWIDTH 589 0
DWIDTH 9 0
BBX 8 15 1 -3
BITMAP
FE
FE
C0
C0
FC
FE
C6
C7
C7
C7
C7
C6
06
1E
1C
ENDCHAR
STARTCHAR 0495
ENCODING 1173
SWIDTH 589 0
DWIDTH 9 0
BBX 6 12 2 -3
BITMAP
FC
FC
C0
C0
F8
FC
CC
CC
CC
0C
3C
38
ENDCHAR
STARTCHAR 0496
ENCODING 1174
SWIDTH 589 0
DWIDTH 9 0
BBX 9 15 0 -3
BITMAP
CD80
6D80
6F00
6F00
3E00
3E00
3F00
7F00
7F00
6D00
4D80
CD80
0180
0180
0180
ENDCHAR
STARTCHAR 0497
ENCODING 1175
SWIDTH 589 0
DWIDTH 9 0
BBX 9 11 0 -2
BITMAP
CD80
6F00
3F00
3E00
3F00
7F00
6F00
4D80
CD80
0180
0180
ENDCHAR
STARTCHAR 0498
ENCODING 1176
SWIDTH 589 0
DWIDTH 9 0
BBX 7 15 1 -3
BITMAP
F8
FE
86
06
0E
3C
3C
06
06
86
FE
FC
10
18
70
ENDCHAR
STARTCHAR 0499
ENCODING 1177
SWIDTH 589 0
DWIDTH 9 0
BBX 7 12 1 -3
BITMAP
FC
FE
06
3C
3C
06
86
FE
FC
10
18
70
ENDCHAR
STARTCHAR 049A
ENCODING 1178
SWIDTH 589 0
DWIDTH 9 0
BBX 8 15 1 -3
BITMAP
C7
CE
CC
D8
F8
F8
F8
DC
CC
CE
C7
C7
03
03
03
ENDCHAR
STARTCHAR 049B
ENCODING 1179
SWIDTH 589 0
DWIDTH 9 0
BBX 8 11 1 -2
BITMAP
C7
CC
D8
F8
F8
CC
CE
C7
C7
03
03
ENDCHAR
STARTCHAR 04A2
ENCODING 1186
SWIDTH 589 0
DWIDTH 9 0
BBX 9 15 1 -3
BITMAP
C600
C600
C600
C600
C600
FE00
FE00
C600
C600
C600
C780
C780
0380
0380
0380
ENDCHAR
STARTCHAR 04A3
ENCODING 1187
SWIDTH 589 0
DWIDTH 9 0
BBX 9 11 0 -2
BITMAP
E600
E600
E600
FE00
FE00
E600
E600
E780
E780
0180
0180
ENDCHAR
STARTCHAR 04A4
ENCODING 1188
SWIDTH 589 0
DWIDTH 9 0
BBX 8 12 1 0
BITMAP
CF
CF
CC
CC
CC
FC
FC
CC
CC
CC
CC
CC
ENDCHAR
STARTCHAR 04A5
ENCODING 1189
SWIDTH 589 0
DWIDTH 9 0
BBX 8 9 1 0
BITMAP
CF
CF
CC
FC
FC
CC
CC
CC
CC
ENDCHAR
STARTCHAR 04AA
ENCODING 1194
SWIDTH 589 0
DWIDTH 9 0
BBX 7 15 1 -3
BITMAP
3E
7E
62
E0
C0
C0
C0
C0
E0
62
7E
3E
0C
04
1C
ENDCHAR
STARTCHAR 04AB
ENCODING 1195
SWIDTH 589 0
DWIDTH 9 0
BBX 7 12 1 -3
BITMAP
3C
7E
E2
C0
C0
C0
E2
7E
3E
08
0C
38
ENDCHAR
STARTCHAR 04AC
ENCODING 1196
SWIDTH 589 0
DWIDTH 9 0
BBX 8 15 1 -3
BITMAP
FF
FF
38
38
38
38
38
38
38
38
3E
3E
06
06
06
ENDCHAR
STARTCHAR 04AD
ENCODING 1197
SWIDTH 589 0
DWIDTH 9 0
BBX 7 11 1 -2
BITMAP
FE
FE
18
18
18
18
18
1E
1E
06
06
ENDCHAR
STARTCHAR 04AE
ENCODING 1198
SWIDTH 589 0
DWIDTH 9 0
BBX 9 12 0 0
BITMAP
E180
6300
7300
3600
3600
1E00
1C00
1C00
1C00
1C00
1C00
1C00
ENDCHAR
STARTCHAR 04AF
ENCODING 1199
SWIDTH 589 0
DWIDTH 9 0
BBX 9 12 0 -3
BITMAP
E380
6300
7300
3600
3600
3E00
1C00
1C00
0C00
0C00
0C00
0C00
ENDCHAR
STARTCHAR 04B0
ENCODING 1200
SWIDTH 589 0
DWIDTH 9 0
BBX 9 12 0 0
BITMAP
E180
6300
7300
3700
3600
1E00
1C00
1C00
3E00
3E00
1C00
1C00
ENDCHAR
STARTCHAR 04B1
ENCODING 1201
SWIDTH 589 0
DWIDTH 9 0
BBX 9 12 0 -3
BITMAP
E380
6300
7300
3600
3600
3E00
1C00
1C00
1C00
3E00
3E00
0C00
ENDCHAR
STARTCHAR 04B2
ENCODING 1202
SWIDTH 589 0
DWIDTH 9 0
BBX 9 15 0 -3
BITMAP
E380
6300
3700
3600
1E00
1C00
1C00
1E00
3600
3700
6380
E380
0180
0180
0180
ENDCHAR
STARTCHAR 04B3
ENCODING 1203
SWIDTH 589 0
DWIDTH 9 0
BBX 9 11 0 -2
BITMAP
6380
3700
3E00
1C00
1C00
1E00
3600
7780
E380
0180
0180
ENDCHAR
STARTCHAR 04BA
ENCODING 1210
SWIDTH 589 0
DWIDTH 9 0
BBX 8 12 1 0
BITMAP
C0
C0
C0
C0
DE
FE
C7
C7
C7
C7
C7
C7
ENDCHAR
STARTCHAR 04BB
ENCODING 1211
SWIDTH 589 0
DWIDTH 9 0
BBX 7 12 1 0
BITMAP
C0
C0
C0
DC
FE
E6
C6
C6
C6
C6
C6
C6
ENDCHAR
STARTCHAR 04C0
ENCODING 1216
SWIDTH 589 0
DWIDTH 9 0
BBX 7 12 1 0
BITMAP
FE
FE
38
38
38
38
38
38
38
38
FE
FE
ENDCHAR
STARTCHAR 04C1
ENCODING 1217
SWIDTH 589 0
DWIDTH 9 0
BBX 9 14 0 0
BITMAP
3E00
0000
CD80
6D80
6F00
6F00
3E00
3E00
3F00
7F00
7F00
6D00
CD80
CD80
ENDCHAR
STARTCHAR 04C2
ENCODING 1218
SWIDTH 589 0
DWIDTH 9 0
BBX 9 13 0 0
BITMAP
2200
2200
1C00
0000
CD80
6F00
7F00
3E00
3F00
7F00
6F00
6D80
CD80
ENDCHAR
STARTCHAR 04C3
ENCODING 1219
SWIDTH 589 0
DWIDTH 9 0
BBX 8 15 1 -3
BITMAP
C7
CE
CC
D8
FC
FE
EE
C6
C6
C6
C6
C6
06
1E
1C
ENDCHAR
STARTCHAR 04C4
ENCODING 1220
SWIDTH 589 0
DWIDTH 9 0
BBX 8 12 1 -3
BITMAP
C7
CC
D8
F0
FC
FC
CE
CE
CE
0E
3C
3C
ENDCHAR
STARTCHAR 04C7
ENCODING 1223
SWIDTH 589 0
DWIDTH 9 0
BBX 7 15 1 -3
BITMAP
C6
C6
C6
C6
FE
FE
C6
C6
C6
C6
C6
C6
06
1E
1C
ENDCHAR
STARTCHAR 04C8
ENCODING 1224
SWIDTH 589 0
DWIDTH 9 0
BBX 7 12 1 -3
BITMAP
C6
C6
C6
FE
FE
C6
C6
C6
C6
06
1E
1C
ENDCHAR
STARTCHAR 04CB
ENCODING 1227
SWIDTH 589 0
DWIDTH 9 0
BBX 7 15 1 -3
BITMAP
C6
C6
C6
C6
C6
FE
7E
06
06
06
1E
1E
18
18
18
ENDCHAR
STARTCHAR 04CC
ENCODING 1228
SWIDTH 589 0
DWIDTH 9 0
BBX 7 11 1 -2
BITMAP
C6
C6
C6
C6
FE
3E
06
1E
1E
18
18
ENDCHAR
STARTCHAR 04CF
ENCODING 1231
SWIDTH 589 0
DWIDTH 9 0
BBX 2 12 3 0
BITMAP
C0
C0
C0
C0
C0
C0
C0
C0
C0
C0
C0
C0
ENDCHAR
STARTCHAR 04D0
ENCODING 1232
SWIDTH 589 0
DWIDTH 9 0
BBX 9 15 0 0
BITMAP
2200
3200
1C00
1C00
1C00
1E00
3600
3600
3600
3300
7F00
7F00
6300
6380
E180
ENDCHAR
STARTCHAR 04D1
ENCODING 1233
SWIDTH 589 0
DWIDTH 9 0
BBX 8 13 1 0
BITMAP
44
44
38
00
7C
7E
86
7E
FE
C6
C6
FE
77
ENDCHAR
STARTCHAR 04D2
ENCODING 1234
SWIDTH 589 0
DWIDTH 9 0
BBX 9 15 0 0
BITMAP
3600
3600
0000
1C00
1C00
1E00
3600
3600
3600
3300
7F00
7F00
6300
6380
E180
ENDCHAR
STARTCHAR 04D3
ENCODING 1235
SWIDTH 589 0
DWIDTH 9 0
BBX 8 13 1 0
BITMAP
6C
6C
00
00
7C
7E
86
7E
FE
C6
C6
FE
77
ENDCHAR
STARTCHAR 04D4
ENCODING 1236
SWIDTH 589 0
DWIDTH 9 0
BBX 9 12 0 0
BITMAP
1F80
3F80
3400
3400
2400
6700
6700
7C00
7C00
4400
C780
C780
ENDCHAR
STARTCHAR 04D5
ENCODING 1237
SWIDTH 589 0
DWIDTH 9 0
BBX 9 9 0 0
BITMAP
7700
7F80
0D80
7F80
FF80
CC00
CC80
FF80
7700
ENDCHAR
STARTCHAR 04D6
ENCODING 1238
SWIDTH 589 0
DWIDTH 9 0
BBX 7 15 1 0
BITMAP
44
64
38
FE
FE
C0
C0
C0
FE
FE
C0
C0
C0
FE
FE
ENDCHAR
STARTCHAR 04D7
ENCODING 1239
SWIDTH 589 0
DWIDTH 9 0
BBX 8 13 1 0
BITMAP
44
3C
00
00
3C
7E
C6
FF
FF
C0
C2
7E
3E
ENDCHAR
STARTCHAR 04D8
ENCODING 1240
SWIDTH 589 0
DWIDTH 9 0
BBX 8 12 1 0
BITMAP
7C
7E
46
06
06
FF
FF
C6
C6
E6
7E
3C
ENDCHAR
STARTCHAR 04D9
ENCODING 1241
SWIDTH 589 0
DWIDTH 9 0
BBX 8 9 1 0
BITMAP
7C
FE
86
07
FF
FF
C6
FE
3C
ENDCHAR
STARTCHAR 04DA
ENCODING 1242
SWIDTH 589 0
DWIDTH 9 0
BBX 8 15 1 0
BITMAP
6C
6C
00
7C
7E
46
06
06
FF
FF
C6
C6
E6
7E
3C
ENDCHAR
STARTCHAR 04DB
ENCODING 1243
SWIDTH 589 0
DWIDTH 9 0
BBX 8 13 1 0
BITMAP
6C
6C
00
00
7C
FE
86
07
FF
FF
C6
FE
3C
ENDCHAR
STARTCHAR 04DC
ENCODING 1244
SWIDTH 589 0
DWIDTH 9 0
BBX 9 15 0 0
BITMAP
3600
3600
0000
CD80
6D80
6F00
6F00
3E00
3E00
3F00
7F00
7F00
6D00
CD80
CD80
ENDCHAR
STARTCHAR 04DD
ENCODING 1245
SWIDTH 589 0
DWIDTH 9 0
BBX 9 12 0 0
BITMAP
3600
3600
0000
CD80
6F00
7F00
3E00
3F00
7F00
6F00
6D80
CD80
ENDCHAR
STARTCHAR 04DE
ENCODING 1246
SWIDTH 589 0
DWIDTH 9 0
BBX 7 15 1 0
BITMAP
6C
6C
00
F8
FE
86
06
0E
3C
3C
06
06
86
FE
FC
ENDCHAR
STARTCHAR 04DF
ENCODING 1247
SWIDTH 589 0
DWIDTH 9 0
BBX 7 13 1 0
BITMAP
6C
6C
00
00
FC
FE
06
3C
3C
06
86
FE
FC
ENDCHAR
STARTCHAR 04E0
ENCODING 1248
SWIDTH 589 0
DWIDTH 9 0
BBX 9 12 0 0
BITMAP
7F80
7F80
0700
0E00
1C00
3F00
3F80
0380
C180
E380
7F80
3E00
ENDCHAR
STARTCHAR 04E1
ENCODING 1249
SWIDTH 589 0
DWIDTH 9 0
BBX 7 12 1 -3
BITMAP
FE
FE
0C
18
30
7C
7E
0E
06
8E
FE
FC
ENDCHAR
STARTCHAR 04E2
ENCODING 1250
SWIDTH 589 0
DWIDTH 9 0
BBX 7 15 1 0
BITMAP
7C
7C
00
C6
CE
CE
CE
DE
DE
D6
F6
F6
E6
E6
C6
ENDCHAR
STARTCHAR 04E3
ENCODING 1251
SWIDTH 589 0
DWIDTH 9 0
BBX 7 12 1 0
BITMAP
7C
7C
00
C6
CE
CE
DE
D6
F6
E6
E6
E6
ENDCHAR
STARTCHAR 04E4
ENCODING 1252
SWIDTH 589 0
DWIDTH 9 0
BBX 7 14 1 0
BITMAP
6C
6C
C6
CE
CE
CE
DE
DE
D6
F6
F6
E6
E6
C6
ENDCHAR
STARTCHAR 04E5
ENCODING 1253
SWIDTH 589 0
DWIDTH 9 0
BBX 7 12 1 0
BITMAP
6C
6C
00
C6
CE
CE
DE
D6
F6
E6
E6
E6
ENDCHAR
STARTCHAR 04E6
ENCODING 1254
SWIDTH 589 0
DWIDTH 9 0
BBX 8 14 1 0
BITMAP
6C
6C
3C
7E
E6
C6
C6
C7
C7
C6
C6
E6
7E
3C
ENDCHAR
STARTCHAR 04E7
ENCODING 1255
SWIDTH 589 0
DWIDTH 9 0
BBX 7 13 1 0
BITMAP
6C
6C
00
00
3C
7E
C6
C6
C6
C6
C6
7E
3C
ENDCHAR
STARTCHAR 04E8
ENCODING 1256
SWIDTH 589 0
DWIDTH 9 0
BBX 8 12 1 0
BITMAP
3C
7E
E6
C6
C6
FF
FF
C6
C6
E6
7E
3C
ENDCHAR
STARTCHAR 04E9
ENCODING 1257
SWIDTH 589 0
DWIDTH 9 0
BBX 7 9 1 0
BITMAP
3C
7E
C6
C6
FE
FE
C6
7E
3C
ENDCHAR
STARTCHAR 04EA
ENCODING 1258
SWIDTH 589 0
DWIDTH 9 0
BBX 8 14 1 0
BITMAP
6C
6C
3C
7E
E6
C6
C6
FF
FF
C6
C6
E6
7E
3C
ENDCHAR
STARTCHAR 04EB
ENCODING 1259
SWIDTH 589 0
DWIDTH 9 0
BBX 7 13 1 0
BITMAP
6C
6C
00
00
3C
7E
C6
C6
FE
FE
C6
7E
3C
ENDCHAR
STARTCHAR 04EC
ENCODING 1260
SWIDTH 589 0
DWIDTH 9 0
BBX 7 14 1 0
BITMAP
6C
6C
F8
FC
8E
06
06
7E
7E
06
06
8E
FC
F8
ENDCHAR
STARTCHAR 04ED
ENCODING 1261
SWIDTH 589 0
DWIDTH 9 0
BBX 7 13 1 0
BITMAP
6C
6C
00
00
78
FC
8E
7E
7E
06
8E
FC
78
ENDCHAR
STARTCHAR 04EE
ENCODING 1262
SWIDTH 589 0
DWIDTH 9 0
BBX 9 15 0 0
BITMAP
3E00
3E00
0000
E180
6300
7300
3700
3E00
1E00
1E00
0C00
0C00
1800
7800
7000
ENDCHAR
STARTCHAR 04EF
ENCODING 1263
SWIDTH 589 0
DWIDTH 9 0
BBX 9 15 0 -3
BITMAP
3E00
3E00
0000
E380
6300
7300
3700
3600
3E00
1C00
1C00
0C00
1800
7800
7000
ENDCHAR
STARTCHAR 04F0
ENCODING 1264
SWIDTH 589 0
DWIDTH 9 0
BBX 9 14 0 0
BITMAP
3600
3600
E180
6300
7300
3700
3E00
1E00
1E00
0C00
0C00
1800
7800
7000
ENDCHAR
STARTCHAR 04F1
ENCODING 1265
SWIDTH 589 0
DWIDTH 9 0
BBX 9 16 0 -3
BITMAP
3600
3600
0000
0000
E380
6300
7300
3700
3600
3E00
1C00
1C00
0C00
1800
7800
7000
ENDCHAR
STARTCHAR 04F2
ENCODING 1266
SWIDTH 589 0
DWIDTH 9 0
BBX 9 14 0 0
BITMAP
1F00
3600
E180
6300
7300
3700
3E00
1E00
1E00
0C00
0C00
1800
7800
7000
ENDCHAR
STARTCHAR 04F3
ENCODING 1267
SWIDTH 589 0
DWIDTH 9 0
BBX 9 16 0 -3
BITMAP
1B00
1200
3400
0000
E380
6300
7300
3700
3600
3E00
1C00
1C00
0C00
1800
7800
7000
ENDCHAR
STARTCHAR 04F4
ENCODING 1268
SWIDTH 589 0
DWIDTH 9 0
BBX 7 14 1 0
BITMAP
6C
6C
C6
C6
C6
C6
C6
FE
7E
06
06
06
06
06
ENDCHAR
STARTCHAR 04F5
ENCODING 1269
SWIDTH 589 0
DWIDTH 9 0
BBX 7 12 1 0
BITMAP
6C
6C
00
C6
C6
C6
C6
FE
7E
06
06
06
ENDCHAR
STARTCHAR 04F6
ENCODING 1270
SWIDTH 589 0
DWIDTH 9 0
BBX 7 15 1 -3
BITMAP
FE
FE
E0
E0
E0
E0
E0
E0
E0
E0
F8
F8
18
18
18
ENDCHAR
STARTCHAR 04F7
ENCODING 1271
SWIDTH 589 0
DWIDTH 9 0
BBX 6 11 2 -2
BITMAP
FC
FC
C0
C0
C0
C0
C0
F0
F0
30
30
ENDCHAR
STARTCHAR 04F8
ENCODING 1272
SWIDTH 589 0
DWIDTH 9 0
BBX 9 14 0 0
BITMAP
1600
1600
C180
C180
C180
C180
C180
F980
FD80
CD80
CD80
CD80
FD80
F980
ENDCHAR
STARTCHAR 04F9
ENCODING 1273
SWIDTH 589 0
DWIDTH 9 0
BBX 9 12 0 0
BITMAP
3600
3600
0000
C180
C180
C180
F180
FD80
CD80
CD80
FD80
F980
ENDCHAR
STARTCHAR 0510
ENCODING 1296
SWIDTH 589 0
DWIDTH 9 0
BBX 7 12 1 0
BITMAP
3E
7E
E2
C0
E0
78
78
C0
C0
C2
FE
7E
ENDCHAR
STARTCHAR 0511
ENCODING 1297
SWIDTH 589 0
DWIDTH 9 0
BBX 7 9 1 0
BITMAP
7C
FC
C0
78
78
C0
C0
FE
7E
ENDCHAR
STARTCHAR 051A
ENCODING 1306
SWIDTH 589 0
DWIDTH 9 0
BBX 8 14 1 -2
BITMAP
3C
7E
E6
C6
C6
C7
C7
C6
C6
E6
7E
3C
0E
07
ENDCHAR
STARTCHAR 051B
ENCODING 1307
SWIDTH 589 0
DWIDTH 9 0
BBX 7 12 1 -3
BITMAP
76
FE
CE
C6
C6
C6
CE
FE
76
06
06
06
ENDCHAR
STARTCHAR 051C
ENCODING 1308
SWIDTH 589 0
DWIDTH 9 0
BBX 9 12 0 0
BITMAP
C180
C180
C180
CD80
5D80
5D80
7580
7500
7700
7700
7300
7300
ENDCHAR
STARTCHAR 051D
ENCODING 1309
SWIDTH 589 0
DWIDTH 9 0
BBX 9 9 0 0
BITMAP
C180
C180
CD80
5D80
5D00
7500
7700
7700
7700
ENDCHAR
STARTCHAR 0531
ENCODING 1329
SWIDTH 589 0
DWIDTH 9 0
BBX 8 12 1 0
BITMAP
C6
C6
C6
C6
C6
C6
C6
C6
DE
DE
FF
7E
ENDCHAR
STARTCHAR 0532
ENCODING 1330
SWIDTH 589 0
DWIDTH 9 0
BBX 7 12 1 0
BITMAP
7C
FE
EE
C6
C6
C0
C0
FE
FE
C0
C0
C0
ENDCHAR
STARTCHAR 0533
ENCODING 1331
SWIDTH 589 0
DWIDTH 9 0
BBX 9 12 0 0
BITMAP
3C00
7E00
E700
E300
C300
C300
E300
7F80
3F80
0300
0300
0300
ENDCHAR
STARTCHAR 0534
ENCODING 1332
SWIDTH 589 0
DWIDTH 9 0
BBX 9 12 0 0
BITMAP
3C00
7E00
E700
C300
C300
0300
0300
0380
0380
0300
0300
0300
ENDCHAR
STARTCHAR 0535
ENCODING 1333
SWIDTH 589 0
DWIDTH 9 0
BBX 8 12 1 0
BITMAP
C0
C0
C0
FF
FF
C0
C0
C6
C6
C6
FE
7C
ENDCHAR
STARTCHAR 0536
ENCODING 1334
SWIDTH 589 0
DWIDTH 9 0
BBX 8 12 1 0
BITMAP
7C
FE
C6
C7
C7
07
06
06
0C
D8
FE
FE
ENDCHAR
STARTCHAR 0537
ENCODING 1335
SWIDTH 589 0
DWIDTH 9 0
BBX 7 12 1 0
BITMAP
C0
C0
C0
FE
FE
C0
C0
C0
C0
C0
FC
FC
ENDCHAR
STARTCHAR 0538
ENCODING 1336
SWIDTH 589 0
DWIDTH 9 0
BBX 7 12 1 0
BITMAP
7C
FE
C6
C6
C6
C0
C0
C0
C0
C0
FE
FE
ENDCHAR
STARTCHAR 0539
ENCODING 1337
SWIDTH 589 0
DWIDTH 9 0
BBX 9 12 0 0
BITMAP
3E00
7F00
6300
C300
C300
CF80
DF80
DB00
DB00
DB00
DF00
CE00
ENDCHAR
STARTCHAR 053A
ENCODING 1338
SWIDTH 589 0
DWIDTH 9 0
BBX 9 12 0 0
BITMAP
0300
0300
0300
3F80
7F80
E300
C300
C300
E300
E700
7E00
3C00
ENDCHAR
STARTCHAR 053B
ENCODING 1339
SWIDTH 589 0
DWIDTH 9 0
BBX 7 12 1 0
BITMAP
C0
C0
C0
FC
FE
C6
C6
C6
C0
C0
C0
C0
ENDCHAR
STARTCHAR 053C
ENCODING 1340
SWIDTH 589 0
DWIDTH 9 0
BBX 7 12 1 0
BITMAP
C0
C0
C0
C0
C0
C0
C0
C0
C0
C0
FE
FE
ENDCHAR
STARTCHAR 053D
ENCODING 1341
SWIDTH 589 0
DWIDTH 9 0
BBX 8 12 1 0
BITMAP
80
80
80
F3
F3
B3
B3
B3
B3
B3
9E
9E
ENDCHAR
STARTCHAR 053E
ENCODING 1342
SWIDTH 589 0
DWIDTH 9 0
BBX 9 12 0 0
BITMAP
CF80
DF80
FC80
FF00
6300
6380
6180
6180
6180
6380
7F00
1E00
ENDCHAR
STARTCHAR 053F
ENCODING 1343
SWIDTH 589 0
DWIDTH 9 0
BBX 7 12 1 0
BITMAP
C0
C0
C0
C6
C6
C6
C6
FE
7E
06
06
06
ENDCHAR
STARTCHAR 0540
ENCODING 1344
SWIDTH 589 0
DWIDTH 9 0
BBX 9 12 0 0
BITMAP
0E00
0700
0300
0F80
1E00
3800
7000
E000
7800
3F00
0F80
0180
ENDCHAR
STARTCHAR 0541
ENCODING 1345
SWIDTH 589 0
DWIDTH 9 0
BBX 8 12 1 0
BITMAP
7C
FE
C6
C6
C7
07
06
76
FE
CE
FE
77
ENDCHAR
STARTCHAR 0542
ENCODING 1346
SWIDTH 589 0
DWIDTH 9 0
BBX 9 12 0 0
BITMAP
3C00
7E00
E700
C300
C300
0300
0300
0300
0300
0300
0380
0380
ENDCHAR
STARTCHAR 0543
ENCODING 1347
SWIDTH 589 0
DWIDTH 9 0
BBX 8 12 1 0
BITMAP
C3
EF
7C
38
38
78
7C
CC
CE
C6
FF
FF
ENDCHAR
STARTCHAR 0544
ENCODING 1348
SWIDTH 589 0
DWIDTH 9 0
BBX 9 12 0 0
BITMAP
C380
C380
C300
C300
C300
C300
C300
C300
C300
E700
7E00
3C00
ENDCHAR
STARTCHAR 0545
ENCODING 1349
SWIDTH 589 0
DWIDTH 9 0
BBX 9 12 0 0
BITMAP
1E00
3F00
7300
7300
0300
FF00
FF00
0380
0180
6380
3F00
1E00
ENDCHAR
STARTCHAR 0546
ENCODING 1350
SWIDTH 589 0
DWIDTH 9 0
BBX 9 12 0 0
BITMAP
F000
F000
7000
7000
7000
7000
7000
7180
7180
3380
3F00
1E00
ENDCHAR
STARTCHAR 0547
ENCODING 1351
SWIDTH 589 0
DWIDTH 9 0
BBX 8 12 1 0
BITMAP
F0
FC
3E
66
C2
C0
C0
C7
C7
C6
FE
3C
ENDCHAR
STARTCHAR 0548
ENCODING 1352
SWIDTH 589 0
DWIDTH 9 0
BBX 7 12 1 0
BITMAP
7C
FE
C6
C6
C6
C6
C6
C6
C6
C6
C6
C6
ENDCHAR
STARTCHAR 0549
ENCODING 1353
SWIDTH 589 0
DWIDTH 9 0
BBX 8 12 1 0
BITMAP
7C
FE
C6
C7
C7
07
06
86
FC
FC
3C
04
ENDCHAR
STARTCHAR 054A
ENCODING 1354
SWIDTH 589 0
DWIDTH 9 0
BBX 9 12 0 0
BITMAP
3E00
7F00
6D80
CD80
CD80
0D80
0D80
0D80
0180
0180
0180
0180
ENDCHAR
STARTCHAR 054B
ENCODING 1355
SWIDTH 589 0
DWIDTH 9 0
BBX 8 12 1 0
BITMAP
3C
FE
C6
C7
C7
F7
FE
1E
0E
DC
FE
FE
ENDCHAR
STARTCHAR 054C
ENCODING 1356
SWIDTH 589 0
DWIDTH 9 0
BBX 9 12 0 0
BITMAP
3C00
7E00
E700
C300
C300
C300
C300
C380
C380
C300
C300
C300
ENDCHAR
STARTCHAR 054D
ENCODING 1357
SWIDTH 589 0
DWIDTH 9 0
BBX 7 12 1 0
BITMAP
C6
C6
C6
C6
C6
C6
C6
C6
C6
C6
FE
7C
ENDCHAR
STARTCHAR 054E
ENCODING 1358
SWIDTH 589 0
DWIDTH 9 0
BBX 9 12 0 0
BITMAP
0300
0300
0300
0300
C300
C300
E700
7F00
3F00
0300
0380
0380
ENDCHAR
STARTCHAR 054F
ENCODING 1359
SWIDTH 589 0
DWIDTH 9 0
BBX 7 12 1 0
BITMAP
3C
7E
C6
C0
F0
7C
3E
06
C6
C6
FE
3C
ENDCHAR
STARTCHAR 0550
ENCODING 1360
SWIDTH 589 0
DWIDTH 9 0
BBX 7 12 1 0
BITMAP
7C
FE
C6
C6
C6
C0
C0
C0
C0
C0
C0
C0
ENDCHAR
STARTCHAR 0551
ENCODING 1361
SWIDTH 589 0
DWIDTH 9 0
BBX 9 12 0 0
BITMAP
1E00
3F00
7300
7300
3300
FF00
FF00
0380
0180
7380
3F00
1E00
ENDCHAR
STARTCHAR 0552
ENCODING 1362
SWIDTH 589 0
DWIDTH 9 0
BBX 7 12 1 0
BITMAP
C0
C0
C0
FE
FE
C0
C0
C0
C0
C0
C0
C0
ENDCHAR
STARTCHAR 0553
ENCODING 1363
SWIDTH 589 0
DWIDTH 9 0
BBX 9 12 0 0
BITMAP
0C00
3E00
7F00
CD80
CD80
CD80
CD80
CD80
CD80
7F00
3E00
0C00
ENDCHAR
STARTCHAR 0554
ENCODING 1364
SWIDTH 589 0
DWIDTH 9 0
BBX 9 12 0 0
BITMAP
1E00
3F00
3380
7180
7380
7F80
7F00
7400
7000
FF80
FF80
7000
ENDCHAR
STARTCHAR 0555
ENCODING 1365
SWIDTH 589 0
DWIDTH 9 0
BBX 8 12 1 0
BITMAP
3C
7E
E6
C6
C6
C7
C7
C6
C6
E6
7E
3C
ENDCHAR
STARTCHAR 0556
ENCODING 1366
SWIDTH 589 0
DWIDTH 9 0
BBX 9 12 0 0
BITMAP
3C00
7C00
6C00
7F00
3F00
0D80
0D80
0D80
CD80
CD80
7F00
3E00
ENDCHAR
STARTCHAR 0559
ENCODING 1369
SWIDTH 589 0
DWIDTH 9 0
BBX 2 4 4 8
BITMAP
C0
80
80
C0
ENDCHAR
STARTCHAR 055A
ENCODING 1370
SWIDTH 589 0
DWIDTH 9 0
BBX 3 5 3 7
BITMAP
60
60
60
C0
C0
ENDCHAR
STARTCHAR 055B
ENCODING 1371
SWIDTH 589 0
DWIDTH 9 0
BBX 5 3 2 10
BITMAP
38
70
E0
ENDCHAR
STARTCHAR 055C
ENCODING 1372
SWIDTH 589 0
DWIDTH 9 0
BBX 7 5 1 10
BITMAP
06
0E
7E
F8
C0
ENDCHAR
STARTCHAR 055D
ENCODING 1373
SWIDTH 589 0
DWIDTH 9 0
BBX 5 3 2 10
BITMAP
E0
70
38
ENDCHAR
STARTCHAR 055E
ENCODING 1374
SWIDTH 589 0
DWIDTH 9 0
BBX 8 5 1 9
BITMAP
3C
7E
C3
9F
0E
ENDCHAR
STARTCHAR 055F
ENCODING 1375
SWIDTH 589 0
DWIDTH 9 0
BBX 7 3 1 10
BITMAP
80
80
FE
ENDCHAR
STARTCHAR 0561
ENCODING 1377
SWIDTH 589 0
DWIDTH 9 0
BBX 8 9 1 0
BITMAP
93
93
93
93
93
93
9B
FF
FF
ENDCHAR
STARTCHAR 0562
ENCODING 1378
SWIDTH 589 0
DWIDTH 9 0
BBX 7 12 1 -3
BITMAP
DC
FE
E6
C6
C6
C0
C0
FE
FE
C0
C0
C0
ENDCHAR
STARTCHAR 0563
ENCODING 1379
SWIDTH 589 0
DWIDTH 9 0
BBX 9 12 0 -3
BITMAP
3B00
7F00
6700
6300
E300
6300
6700
7F80
3B80
0300
0300
0300
ENDCHAR
STARTCHAR 0564
ENCODING 1380
SWIDTH 589 0
DWIDTH 9 0
BBX 7 12 1 -3
BITMAP
DC
FC
CC
CC
CC
CC
CC
CE
CE
0C
0C
0C
ENDCHAR
STARTCHAR 0565
ENCODING 1381
SWIDTH 589 0
DWIDTH 9 0
BBX 7 12 1 0
BITMAP
C0
C0
C0
FE
FE
C0
C6
C6
C6
CE
FE
76
ENDCHAR
STARTCHAR 0566
ENCODING 1382
SWIDTH 589 0
DWIDTH 9 0
BBX 9 12 0 -3
BITMAP
3B00
7F00
6700
6300
E300
6300
6700
7F00
3B00
0300
0380
0380
ENDCHAR
STARTCHAR 0567
ENCODING 1383
SWIDTH 589 0
DWIDTH 9 0
BBX 7 12 1 0
BITMAP
E0
E0
E0
FE
FE
E0
E0
E0
E0
E0
FC
FC
ENDCHAR
STARTCHAR 0568
ENCODING 1384
SWIDTH 589 0
DWIDTH 9 0
BBX 7 12 1 -3
BITMAP
DC
FE
C6
C6
C6
C6
C6
C6
C6
C0
FE
FE
ENDCHAR
STARTCHAR 0569
ENCODING 1385
SWIDTH 589 0
DWIDTH 9 0
BBX 9 12 0 -3
BITMAP
FE00
FF00
E300
E300
EF80
F300
F300
FB00
EE00
E000
E000
E000
ENDCHAR
STARTCHAR 056A
ENCODING 1386
SWIDTH 589 0
DWIDTH 9 0
BBX 9 12 0 0
BITMAP
0300
0300
0300
3F80
7F80
6300
6300
E300
6300
6700
7E00
3C00
ENDCHAR
STARTCHAR 056B
ENCODING 1387
SWIDTH 589 0
DWIDTH 9 0
BBX 7 15 1 -3
BITMAP
C0
C0
C0
DC
FE
E6
C6
C6
C6
C6
C6
C6
C0
C0
C0
ENDCHAR
STARTCHAR 056C
ENCODING 1388
SWIDTH 589 0
DWIDTH 9 0
BBX 5 12 2 -3
BITMAP
E0
E0
E0
E0
E0
E0
E0
E0
E0
E0
F8
F8
ENDCHAR
STARTCHAR 056D
ENCODING 1389
SWIDTH 589 0
DWIDTH 9 0
BBX 8 15 1 -3
BITMAP
80
80
80
B3
F3
93
93
93
93
9B
9F
9F
80
80
80
ENDCHAR
STARTCHAR 056E
ENCODING 1390
SWIDTH 589 0
DWIDTH 9 0
BBX 7 12 1 0
BITMAP
30
60
F0
3E
7E
C6
C6
C6
C6
C6
7E
3C
ENDCHAR
STARTCHAR 056F
ENCODING 1391
SWIDTH 589 0
DWIDTH 9 0
BBX 7 15 1 -3
BITMAP
C0
C0
C0
C6
C6
C6
C6
C6
C6
E6
FE
76
06
06
06
ENDCHAR
STARTCHAR 0570
ENCODING 1392
SWIDTH 589 0
DWIDTH 9 0
BBX 7 12 1 0
BITMAP
C0
C0
C0
DC
FE
E6
C6
C6
C6
C6
C6
C6
ENDCHAR
STARTCHAR 0571
ENCODING 1393
SWIDTH 589 0
DWIDTH 9 0
BBX 7 12 1 0
BITMAP
70
68
78
38
3C
66
66
C6
C6
E6
FE
76
ENDCHAR
STARTCHAR 0572
ENCODING 1394
SWIDTH 589 0
DWIDTH 9 0
BBX 7 12 1 -3
BITMAP
DC
FC
CC
CC
CC
CC
CC
CC
CC
0C
0E
0E
ENDCHAR
STARTCHAR 0573
ENCODING 1395
SWIDTH 589 0
DWIDTH 9 0
BBX 7 12 1 0
BITMAP
0E
1E
30
F8
FC
6E
E6
C6
C6
E6
7E
76
ENDCHAR
STARTCHAR 0574
ENCODING 1396
SWIDTH 589 0
DWIDTH 9 0
BBX 8 12 1 0
BITMAP
07
07
06
C6
C6
C6
C6
C6
C6
E6
FE
76
ENDCHAR
STARTCHAR 0575
ENCODING 1397
SWIDTH 589 0
DWIDTH 9 0
BBX 5 12 2 -3
BITMAP
18
18
18
18
18
18
18
18
18
18
F8
F0
ENDCHAR
STARTCHAR 0576
ENCODING 1398
SWIDTH 589 0
DWIDTH 9 0
BBX 7 12 1 0
BITMAP
E0
E0
60
66
66
66
66
66
66
66
7E
3E
ENDCHAR
STARTCHAR 0577
ENCODING 1399
SWIDTH 589 0
DWIDTH 9 0
BBX 7 12 1 -3
BITMAP
3C
FE
46
06
06
0C
18
30
60
E0
FE
7E
ENDCHAR
STARTCHAR 0578
ENCODING 1400
SWIDTH 589 0
DWIDTH 9 0
BBX 7 9 1 0
BITMAP
DC
FE
E6
C6
C6
C6
C6
C6
C6
ENDCHAR
STARTCHAR 0579
ENCODING 1401
SWIDTH 589 0
DWIDTH 9 0
BBX 6 13 2 -3
BITMAP
20
70
60
E0
78
38
30
60
E0
C0
C0
FC
FC
ENDCHAR
STARTCHAR 057A
ENCODING 1402
SWIDTH 589 0
DWIDTH 9 0
BBX 8 12 1 -3
BITMAP
93
93
93
93
93
93
9B
FF
FF
03
03
03
ENDCHAR
STARTCHAR 057B
ENCODING 1403
SWIDTH 589 0
DWIDTH 9 0
BBX 7 12 1 -3
BITMAP
3C
7E
C6
C6
E6
6C
3C
38
70
60
FE
7E
ENDCHAR
STARTCHAR 057C
ENCODING 1404
SWIDTH 589 0
DWIDTH 9 0
BBX 7 9 1 0
BITMAP
DC
FC
CE
C6
C6
C4
CC
CE
DE
ENDCHAR
STARTCHAR 057D
ENCODING 1405
SWIDTH 589 0
DWIDTH 9 0
BBX 7 9 1 0
BITMAP
C6
C6
C6
C6
C6
C6
E6
FE
76
ENDCHAR
STARTCHAR 057E
ENCODING 1406
SWIDTH 589 0
DWIDTH 9 0
BBX 7 15 1 -3
BITMAP
0C
0C
0C
CC
CC
CC
CC
CC
CC
CC
FC
7C
0C
0E
0E
ENDCHAR
STARTCHAR 057F
ENCODING 1407
SWIDTH 589 0
DWIDTH 9 0
BBX 8 9 1 0
BITMAP
96
9E
9B
93
93
93
93
F3
F3
ENDCHAR
STARTCHAR 0580
ENCODING 1408
SWIDTH 589 0
DWIDTH 9 0
BBX 7 12 1 -3
BITMAP
DC
FE
E6
C6
C6
C6
C6
C6
C6
C0
C0
C0
ENDCHAR
STARTCHAR 0581
ENCODING 1409
SWIDTH 589 0
DWIDTH 9 0
BBX 7 12 1 -3
BITMAP
76
7E
E6
C6
C6
C6
C6
7E
7E
06
7E
7C
ENDCHAR
STARTCHAR 0582
ENCODING 1410
SWIDTH 589 0
DWIDTH 9 0
BBX 7 9 1 0
BITMAP
E0
E0
E0
E0
E0
E0
E0
FE
FE
ENDCHAR
STARTCHAR 0583
ENCODING 1411
SWIDTH 589 0
DWIDTH 9 0
BBX 8 15 1 -3
BITMAP
10
10
10
96
9E
9B
93
93
93
93
F3
D3
10
10
10
ENDCHAR
STARTCHAR 0584
ENCODING 1412
SWIDTH 589 0
DWIDTH 9 0
BBX 9 12 0 -3
BITMAP
6E00
7F00
7300
7380
6180
7380
7300
7F00
6E00
6000
FF00
FF00
ENDCHAR
STARTCHAR 0585
ENCODING 1413
SWIDTH 589 0
DWIDTH 9 0
BBX 7 9 1 0
BITMAP
3C
7E
C6
C6
C6
C6
C6
7E
3C
ENDCHAR
STARTCHAR 0586
ENCODING 1414
SWIDTH 589 0
DWIDTH 9 0
BBX 9 15 0 -3
BITMAP
3C00
7C00
6C00
7E00
3F00
0F80
0D80
0D80
0D80
4D80
FF00
3E00
0C00
0C00
0C00
ENDCHAR
STARTCHAR 0587
ENCODING 1415
SWIDTH 589 0
DWIDTH 9 0
BBX 9 12 0 0
BITMAP
E000
E000
E000
E600
E600
E600
E600
E600
E600
E600
7F80
7780
ENDCHAR
STARTCHAR 0589
ENCODING 1417
SWIDTH 589 0
DWIDTH 9 0
BBX 3 8 3 0
BITMAP
E0
E0
E0
00
00
E0
E0
E0
ENDCHAR
STARTCHAR 058A
ENCODING 1418
SWIDTH 589 0
DWIDTH 9 0
BBX 5 2 2 2
BITMAP
F8
F8
ENDCHAR
STARTCHAR 0E3F
ENCODING 3647
SWIDTH 589 0
DWIDTH 9 0
BBX 8 14 1 -2
BITMAP
10
FC
FE
D6
D6
FC
FC
D6
D6
D7
FE
FC
10
10
ENDCHAR
STARTCHAR 10D0
ENCODING 4304
SWIDTH 589 0
DWIDTH 9 0
BBX 7 9 1 0
BITMAP
30
30
3C
0E
C6
C6
C6
FE
7C
ENDCHAR
STARTCHAR 10D1
ENCODING 4305
SWIDTH 589 0
DWIDTH 9 0
BBX 7 11 1 0
BITMAP
E0
70
18
18
7C
C6
C6
C6
C6
FE
7C
ENDCHAR
STARTCHAR 10D2
ENCODING 4306
SWIDTH 589 0
DWIDTH 9 0
BBX 8 11 1 -3
BITMAP
78
FC
CC
8C
7C
EE
C6
C7
C6
FE
7C
ENDCHAR
STARTCHAR 10D3
ENCODING 4307
SWIDTH 589 0
DWIDTH 9 0
BBX 9 11 0 -3
BITMAP
7F00
7F80
D980
D980
D980
C980
4F80
6700
3000
7C00
2600
ENDCHAR
STARTCHAR 10D4
ENCODING 4308
SWIDTH 589 0
DWIDTH 9 0
BBX 7 11 1 -3
BITMAP
3C
7E
C6
C6
66
06
C6
C6
C6
FE
7C
ENDCHAR
STARTCHAR 10D5
ENCODING 4309
SWIDTH 589 0
DWIDTH 9 0
BBX 7 11 1 -3
BITMAP
7C
FE
C6
C6
1E
1E
C6
C6
C6
FE
7C
ENDCHAR
STARTCHAR 10D6
ENCODING 4310
SWIDTH 589 0
DWIDTH 9 0
BBX 7 11 1 0
BITMAP
78
FC
CC
F8
7E
C6
C6
C6
C6
FE
7C
ENDCHAR
STARTCHAR 10D7
ENCODING 4311
SWIDTH 589 0
DWIDTH 9 0
BBX 9 8 0 0
BITMAP
7F00
7F80
CD80
CD80
CD80
C980
7900
7B00
ENDCHAR
STARTCHAR 10D8
ENCODING 4312
SWIDTH 589 0
DWIDTH 9 0
BBX 7 8 1 0
BITMAP
7C
FE
C6
C6
C6
C6
C6
6C
ENDCHAR
STARTCHAR 10D9
ENCODING 4313
SWIDTH 589 0
DWIDTH 9 0
BBX 7 11 1 -3
BITMAP
38
3E
06
06
1E
1C
C6
C6
C6
FE
7C
ENDCHAR
STARTCHAR 10DA
ENCODING 4314
SWIDTH 589 0
DWIDTH 9 0
BBX 7 11 1 -3
BITMAP
7C
FE
C6
C6
C6
C6
E6
60
F8
5C
0E
ENDCHAR
STARTCHAR 10DB
ENCODING 4315
SWIDTH 589 0
DWIDTH 9 0
BBX 7 11 1 0
BITMAP
7C
FE
C6
7E
FE
C6
C6
C6
C6
FE
7C
ENDCHAR
STARTCHAR 10DC
ENCODING 4316
SWIDTH 589 0
DWIDTH 9 0
BBX 7 11 1 0
BITMAP
7E
FE
C0
FC
FE
C6
C6
C6
C6
FE
7C
ENDCHAR
STARTCHAR 10DD
ENCODING 4317
SWIDTH 589 0
DWIDTH 9 0
BBX 9 8 0 0
BITMAP
7F00
7F80
C980
C980
C980
C180
6180
7300
ENDCHAR
STARTCHAR 10DE
ENCODING 4318
SWIDTH 589 0
DWIDTH 9 0
BBX 7 11 1 0
BITMAP
60
7C
06
06
1C
1E
C6
C6
C6
FE
7C
ENDCHAR
STARTCHAR 10DF
ENCODING 4319
SWIDTH 589 0
DWIDTH 9 0
BBX 7 11 1 -3
BITMAP
7E
F6
76
36
36
F6
86
06
C6
FE
7C
ENDCHAR
STARTCHAR 10E0
ENCODING 4320
SWIDTH 589 0
DWIDTH 9 0
BBX 9 12 0 0
BITMAP
0200
1E00
3800
7000
7F00
7F80
CD80
CD80
CD80
C180
6180
7300
ENDCHAR
STARTCHAR 10E1
ENCODING 4321
SWIDTH 589 0
DWIDTH 9 0
BBX 7 11 1 0
BITMAP
C0
C0
CC
D8
D8
CE
C6
C6
C6
FE
7C
ENDCHAR
STARTCHAR 10E2
ENCODING 4322
SWIDTH 589 0
DWIDTH 9 0
BBX 9 13 0 -3
BITMAP
0800
0800
0800
3E00
6B00
E980
C980
C980
C180
E180
6380
7F00
3E00
ENDCHAR
STARTCHAR 10E3
ENCODING 4323
SWIDTH 589 0
DWIDTH 9 0
BBX 8 11 0 -3
BITMAP
B6
FF
4B
0B
0B
23
63
63
63
7F
1E
ENDCHAR
STARTCHAR 10E4
ENCODING 4324
SWIDTH 589 0
DWIDTH 9 0
BBX 9 11 0 -3
BITMAP
7F00
7F80
CD80
CD80
CD80
CF00
7B80
3180
6180
3F80
1F00
ENDCHAR
STARTCHAR 10E5
ENCODING 4325
SWIDTH 589 0
DWIDTH 9 0
BBX 7 14 1 -3
BITMAP
06
06
06
7E
7E
C6
E6
06
06
C6
C6
C6
FE
7C
ENDCHAR
STARTCHAR 10E6
ENCODING 4326
SWIDTH 589 0
DWIDTH 9 0
BBX 9 11 0 -3
BITMAP
7F00
7F80
C980
C980
C980
C180
6300
7000
3C00
7E00
0700
ENDCHAR
STARTCHAR 10E7
ENCODING 4327
SWIDTH 589 0
DWIDTH 9 0
BBX 7 11 1 -3
BITMAP
76
E6
C6
C6
C6
FE
7E
06
C6
FE
7C
ENDCHAR
STARTCHAR 10E8
ENCODING 4328
SWIDTH 589 0
DWIDTH 9 0
BBX 9 11 0 0
BITMAP
7700
FF00
DB80
1B80
7F80
6380
6380
6380
6300
7F00
1E00
ENDCHAR
STARTCHAR 10E9
ENCODING 4329
SWIDTH 589 0
DWIDTH 9 0
BBX 7 11 1 0
BITMAP
78
FC
CC
FC
FE
C6
C6
C6
C6
CE
DC
ENDCHAR
STARTCHAR 10EA
ENCODING 4330
SWIDTH 589 0
DWIDTH 9 0
BBX 9 11 0 -3
BITMAP
3E00
6700
6380
6300
EF00
EF00
E180
6180
6380
7F00
3E00
ENDCHAR
STARTCHAR 10EB
ENCODING 4331
SWIDTH 589 0
DWIDTH 9 0
BBX 7 11 1 0
BITMAP
06
06
06
7E
FE
C6
C6
C6
C6
FE
7C
ENDCHAR
STARTCHAR 10EC
ENCODING 4332
SWIDTH 589 0
DWIDTH 9 0
BBX 8 11 1 0
BITMAP
F7
FF
CB
D8
FE
C6
C6
C6
C6
FE
7C
ENDCHAR
STARTCHAR 10ED
ENCODING 4333
SWIDTH 589 0
DWIDTH 9 0
BBX 7 14 1 -3
BITMAP
18
18
18
78
FE
CE
F8
78
1C
8E
C6
C6
FE
7C
ENDCHAR
STARTCHAR 10EE
ENCODING 4334
SWIDTH 589 0
DWIDTH 9 0
BBX 7 11 1 0
BITMAP
C0
C0
C0
FC
FE
C6
C6
C6
C6
FE
7C
ENDCHAR
STARTCHAR 10EF
ENCODING 4335
SWIDTH 589 0
DWIDTH 9 0
BBX 7 13 1 -3
BITMAP
18
10
90
FC
1E
12
18
9E
C6
C6
C6
FE
7C
ENDCHAR
STARTCHAR 10F0
ENCODING 4336
SWIDTH 589 0
DWIDTH 9 0
BBX 7 11 1 0
BITMAP
70
3E
06
1E
1E
1E
1E
C6
C6
FE
7C
ENDCHAR
STARTCHAR 10F1
ENCODING 4337
SWIDTH 589 0
DWIDTH 9 0
BBX 7 14 1 -3
BITMAP
18
0E
06
DE
DE
C6
DE
DE
C6
DE
DE
C6
FE
7C
ENDCHAR
STARTCHAR 10F2
ENCODING 4338
SWIDTH 589 0
DWIDTH 9 0
BBX 7 10 1 -2
BITMAP
7C
FE
C6
C6
C6
C6
7C
7C
EE
82
ENDCHAR
STARTCHAR 10F3
ENCODING 4339
SWIDTH 589 0
DWIDTH 9 0
BBX 7 11 1 -3
BITMAP
FE
FE
C6
0E
3C
3E
06
C6
C6
FE
38
ENDCHAR
STARTCHAR 10F4
ENCODING 4340
SWIDTH 589 0
DWIDTH 9 0
BBX 7 14 1 -3
BITMAP
70
F0
C2
FE
7E
06
06
3C
3C
06
06
C6
FE
7C
ENDCHAR
STARTCHAR 10F5
ENCODING 4341
SWIDTH 589 0
DWIDTH 9 0
BBX 8 11 1 0
BITMAP
7C
FE
C6
FF
3F
3F
FF
C6
C6
FE
7C
ENDCHAR
STARTCHAR 10F6
ENCODING 4342
SWIDTH 589 0
DWIDTH 9 0
BBX 9 11 0 -3
BITMAP
7700
FF80
C980
C980
C980
C980
EF80
6F00
0C00
3800
3800
ENDCHAR
STARTCHAR 10F7
ENCODING 4343
SWIDTH 589 0
DWIDTH 9 0
BBX 8 11 1 -3
BITMAP
38
7C
4C
1C
78
E2
C6
C7
C7
FE
7C
ENDCHAR
STARTCHAR 10F8
ENCODING 4344
SWIDTH 589 0
DWIDTH 9 0
BBX 7 11 1 -3
BITMAP
DC
C6
C6
C6
C6
FE
FC
C6
C6
FE
7C
ENDCHAR
STARTCHAR 10F9
ENCODING 4345
SWIDTH 589 0
DWIDTH 9 0
BBX 8 11 1 -3
BITMAP
3C
FE
C6
C7
C6
FE
3C
70
66
7E
3C
ENDCHAR
STARTCHAR 10FA
ENCODING 4346
SWIDTH 589 0
DWIDTH 9 0
BBX 7 9 1 -1
BITMAP
7C
FE
C6
C6
C6
EE
72
7C
C8
ENDCHAR
STARTCHAR 10FB
ENCODING 4347
SWIDTH 589 0
DWIDTH 9 0
BBX 5 7 2 0
BITMAP
C0
C0
18
18
00
C0
C0
ENDCHAR
STARTCHAR 10FC
ENCODING 4348
SWIDTH 589 0
DWIDTH 9 0
BBX 3 6 3 5
BITMAP
E0
C0
E0
A0
A0
E0
ENDCHAR
STARTCHAR 1E80
ENCODING 7808
SWIDTH 589 0
DWIDTH 9 0
BBX 9 14 0 0
BITMAP
3800
0400
C180
C180
C180
CD80
5D80
5D80
7580
7500
7700
7700
7300
7300
ENDCHAR
STARTCHAR 1E81
ENCODING 7809
SWIDTH 589 0
DWIDTH 9 0
BBX 9 13 0 0
BITMAP
7000
3000
1800
0000
C180
C180
CD80
5D80
5D00
7500
7700
7700
7700
ENDCHAR
STARTCHAR 1E82
ENCODING 7810
SWIDTH 589 0
DWIDTH 9 0
BBX 9 14 0 0
BITMAP
0E00
1000
C180
C180
C180
CD80
5D80
5D80
7580
7500
7700
7700
7300
7300
ENDCHAR
STARTCHAR 1E83
ENCODING 7811
SWIDTH 589 0
DWIDTH 9 0
BBX 9 13 0 0
BITMAP
0300
0600
0C00
0000
C180
C180
CD80
5D80
5D00
7500
7700
7700
7700
ENDCHAR
STARTCHAR 1E84
ENCODING 7812
SWIDTH 589 0
DWIDTH 9 0
BBX 9 14 0 0
BITMAP
3600
3600
C180
C180
C180
CD80
5D80
5D80
7580
7500
7700
7700
7300
7300
ENDCHAR
STARTCHAR 1E85
ENCODING 7813
SWIDTH 589 0
DWIDTH 9 0
BBX 9 12 0 0
BITMAP
3600
3600
0000
C180
C180
CD80
5D80
5D00
7500
7700
7700
7700
ENDCHAR
STARTCHAR 1EBC
ENCODING 7868
SWIDTH 589 0
DWIDTH 9 0
BBX 7 14 1 0
BITMAP
7C
00
FE
FE
C0
C0
C0
FE
FE
C0
C0
C0
FE
FE
ENDCHAR
STARTCHAR 1EBD
ENCODING 7869
SWIDTH 589 0
DWIDTH 9 0
BBX 8 12 1 0
BITMAP
74
4C
00
3C
FE
C6
FE
FF
C0
C2
FE
3E
ENDCHAR
STARTCHAR 1EF2
ENCODING 7922
SWIDTH 589 0
DWIDTH 9 0
BBX 9 14 0 0
BITMAP
3800
0400
E180
6300
7300
3600
3600
1E00
1C00
1C00
1C00
1C00
1C00
1C00
ENDCHAR
STARTCHAR 1EF3
ENCODING 7923
SWIDTH 589 0
DWIDTH 9 0
BBX 8 16 1 -3
BITMAP
E0
20
30
00
C7
C6
E6
6E
6C
3C
3C
38
18
30
F0
E0
ENDCHAR
STARTCHAR 1EF8
ENCODING 7928
SWIDTH 589 0
DWIDTH 9 0
BBX 9 14 0 0
BITMAP
3E00
0000
E180
6300
7300
3600
3600
1E00
1C00
1C00
1C00
1C00
1C00
1C00
ENDCHAR
STARTCHAR 1EF9
ENCODING 7929
SWIDTH 589 0
DWIDTH 9 0
BBX 8 15 1 -3
BITMAP
34
4C
00
C7
C6
E6
6E
6C
3C
3C
38
18
30
F0
E0
ENDCHAR
STARTCHAR 2000
ENCODING 8192
SWIDTH 589 0
DWIDTH 9 0
BBX 0 0 0 0
BITMAP
ENDCHAR
STARTCHAR 2001
ENCODING 8193
SWIDTH 589 0
DWIDTH 9 0
BBX 0 0 0 0
BITMAP
ENDCHAR
STARTCHAR 2002
ENCODING 8194
SWIDTH 589 0
DWIDTH 9 0
BBX 0 0 0 0
BITMAP
ENDCHAR
STARTCHAR 2003
ENCODING 8195
SWIDTH 589 0
DWIDTH 9 0
BBX 0 0 0 0
BITMAP
ENDCHAR
STARTCHAR 2004
ENCODING 8196
SWIDTH 589 0
DWIDTH 9 0
BBX 0 0 0 0
BITMAP
ENDCHAR
STARTCHAR 2005
ENCODING 8197
SWIDTH 589 0
DWIDTH 9 0
BBX 0 0 0 0
BITMAP
ENDCHAR
STARTCHAR 2006
ENCODING 8198
SWIDTH 589 0
DWIDTH 9 0
BBX 0 0 0 0
BITMAP
ENDCHAR
STARTCHAR 2007
ENCODING 8199
SWIDTH 589 0
DWIDTH 9 0
BBX 0 0 0 0
BITMAP
ENDCHAR
STARTCHAR 2008
ENCODING 8200
SWIDTH 589 0
DWIDTH 9 0
BBX 0 0 0 0
BITMAP
ENDCHAR
STARTCHAR 2009
ENCODING 8201
SWIDTH 589 0
DWIDTH 9 0
BBX 0 0 0 0
BITMAP
ENDCHAR
STARTCHAR 200A
ENCODING 8202
SWIDTH 589 0
DWIDTH 9 0
BBX 0 0 0 0
BITMAP
ENDCHAR
STARTCHAR 2010
ENCODING 8208
SWIDTH 589 0
DWIDTH 9 0
BBX 5 2 2 3
BITMAP
F8
F8
ENDCHAR
STARTCHAR 2011
ENCODING 8209
SWIDTH 589 0
DWIDTH 9 0
BBX 5 2 2 3
BITMAP
F8
F8
ENDCHAR
STARTCHAR 2012
ENCODING 8210
SWIDTH 589 0
DWIDTH 9 0
BBX 7 2 1 3
BITMAP
FE
FE
ENDCHAR
STARTCHAR 2013
ENCODING 8211
SWIDTH 589 0
DWIDTH 9 0
BBX 5 2 2 3
BITMAP
F8
F8
ENDCHAR
STARTCHAR 2014
ENCODING 8212
SWIDTH 589 0
DWIDTH 9 0
BBX 9 2 0 3
BITMAP
FF80
FF80
ENDCHAR
STARTCHAR 2015
ENCODING 8213
SWIDTH 589 0
DWIDTH 9 0
BBX 9 2 0 3
BITMAP
FF80
FF80
ENDCHAR
STARTCHAR 2016
ENCODING 8214
SWIDTH 589 0
DWIDTH 9 0
BBX 5 16 2 -4
BITMAP
C8
C8
C8
C8
C8
C8
C8
C8
C8
C8
C8
C8
C8
C8
C8
C8
ENDCHAR
STARTCHAR 2017
ENCODING 8215
SWIDTH 589 0
DWIDTH 9 0
BBX 9 4 0 -4
BITMAP
FF80
FF80
FF80
FF80
ENDCHAR
STARTCHAR 2018
ENCODING 8216
SWIDTH 589 0
DWIDTH 9 0
BBX 3 5 3 7
BITMAP
60
60
E0
E0
E0
ENDCHAR
STARTCHAR 2019
ENCODING 8217
SWIDTH 589 0
DWIDTH 9 0
BBX 3 5 3 7
BITMAP
60
60
60
60
C0
ENDCHAR
STARTCHAR 201A
ENCODING 8218
SWIDTH 589 0
DWIDTH 9 0
BBX 3 5 3 -2
BITMAP
E0
E0
E0
C0
C0
ENDCHAR
STARTCHAR 201B
ENCODING 8219
SWIDTH 589 0
DWIDTH 9 0
BBX 3 5 3 7
BITMAP
E0
E0
E0
60
60
ENDCHAR
STARTCHAR 201C
ENCODING 8220
SWIDTH 589 0
DWIDTH 9 0
BBX 7 5 1 7
BITMAP
66
66
EC
CC
CC
ENDCHAR
STARTCHAR 201D
ENCODING 8221
SWIDTH 589 0
DWIDTH 9 0
BBX 7 5 1 7
BITMAP
66
66
66
CC
CC
ENDCHAR
STARTCHAR 201E
ENCODING 8222
SWIDTH 589 0
DWIDTH 9 0
BBX 7 5 1 -2
BITMAP
66
66
66
CC
CC
ENDCHAR
STARTCHAR 201F
ENCODING 8223
SWIDTH 589 0
DWIDTH 9 0
BBX 7 5 1 7
BITMAP
CC
CC
EC
66
66
ENDCHAR
STARTCHAR 2020
ENCODING 8224
SWIDTH 589 0
DWIDTH 9 0
BBX 7 13 1 -1
BITMAP
18
18
18
FE
FE
18
18
18
18
18
18
18
18
ENDCHAR
STARTCHAR 2021
ENCODING 8225
SWIDTH 589 0
DWIDTH 9 0
BBX 7 13 1 -1
BITMAP
18
18
18
FE
FE
18
18
18
FE
FE
18
18
18
ENDCHAR
STARTCHAR 2022
ENCODING 8226
SWIDTH 589 0
DWIDTH 9 0
BBX 5 6 2 3
BITMAP
70
F8
F8
F8
F8
70
ENDCHAR
STARTCHAR 2023
ENCODING 8227
SWIDTH 589 0
DWIDTH 9 0
BBX 6 7 2 2
BITMAP
80
E0
F0
FC
F0
C0
80
ENDCHAR
STARTCHAR 2024
ENCODING 8228
SWIDTH 589 0
DWIDTH 9 0
BBX 2 3 4 0
BITMAP
C0
C0
C0
ENDCHAR
STARTCHAR 2025
ENCODING 8229
SWIDTH 589 0
DWIDTH 9 0
BBX 5 3 2 0
BITMAP
D8
D8
D8
ENDCHAR
STARTCHAR 2026
ENCODING 8230
SWIDTH 589 0
DWIDTH 9 0
BBX 9 3 0 0
BITMAP
FD80
FD80
FD80
ENDCHAR
STARTCHAR 2027
ENCODING 8231
SWIDTH 589 0
DWIDTH 9 0
BBX 3 3 3 5
BITMAP
40
E0
60
ENDCHAR
STARTCHAR 202F
ENCODING 8239
SWIDTH 589 0
DWIDTH 9 0
BBX 0 0 0 0
BITMAP
ENDCHAR
STARTCHAR 2030
ENCODING 8240
SWIDTH 589 0
DWIDTH 9 0
BBX 9 12 0 0
BITMAP
6000
F000
9000
9000
F700
7800
E000
7300
7780
DC80
F780
7300
ENDCHAR
STARTCHAR 2031
ENCODING 8241
SWIDTH 589 0
DWIDTH 9 0
BBX 9 12 0 0
BITMAP
6000
F000
9000
9000
F700
7800
E000
6B00
FF80
9480
FF80
6F00
ENDCHAR
STARTCHAR 2032
ENCODING 8242
SWIDTH 589 0
DWIDTH 9 0
BBX 3 3 3 9
BITMAP
60
40
80
ENDCHAR
STARTCHAR 2033
ENCODING 8243
SWIDTH 589 0
DWIDTH 9 0
BBX 6 3 2 9
BITMAP
7C
D8
B0
ENDCHAR
STARTCHAR 2034
ENCODING 8244
SWIDTH 589 0
DWIDTH 9 0
BBX 9 3 0 9
BITMAP
6D80
4B00
D200
ENDCHAR
STARTCHAR 2035
ENCODING 8245
SWIDTH 589 0
DWIDTH 9 0
BBX 3 3 3 9
BITMAP
C0
60
20
ENDCHAR
STARTCHAR 2036
ENCODING 8246
SWIDTH 589 0
DWIDTH 9 0
BBX 6 3 2 9
BITMAP
F8
58
6C
ENDCHAR
STARTCHAR 2037
ENCODING 8247
SWIDTH 589 0
DWIDTH 9 0
BBX 9 3 0 9
BITMAP
DB00
6D00
2480
ENDCHAR
STARTCHAR 2039
ENCODING 8249
SWIDTH 589 0
DWIDTH 9 0
BBX 3 7 2 1
BITMAP
20
20
60
80
E0
20
20
ENDCHAR
STARTCHAR 203A
ENCODING 8250
SWIDTH 589 0
DWIDTH 9 0
BBX 3 7 4 1
BITMAP
80
80
60
20
60
C0
80
ENDCHAR
STARTCHAR 203C
ENCODING 8252
SWIDTH 589 0
DWIDTH 9 0
BBX 7 12 1 0
BITMAP
C6
C6
C6
C6
C6
C6
C6
46
00
C6
E6
C6
ENDCHAR
STARTCHAR 203D
ENCODING 8253
SWIDTH 589 0
DWIDTH 9 0
BBX 6 12 2 0
BITMAP
78
FC
EC
6C
78
70
70
60
60
60
60
60
ENDCHAR
STARTCHAR 203E
ENCODING 8254
SWIDTH 589 0
DWIDTH 9 0
BBX 9 2 0 11
BITMAP
FF80
FF80
ENDCHAR
STARTCHAR 203F
ENCODING 8255
SWIDTH 589 0
DWIDTH 9 0
BBX 10 3 0 -4
BITMAP
8040
FFC0
3E00
ENDCHAR
STARTCHAR 2044
ENCODING 8260
SWIDTH 589 0
DWIDTH 9 0
BBX 7 13 1 -1
BITMAP
06
06
04
0C
08
18
10
30
30
60
60
40
C0
ENDCHAR
STARTCHAR 2045
ENCODING 8261
SWIDTH 589 0
DWIDTH 9 0
BBX 4 15 3 -3
BITMAP
F0
F0
C0
C0
C0
C0
C0
F0
F0
C0
C0
C0
C0
F0
F0
ENDCHAR
STARTCHAR 2046
ENCODING 8262
SWIDTH 589 0
DWIDTH 9 0
BBX 4 15 2 -3
BITMAP
F0
F0
30
30
30
30
30
F0
F0
30
30
30
30
F0
F0
ENDCHAR
STARTCHAR 2047
ENCODING 8263
SWIDTH 589 0
DWIDTH 9 0
BBX 9 12 0 0
BITMAP
7700
F780
B580
3180
3180
7300
6300
6300
6300
6200
6700
6300
ENDCHAR
STARTCHAR 2048
ENCODING 8264
SWIDTH 589 0
DWIDTH 9 0
BBX 8 12 0 0
BITMAP
73
F3
B3
33
33
73
63
63
60
63
63
63
ENDCHAR
STARTCHAR 2049
ENCODING 8265
SWIDTH 589 0
DWIDTH 9 0
BBX 8 12 1 0
BITMAP
CE
CF
CB
C3
C3
C6
C6
C6
06
C4
CE
C6
ENDCHAR
STARTCHAR 204B
ENCODING 8267
SWIDTH 589 0
DWIDTH 9 0
BBX 8 13 1 -1
BITMAP
FC
DE
DF
DF
DF
DE
D8
D8
D8
D8
D8
D8
D8
ENDCHAR
STARTCHAR 205F
ENCODING 8287
SWIDTH 589 0
DWIDTH 9 0
BBX 0 0 0 0
BITMAP
ENDCHAR
STARTCHAR 2070
ENCODING 8304
SWIDTH 589 0
DWIDTH 9 0
BBX 5 7 2 8
BITMAP
70
D8
C8
E8
C8
D8
70
ENDCHAR
STARTCHAR 2074
ENCODING 8308
SWIDTH 589 0
DWIDTH 9 0
BBX 5 7 2 8
BITMAP
30
30
50
50
90
F8
10
ENDCHAR
STARTCHAR 2075
ENCODING 8309
SWIDTH 589 0
DWIDTH 9 0
BBX 5 7 2 8
BITMAP
F8
C0
C0
F0
18
18
F0
ENDCHAR
STARTCHAR 2076
ENCODING 8310
SWIDTH 589 0
DWIDTH 9 0
BBX 5 7 2 8
BITMAP
78
48
C0
F8
C8
C8
78
ENDCHAR
STARTCHAR 2077
ENCODING 8311
SWIDTH 589 0
DWIDTH 9 0
BBX 5 7 2 8
BITMAP
F8
18
10
30
20
60
60
ENDCHAR
STARTCHAR 2078
ENCODING 8312
SWIDTH 589 0
DWIDTH 9 0
BBX 5 7 2 8
BITMAP
70
D8
D8
70
C8
C8
70
ENDCHAR
STARTCHAR 2079
ENCODING 8313
SWIDTH 589 0
DWIDTH 9 0
BBX 5 7 2 8
BITMAP
70
D8
98
D8
78
18
F0
ENDCHAR
STARTCHAR 207A
ENCODING 8314
SWIDTH 589 0
DWIDTH 9 0
BBX 5 5 2 5
BITMAP
20
20
F8
20
20
ENDCHAR
STARTCHAR 207B
ENCODING 8315
SWIDTH 589 0
DWIDTH 9 0
BBX 5 1 2 7
BITMAP
F8
ENDCHAR
STARTCHAR 207C
ENCODING 8316
SWIDTH 589 0
DWIDTH 9 0
BBX 5 3 2 6
BITMAP
F8
00
F8
ENDCHAR
STARTCHAR 207D
ENCODING 8317
SWIDTH 589 0
DWIDTH 9 0
BBX 3 8 3 4
BITMAP
60
40
40
C0
C0
40
40
60
ENDCHAR
STARTCHAR 207E
ENCODING 8318
SWIDTH 589 0
DWIDTH 9 0
BBX 3 8 3 4
BITMAP
C0
40
60
20
20
60
40
C0
ENDCHAR
STARTCHAR 208A
ENCODING 8330
SWIDTH 589 0
DWIDTH 9 0
BBX 5 5 2 0
BITMAP
20
20
F8
20
20
ENDCHAR
STARTCHAR 208B
ENCODING 8331
SWIDTH 589 0
DWIDTH 9 0
BBX 5 1 2 2
BITMAP
F8
ENDCHAR
STARTCHAR 208C
ENCODING 8332
SWIDTH 589 0
DWIDTH 9 0
BBX 5 3 2 1
BITMAP
F8
00
F8
ENDCHAR
STARTCHAR 208D
ENCODING 8333
SWIDTH 589 0
DWIDTH 9 0
BBX 3 8 3 -1
BITMAP
60
40
40
C0
C0
40
40
60
ENDCHAR
STARTCHAR 208E
ENCODING 8334
SWIDTH 589 0
DWIDTH 9 0
BBX 3 8 3 -1
BITMAP
C0
40
60
20
20
60
40
C0
ENDCHAR
STARTCHAR 20A0
ENCODING 8352
SWIDTH 589 0
DWIDTH 9 0
BBX 9 12 0 0
BITMAP
3800
7800
C800
C780
C780
C400
C780
CF80
7C00
3400
0780
0780
ENDCHAR
STARTCHAR 20A1
ENCODING 8353
SWIDTH 589 0
DWIDTH 9 0
BBX 7 13 1 -1
BITMAP
3E
7E
FE
EA
D4
D4
D4
D4
E8
EA
7E
3E
50
ENDCHAR
STARTCHAR 20A2
ENCODING 8354
SWIDTH 589 0
DWIDTH 9 0
BBX 7 12 1 0
BITMAP
3C
7E
E2
C0
DA
DE
D8
D8
D8
FA
7E
3C
ENDCHAR
STARTCHAR 20A3
ENCODING 8355
SWIDTH 589 0
DWIDTH 9 0
BBX 8 12 0 0
BITMAP
7F
7F
70
70
70
7F
7F
70
70
F8
70
70
ENDCHAR
STARTCHAR 20A4
ENCODING 8356
SWIDTH 589 0
DWIDTH 9 0
BBX 7 12 1 0
BITMAP
1E
3E
72
70
FC
FC
FC
FC
70
70
FE
FE
ENDCHAR
STARTCHAR 20A5
ENCODING 8357
SWIDTH 589 0
DWIDTH 9 0
BBX 9 11 0 -1
BITMAP
0200
DB00
FF80
CD80
CD80
C980
C980
C980
D980
D980
1000
ENDCHAR
STARTCHAR 20A6
ENCODING 8358
SWIDTH 589 0
DWIDTH 9 0
BBX 9 12 0 0
BITMAP
F380
F380
F380
FF80
FF80
EB80
EF80
FF80
FF80
E780
E780
E780
ENDCHAR
STARTCHAR 20A7
ENCODING 8359
SWIDTH 589 0
DWIDTH 9 0
BBX 9 12 0 0
BITMAP
E800
F800
B800
9F80
9F80
BA80
FB00
EB80
8880
8C80
8F80
8780
ENDCHAR
STARTCHAR 20A8
ENCODING 8360
SWIDTH 589 0
DWIDTH 9 0
BBX 9 12 0 0
BITMAP
F000
F800
D800
DB80
DF80
F400
F600
DF80
D980
D880
CF80
CF00
ENDCHAR
STARTCHAR 20A9
ENCODING 8361
SWIDTH 589 0
DWIDTH 9 0
BBX 9 12 0 0
BITMAP
C980
CD80
FF80
5D80
FF80
5500
5500
7500
7700
7700
7300
3300
ENDCHAR
STARTCHAR 20AA
ENCODING 8362
SWIDTH 589 0
DWIDTH 9 0
BBX 9 12 0 0
BITMAP
F980
FD80
C580
C580
D580
D580
D580
D580
D180
D980
DF80
CF80
ENDCHAR
STARTCHAR 20AB
ENCODING 8363
SWIDTH 589 0
DWIDTH 9 0
BBX 8 15 2 -3
BITMAP
1F
1F
06
76
FE
C6
C6
C6
C6
C6
FE
76
00
3C
3C
ENDCHAR
STARTCHAR 20AC
ENCODING 8364
SWIDTH 589 0
DWIDTH 9 0
BBX 8 12 0 0
BITMAP
0F
1F
31
30
7E
FE
7C
FC
30
31
1F
0F
ENDCHAR
STARTCHAR 20AD
ENCODING 8365
SWIDTH 589 0
DWIDTH 9 0
BBX 9 12 0 0
BITMAP
6380
6600
6E00
6C00
7800
FE00
7800
7C00
6E00
6600
6700
6380
ENDCHAR
STARTCHAR 20AE
ENCODING 8366
SWIDTH 589 0
DWIDTH 9 0
BBX 9 12 0 0
BITMAP
FF80
FF80
1C00
1C00
1E00
1C00
3E00
1C00
3C00
1C00
1C00
1C00
ENDCHAR
STARTCHAR 20AF
ENCODING 8367
SWIDTH 589 0
DWIDTH 9 0
BBX 9 15 0 -3
BITMAP
3000
7800
6C00
2400
2400
2400
2580
2580
E680
EA80
FB80
D300
0200
0200
0200
ENDCHAR
STARTCHAR 20B0
ENCODING 8368
SWIDTH 589 0
DWIDTH 9 0
BBX 9 12 0 0
BITMAP
0700
0F00
0D80
0D80
0D00
7700
FF00
5D80
0180
0180
0780
0700
ENDCHAR
STARTCHAR 20B1
ENCODING 8369
SWIDTH 589 0
DWIDTH 9 0
BBX 9 12 0 0
BITMAP
7E00
7F00
6300
FF80
FF80
6300
7F00
7E00
6000
6000
6000
6000
ENDCHAR
STARTCHAR 20B2
ENCODING 8370
SWIDTH 589 0
DWIDTH 9 0
BBX 9 14 0 -1
BITMAP
0C00
1F00
3F00
7C80
6C00
EC00
CF80
CF80
ED80
6D80
7D80
3F80
1F00
0C00
ENDCHAR
STARTCHAR 20B3
ENCODING 8371
SWIDTH 589 0
DWIDTH 9 0
BBX 9 12 0 0
BITMAP
1C00
1C00
1C00
3E00
3600
FF80
FF80
FF80
FF80
6300
6380
C180
ENDCHAR
STARTCHAR 20B4
ENCODING 8372
SWIDTH 589 0
DWIDTH 9 0
BBX 9 12 0 0
BITMAP
3E00
3F00
4300
FF80
FF80
1E00
3C00
FF80
FF80
6100
7F00
3F00
ENDCHAR
STARTCHAR 20B5
ENCODING 8373
SWIDTH 589 0
DWIDTH 9 0
BBX 9 14 0 -2
BITMAP
0600
1F00
3F80
7E80
7600
E600
E600
E600
7600
7680
3F80
1F00
0600
0600
ENDCHAR
STARTCHAR 20B7
ENCODING 8375
SWIDTH 589 0
DWIDTH 9 0
BBX 9 13 0 -1
BITMAP
0F80
1F80
3080
3000
3800
1E00
0F00
0300
7B00
6B00
FE00
BC00
A800
ENDCHAR
STARTCHAR 20B8
ENCODING 8376
SWIDTH 589 0
DWIDTH 9 0
BBX 8 12 1 0
BITMAP
FF
FF
00
FF
FF
38
38
38
38
38
38
38
ENDCHAR
STARTCHAR 20B9
ENCODING 8377
SWIDTH 589 0
DWIDTH 9 0
BBX 8 12 1 0
BITMAP
FF
FE
18
FF
FE
F8
F0
38
18
18
0C
0E
ENDCHAR
STARTCHAR 2116
ENCODING 8470
SWIDTH 589 0
DWIDTH 9 0
BBX 9 12 0 0
BITMAP
DB00
DB80
DE80
DC80
FE80
FB80
FB00
F800
FF80
FF80
D800
D800
ENDCHAR
STARTCHAR 2122
ENCODING 8482
SWIDTH 589 0
DWIDTH 9 0
BBX 8 5 0 7
BITMAP
ED
4F
4B
49
49
ENDCHAR
STARTCHAR 2126
ENCODING 8486
SWIDTH 589 0
DWIDTH 9 0
BBX 8 12 1 0
BITMAP
38
7C
E6
C6
C6
C6
C6
C6
C6
6C
EF
EF
ENDCHAR
STARTCHAR 2150
ENCODING 8528
SWIDTH 589 0
DWIDTH 9 0
BBX 9 15 0 -3
BITMAP
F000
3000
3000
3000
3000
F800
0780
7800
8F00
0100
0300
0200
0600
0400
0C00
ENDCHAR
STARTCHAR 2151
ENCODING 8529
SWIDTH 589 0
DWIDTH 9 0
BBX 9 15 0 -2
BITMAP
F000
B000
3000
3000
3000
3000
F800
0780
7800
8F00
0900
1980
0F80
0100
0E00
ENDCHAR
STARTCHAR 2153
ENCODING 8531
SWIDTH 589 0
DWIDTH 9 0
BBX 9 15 0 -2
BITMAP
F000
3000
3000
3000
3000
F800
0780
7800
8F00
0180
0100
0600
0180
0180
0F00
ENDCHAR
STARTCHAR 2154
ENCODING 8532
SWIDTH 589 0
DWIDTH 9 0
BBX 9 15 0 -2
BITMAP
F000
9800
1800
3000
4000
F800
0780
7800
8F00
0180
0100
0600
0180
0180
0F00
ENDCHAR
STARTCHAR 2155
ENCODING 8533
SWIDTH 589 0
DWIDTH 9 0
BBX 9 15 0 -2
BITMAP
F000
3000
3000
3000
3000
F800
0780
F800
0F00
0800
0800
0F00
0100
0180
0F00
ENDCHAR
STARTCHAR 2156
ENCODING 8534
SWIDTH 589 0
DWIDTH 9 0
BBX 9 15 0 -2
BITMAP
F000
9800
1800
3000
4000
F800
0780
F800
0F00
0800
0800
0F00
0100
0180
0F00
ENDCHAR
STARTCHAR 2157
ENCODING 8535
SWIDTH 589 0
DWIDTH 9 0
BBX 9 15 0 -2
BITMAP
F800
0800
3000
0800
0800
F880
0F00
F000
0F00
0800
0800
0F00
0100
0180
0F00
ENDCHAR
STARTCHAR 2158
ENCODING 8536
SWIDTH 589 0
DWIDTH 9 0
BBX 9 15 0 -2
BITMAP
3000
3000
5000
9000
F800
1000
1100
0F80
F000
8F00
0800
0F00
0100
0180
0F00
ENDCHAR
STARTCHAR 2159
ENCODING 8537
SWIDTH 589 0
DWIDTH 9 0
BBX 9 15 0 -2
BITMAP
F000
3000
3000
3000
3000
F800
0780
7800
8700
0C80
0800
0F00
0980
0980
0700
ENDCHAR
STARTCHAR 215A
ENCODING 8538
SWIDTH 589 0
DWIDTH 9 0
BBX 9 15 0 -2
BITMAP
7800
4000
7000
1800
0800
F080
0F00
7800
8700
0C80
0800
0F00
0980
0980
0700
ENDCHAR
STARTCHAR 215B
ENCODING 8539
SWIDTH 589 0
DWIDTH 9 0
BBX 9 15 0 -2
BITMAP
F000
3000
3000
3000
3000
F800
0780
7800
8F00
0900
0900
0600
0900
0980
0F00
ENDCHAR
STARTCHAR 215C
ENCODING 8540
SWIDTH 589 0
DWIDTH 9 0
BBX 9 15 0 -2
BITMAP
F800
0800
3000
0800
0800
F880
0700
7800
8F00
0900
0900
0600
0900
0980
0F00
ENDCHAR
STARTCHAR 215D
ENCODING 8541
SWIDTH 589 0
DWIDTH 9 0
BBX 9 15 0 -2
BITMAP
7800
4000
7000
1800
0800
F080
0F00
7800
8F00
0900
0900
0600
0900
0980
0F00
ENDCHAR
STARTCHAR 215E
ENCODING 8542
SWIDTH 589 0
DWIDTH 9 0
BBX 9 15 0 -2
BITMAP
F800
1800
1000
3000
2000
6000
0780
7800
8F00
0900
0900
0600
0900
0980
0F00
ENDCHAR
STARTCHAR 215F
ENCODING 8543
SWIDTH 589 0
DWIDTH 9 0
BBX 9 9 0 4
BITMAP
F000
3000
3000
3000
3000
F800
0780
7800
8000
ENDCHAR
STARTCHAR 2189
ENCODING 8585
SWIDTH 589 0
DWIDTH 9 0
BBX 9 15 0 -2
BITMAP
7000
D800
C800
E800
D800
7080
0F00
7800
8F00
0180
0100
0600
0180
0180
0F00
ENDCHAR
STARTCHAR 2190
ENCODING 8592
SWIDTH 589 0
DWIDTH 9 0
BBX 8 6 1 2
BITMAP
40
E0
FF
FF
C0
60
ENDCHAR
STARTCHAR 2191
ENCODING 8593
SWIDTH 589 0
DWIDTH 9 0
BBX 5 9 2 0
BITMAP
30
70
E8
20
20
20
20
20
20
ENDCHAR
STARTCHAR 2192
ENCODING 8594
SWIDTH 589 0
DWIDTH 9 0
BBX 8 6 1 2
BITMAP
04
06
FF
FF
06
04
ENDCHAR
STARTCHAR 2193
ENCODING 8595
SWIDTH 589 0
DWIDTH 9 0
BBX 5 9 2 0
BITMAP
20
20
20
20
20
20
E8
78
30
ENDCHAR
STARTCHAR 2194
ENCODING 8596
SWIDTH 589 0
DWIDTH 9 0
BBX 8 6 1 2
BITMAP
44
E6
FF
FF
C6
64
ENDCHAR
STARTCHAR 2195
ENCODING 8597
SWIDTH 589 0
DWIDTH 9 0
BBX 5 9 2 0
BITMAP
30
70
E8
20
20
20
E8
78
30
ENDCHAR
STARTCHAR 2196
ENCODING 8598
SWIDTH 589 0
DWIDTH 9 0
BBX 7 7 1 1
BITMAP
70
F0
E0
F0
18
0C
06
ENDCHAR
STARTCHAR 2197
ENCODING 8599
SWIDTH 589 0
DWIDTH 9 0
BBX 7 7 1 1
BITMAP
1C
1E
0E
1A
30
60
C0
ENDCHAR
STARTCHAR 2198
ENCODING 8600
SWIDTH 589 0
DWIDTH 9 0
BBX 7 7 1 0
BITMAP
40
E0
70
3A
1E
0E
1E
ENDCHAR
STARTCHAR 2199
ENCODING 8601
SWIDTH 589 0
DWIDTH 9 0
BBX 7 7 1 0
BITMAP
04
0E
1C
F8
F0
E0
70
ENDCHAR
STARTCHAR 219A
ENCODING 8602
SWIDTH 589 0
DWIDTH 9 0
BBX 8 6 1 2
BITMAP
44
E6
FF
FF
D8
68
ENDCHAR
STARTCHAR 219B
ENCODING 8603
SWIDTH 589 0
DWIDTH 9 0
BBX 8 6 1 2
BITMAP
24
36
FF
FF
C6
44
ENDCHAR
STARTCHAR 219C
ENCODING 8604
SWIDTH 589 0
DWIDTH 9 0
BBX 9 4 0 3
BITMAP
7700
F780
FC00
D800
ENDCHAR
STARTCHAR 219D
ENCODING 8605
SWIDTH 589 0
DWIDTH 9 0
BBX 8 4 1 3
BITMAP
EE
FF
3F
1F
ENDCHAR
STARTCHAR 219E
ENCODING 8606
SWIDTH 589 0
DWIDTH 9 0
BBX 8 6 1 2
BITMAP
48
F8
FF
FF
D8
68
ENDCHAR
STARTCHAR 219F
ENCODING 8607
SWIDTH 589 0
DWIDTH 9 0
BBX 5 9 2 0
BITMAP
30
70
E8
70
F8
A8
20
20
20
ENDCHAR
STARTCHAR 21A0
ENCODING 8608
SWIDTH 589 0
DWIDTH 9 0
BBX 8 6 1 2
BITMAP
14
36
FF
FF
16
34
ENDCHAR
STARTCHAR 21A1
ENCODING 8609
SWIDTH 589 0
DWIDTH 9 0
BBX 5 9 2 0
BITMAP
20
20
20
A8
F8
70
E8
78
30
ENDCHAR
STARTCHAR 21A2
ENCODING 8610
SWIDTH 589 0
DWIDTH 9 0
BBX 8 6 1 2
BITMAP
42
E3
FC
FC
C6
63
ENDCHAR
STARTCHAR 21A3
ENCODING 8611
SWIDTH 589 0
DWIDTH 9 0
BBX 8 6 1 2
BITMAP
84
C6
7F
7F
C6
84
ENDCHAR
STARTCHAR 21A4
ENCODING 8612
SWIDTH 589 0
DWIDTH 9 0
BBX 8 6 1 2
BITMAP
43
E3
FF
FF
C3
63
ENDCHAR
STARTCHAR 21A5
ENCODING 8613
SWIDTH 589 0
DWIDTH 9 0
BBX 5 9 2 0
BITMAP
30
70
E8
20
20
20
20
F8
F8
ENDCHAR
STARTCHAR 21A6
ENCODING 8614
SWIDTH 589 0
DWIDTH 9 0
BBX 8 6 1 2
BITMAP
84
86
FF
FF
86
84
ENDCHAR
STARTCHAR 21A7
ENCODING 8615
SWIDTH 589 0
DWIDTH 9 0
BBX 5 9 2 0
BITMAP
F8
F8
20
20
20
20
A8
78
30
ENDCHAR
STARTCHAR 21A8
ENCODING 8616
SWIDTH 589 0
DWIDTH 9 0
BBX 5 9 2 0
BITMAP
30
70
E8
20
A8
F8
70
F8
F8
ENDCHAR
STARTCHAR 21A9
ENCODING 8617
SWIDTH 589 0
DWIDTH 9 0
BBX 8 7 1 2
BITMAP
06
46
E3
FF
FE
C0
60
ENDCHAR
STARTCHAR 21AA
ENCODING 8618
SWIDTH 589 0
DWIDTH 9 0
BBX 8 7 1 2
BITMAP
40
C4
86
FF
FF
06
04
ENDCHAR
STARTCHAR 21AB
ENCODING 8619
SWIDTH 589 0
DWIDTH 9 0
BBX 8 7 1 2
BITMAP
0E
4E
FB
FF
FE
F8
40
ENDCHAR
STARTCHAR 21AC
ENCODING 8620
SWIDTH 589 0
DWIDTH 9 0
BBX 8 7 1 2
BITMAP
60
F4
B6
FF
FF
36
04
ENDCHAR
STARTCHAR 21AD
ENCODING 8621
SWIDTH 589 0
DWIDTH 9 0
BBX 8 6 1 1
BITMAP
64
DE
EF
EF
E6
44
ENDCHAR
STARTCHAR 21AE
ENCODING 8622
SWIDTH 589 0
DWIDTH 9 0
BBX 8 6 1 2
BITMAP
5C
FE
FF
FF
D6
74
ENDCHAR
STARTCHAR 21AF
ENCODING 8623
SWIDTH 589 0
DWIDTH 9 0
BBX 9 11 0 0
BITMAP
2000
6100
6300
6F00
7A00
6200
4600
8600
1F00
0F80
0600
ENDCHAR
STARTCHAR 21B0
ENCODING 8624
SWIDTH 589 0
DWIDTH 9 0
BBX 7 11 1 0
BITMAP
20
60
FE
FE
66
26
06
06
06
06
06
ENDCHAR
STARTCHAR 21B1
ENCODING 8625
SWIDTH 589 0
DWIDTH 9 0
BBX 7 11 1 0
BITMAP
08
0C
FE
FE
CC
C8
C0
C0
C0
C0
C0
ENDCHAR
STARTCHAR 21B2
ENCODING 8626
SWIDTH 589 0
DWIDTH 9 0
BBX 7 11 1 0
BITMAP
06
06
06
06
06
26
66
FE
FE
60
20
ENDCHAR
STARTCHAR 21B3
ENCODING 8627
SWIDTH 589 0
DWIDTH 9 0
BBX 7 11 1 0
BITMAP
C0
C0
C0
C0
C0
C8
CC
FE
FE
0C
08
ENDCHAR
STARTCHAR 21B4
ENCODING 8628
SWIDTH 589 0
DWIDTH 9 0
BBX 7 9 1 0
BITMAP
F8
F8
18
18
18
18
3E
3C
18
ENDCHAR
STARTCHAR 21B5
ENCODING 8629
SWIDTH 589 0
DWIDTH 9 0
BBX 9 7 0 0
BITMAP
0180
2180
3180
7F80
FF80
6000
3000
ENDCHAR
STARTCHAR 21B6
ENCODING 8630
SWIDTH 589 0
DWIDTH 9 0
BBX 9 6 0 2
BITMAP
0E00
1F00
3180
FD80
7800
3000
ENDCHAR
STARTCHAR 21B7
ENCODING 8631
SWIDTH 589 0
DWIDTH 9 0
BBX 9 6 0 3
BITMAP
1000
7C00
6E00
DF80
0F00
0600
ENDCHAR
STARTCHAR 21B8
ENCODING 8632
SWIDTH 589 0
DWIDTH 9 0
BBX 9 9 0 0
BITMAP
FF80
3800
7800
7000
7800
6C00
0600
0300
0200
ENDCHAR
STARTCHAR 21B9
ENCODING 8633
SWIDTH 589 0
DWIDTH 9 0
BBX 8 11 1 0
BITMAP
A0
B0
FF
FF
E0
B0
0B
FF
FF
0F
1B
ENDCHAR
STARTCHAR 21BA
ENCODING 8634
SWIDTH 589 0
DWIDTH 9 0
BBX 9 9 0 0
BITMAP
0780
0780
4700
6700
C500
C100
6300
7E00
1C00
ENDCHAR
STARTCHAR 21BB
ENCODING 8635
SWIDTH 589 0
DWIDTH 9 0
BBX 9 9 0 0
BITMAP
F000
F000
7100
7380
5180
6180
6300
3F00
1E00
ENDCHAR
STARTCHAR 21BC
ENCODING 8636
SWIDTH 589 0
DWIDTH 9 0
BBX 8 4 1 4
BITMAP
40
E0
FF
FF
ENDCHAR
STARTCHAR 21BD
ENCODING 8637
SWIDTH 589 0
DWIDTH 9 0
BBX 8 4 1 2
BITMAP
FF
FF
C0
60
ENDCHAR
STARTCHAR 21BE
ENCODING 8638
SWIDTH 589 0
DWIDTH 9 0
BBX 3 9 4 0
BITMAP
C0
C0
A0
80
80
80
80
80
80
ENDCHAR
STARTCHAR 21BF
ENCODING 8639
SWIDTH 589 0
DWIDTH 9 0
BBX 3 9 2 0
BITMAP
20
60
E0
20
20
20
20
20
20
ENDCHAR
STARTCHAR 21C0
ENCODING 8640
SWIDTH 589 0
DWIDTH 9 0
BBX 8 4 1 4
BITMAP
04
06
FF
FF
ENDCHAR
STARTCHAR 21C1
ENCODING 8641
SWIDTH 589 0
DWIDTH 9 0
BBX 8 4 1 2
BITMAP
FF
FF
06
04
ENDCHAR
STARTCHAR 21C2
ENCODING 8642
SWIDTH 589 0
DWIDTH 9 0
BBX 3 9 4 0
BITMAP
80
80
80
80
80
80
A0
E0
C0
ENDCHAR
STARTCHAR 21C3
ENCODING 8643
SWIDTH 589 0
DWIDTH 9 0
BBX 3 9 2 0
BITMAP
20
20
20
20
20
20
E0
60
20
ENDCHAR
STARTCHAR 21C4
ENCODING 8644
SWIDTH 589 0
DWIDTH 9 0
BBX 8 10 1 0
BITMAP
04
06
FF
FF
46
E4
FF
FF
C0
60
ENDCHAR
STARTCHAR 21C5
ENCODING 8645
SWIDTH 589 0
DWIDTH 9 0
BBX 9 9 0 0
BITMAP
3200
7A00
FA00
3200
3200
3200
3B80
3F00
3600
ENDCHAR
STARTCHAR 21C6
ENCODING 8646
SWIDTH 589 0
DWIDTH 9 0
BBX 8 10 1 0
BITMAP
40
E0
FF
FF
C4
66
FF
FF
06
04
ENDCHAR
STARTCHAR 21C7
ENCODING 8647
SWIDTH 589 0
DWIDTH 9 0
BBX 8 10 1 0
BITMAP
40
E0
FF
FF
C0
E0
FF
FF
C0
60
ENDCHAR
STARTCHAR 21C8
ENCODING 8648
SWIDTH 589 0
DWIDTH 9 0
BBX 9 9 0 0
BITMAP
3600
7F00
FB80
3200
3200
3200
3200
3200
3200
ENDCHAR
STARTCHAR 21C9
ENCODING 8649
SWIDTH 589 0
DWIDTH 9 0
BBX 8 10 1 0
BITMAP
04
06
FF
FF
06
06
FF
FF
06
04
ENDCHAR
STARTCHAR 21CA
ENCODING 8650
SWIDTH 589 0
DWIDTH 9 0
BBX 9 9 0 0
BITMAP
3200
3200
3200
3200
3200
3200
FB80
7F00
3600
ENDCHAR
STARTCHAR 21CB
ENCODING 8651
SWIDTH 589 0
DWIDTH 9 0
BBX 8 10 1 0
BITMAP
40
E0
FF
FF
00
00
FF
FF
06
04
ENDCHAR
STARTCHAR 21CC
ENCODING 8652
SWIDTH 589 0
DWIDTH 9 0
BBX 8 10 1 0
BITMAP
04
06
FF
FF
00
00
FF
FF
C0
60
ENDCHAR
STARTCHAR 21CD
ENCODING 8653
SWIDTH 589 0
DWIDTH 9 0
BBX 8 5 1 2
BITMAP
64
FF
88
FF
70
ENDCHAR
STARTCHAR 21CE
ENCODING 8654
SWIDTH 589 0
DWIDTH 9 0
BBX 8 6 1 2
BITMAP
54
76
FE
93
FE
54
ENDCHAR
STARTCHAR 21CF
ENCODING 8655
SWIDTH 589 0
DWIDTH 9 0
BBX 8 5 1 2
BITMAP
14
FE
23
FE
44
ENDCHAR
STARTCHAR 21D0
ENCODING 8656
SWIDTH 589 0
DWIDTH 9 0
BBX 8 5 1 2
BITMAP
60
FF
80
FF
60
ENDCHAR
STARTCHAR 21D1
ENCODING 8657
SWIDTH 589 0
DWIDTH 9 0
BBX 5 9 2 0
BITMAP
30
70
D8
50
50
50
50
50
50
ENDCHAR
STARTCHAR 21D2
ENCODING 8658
SWIDTH 589 0
DWIDTH 9 0
BBX 8 5 1 2
BITMAP
04
FE
03
FE
04
ENDCHAR
STARTCHAR 21D3
ENCODING 8659
SWIDTH 589 0
DWIDTH 9 0
BBX 5 9 2 0
BITMAP
50
50
50
50
50
50
D8
58
30
ENDCHAR
STARTCHAR 21D4
ENCODING 8660
SWIDTH 589 0
DWIDTH 9 0
BBX 8 5 1 2
BITMAP
64
FE
83
FE
64
ENDCHAR
STARTCHAR 21D5
ENCODING 8661
SWIDTH 589 0
DWIDTH 9 0
BBX 5 9 2 0
BITMAP
30
70
D8
50
50
50
D8
58
30
ENDCHAR
STARTCHAR 21D6
ENCODING 8662
SWIDTH 589 0
DWIDTH 9 0
BBX 7 8 1 0
BITMAP
70
F0
B0
D8
2C
16
0A
04
ENDCHAR
STARTCHAR 21D7
ENCODING 8663
SWIDTH 589 0
DWIDTH 9 0
BBX 7 8 1 0
BITMAP
1E
1E
0A
16
28
50
A0
40
ENDCHAR
STARTCHAR 21D8
ENCODING 8664
SWIDTH 589 0
DWIDTH 9 0
BBX 7 7 1 0
BITMAP
60
90
58
2E
16
0A
1E
ENDCHAR
STARTCHAR 21D9
ENCODING 8665
SWIDTH 589 0
DWIDTH 9 0
BBX 7 7 1 0
BITMAP
04
0A
14
A8
D0
A0
F0
ENDCHAR
STARTCHAR 21DA
ENCODING 8666
SWIDTH 589 0
DWIDTH 9 0
BBX 8 6 1 1
BITMAP
40
7F
80
FF
FF
40
ENDCHAR
STARTCHAR 21DB
ENCODING 8667
SWIDTH 589 0
DWIDTH 9 0
BBX 8 6 1 1
BITMAP
04
FE
02
FF
FE
04
ENDCHAR
STARTCHAR 21DC
ENCODING 8668
SWIDTH 589 0
DWIDTH 9 0
BBX 8 6 1 2
BITMAP
40
E8
ED
FF
D2
60
ENDCHAR
STARTCHAR 21DD
ENCODING 8669
SWIDTH 589 0
DWIDTH 9 0
BBX 8 6 1 2
BITMAP
04
26
EF
DF
96
04
ENDCHAR
STARTCHAR 21E0
ENCODING 8672
SWIDTH 589 0
DWIDTH 9 0
BBX 8 6 1 2
BITMAP
40
E0
EB
EB
C0
60
ENDCHAR
STARTCHAR 21E1
ENCODING 8673
SWIDTH 589 0
DWIDTH 9 0
BBX 5 9 2 0
BITMAP
30
70
E8
20
00
20
20
20
20
ENDCHAR
STARTCHAR 21E2
ENCODING 8674
SWIDTH 589 0
DWIDTH 9 0
BBX 8 6 1 2
BITMAP
04
06
AF
AF
06
04
ENDCHAR
STARTCHAR 21E3
ENCODING 8675
SWIDTH 589 0
DWIDTH 9 0
BBX 5 9 2 0
BITMAP
20
20
00
20
20
20
E8
70
30
ENDCHAR
STARTCHAR 21E4
ENCODING 8676
SWIDTH 589 0
DWIDTH 9 0
BBX 8 6 1 2
BITMAP
A0
B0
FF
FF
A0
B0
ENDCHAR
STARTCHAR 21E5
ENCODING 8677
SWIDTH 589 0
DWIDTH 9 0
BBX 8 6 1 2
BITMAP
0B
1F
FF
FF
0F
1B
ENDCHAR
STARTCHAR 21E6
ENCODING 8678
SWIDTH 589 0
DWIDTH 9 0
BBX 9 7 0 1
BITMAP
2000
2000
7F80
8080
7F80
2000
2000
ENDCHAR
STARTCHAR 21E7
ENCODING 8679
SWIDTH 589 0
DWIDTH 9 0
BBX 7 9 1 0
BITMAP
10
28
E6
28
28
28
28
28
38
ENDCHAR
STARTCHAR 21E8
ENCODING 8680
SWIDTH 589 0
DWIDTH 9 0
BBX 8 7 1 1
BITMAP
04
04
FE
01
FE
04
04
ENDCHAR
STARTCHAR 21E9
ENCODING 8681
SWIDTH 589 0
DWIDTH 9 0
BBX 7 9 1 0
BITMAP
38
28
28
28
28
28
EE
28
10
ENDCHAR
STARTCHAR 21EB
ENCODING 8683
SWIDTH 589 0
DWIDTH 9 0
BBX 7 9 1 0
BITMAP
10
28
E6
28
28
28
28
4E
7E
ENDCHAR
STARTCHAR 21EC
ENCODING 8684
SWIDTH 589 0
DWIDTH 9 0
BBX 7 9 1 0
BITMAP
10
28
FE
28
28
28
28
4E
7E
ENDCHAR
STARTCHAR 21ED
ENCODING 8685
SWIDTH 589 0
DWIDTH 9 0
BBX 7 9 1 0
BITMAP
10
38
F6
38
38
38
38
5E
7E
ENDCHAR
STARTCHAR 21EE
ENCODING 8686
SWIDTH 589 0
DWIDTH 9 0
BBX 7 9 1 0
BITMAP
10
28
D6
28
EE
28
28
28
38
ENDCHAR
STARTCHAR 21EF
ENCODING 8687
SWIDTH 589 0
DWIDTH 9 0
BBX 7 9 1 0
BITMAP
10
28
D6
28
EE
28
28
4E
7E
ENDCHAR
STARTCHAR 21F0
ENCODING 8688
SWIDTH 589 0
DWIDTH 9 0
BBX 8 6 1 1
BITMAP
C4
7E
01
7E
46
C4
ENDCHAR
STARTCHAR 21F1
ENCODING 8689
SWIDTH 589 0
DWIDTH 9 0
BBX 9 9 0 0
BITMAP
FF80
8000
9C00
BC00
B800
AC00
8600
8300
8180
ENDCHAR
STARTCHAR 21F2
ENCODING 8690
SWIDTH 589 0
DWIDTH 9 0
BBX 9 9 0 0
BITMAP
4080
E080
3080
3A80
1E80
0E80
1E80
0080
FF80
ENDCHAR
STARTCHAR 21F3
ENCODING 8691
SWIDTH 589 0
DWIDTH 9 0
BBX 7 8 1 0
BITMAP
18
2C
EE
28
28
EE
2C
10
ENDCHAR
STARTCHAR 21F4
ENCODING 8692
SWIDTH 589 0
DWIDTH 9 0
BBX 8 5 1 2
BITMAP
74
FF
FF
F6
74
ENDCHAR
STARTCHAR 21F5
ENCODING 8693
SWIDTH 589 0
DWIDTH 9 0
BBX 9 9 0 0
BITMAP
3600
3700
3B80
3200
3200
3200
FA00
7A00
3200
ENDCHAR
STARTCHAR 21F6
ENCODING 8694
SWIDTH 589 0
DWIDTH 9 0
BBX 8 13 1 -2
BITMAP
04
06
FF
FF
04
FF
FF
06
06
FF
FF
06
04
ENDCHAR
STARTCHAR 21F7
ENCODING 8695
SWIDTH 589 0
DWIDTH 9 0
BBX 8 6 1 2
BITMAP
48
E8
FF
FF
C8
68
ENDCHAR
STARTCHAR 21F8
ENCODING 8696
SWIDTH 589 0
DWIDTH 9 0
BBX 8 6 1 2
BITMAP
24
26
FF
FF
26
24
ENDCHAR
STARTCHAR 21F9
ENCODING 8697
SWIDTH 589 0
DWIDTH 9 0
BBX 8 6 1 1
BITMAP
54
F6
FF
FF
F6
54
ENDCHAR
STARTCHAR 21FA
ENCODING 8698
SWIDTH 589 0
DWIDTH 9 0
BBX 8 6 1 2
BITMAP
5E
FE
FF
FF
DE
7E
ENDCHAR
STARTCHAR 21FB
ENCODING 8699
SWIDTH 589 0
DWIDTH 9 0
BBX 8 6 1 2
BITMAP
D4
D6
FF
FF
D6
D4
ENDCHAR
STARTCHAR 21FC
ENCODING 8700
SWIDTH 589 0
DWIDTH 9 0
BBX 8 6 1 2
BITMAP
5C
FE
FF
FF
DE
7C
ENDCHAR
STARTCHAR 21FD
ENCODING 8701
SWIDTH 589 0
DWIDTH 9 0
BBX 9 6 0 2
BITMAP
2000
6000
7F80
BF80
6000
2000
ENDCHAR
STARTCHAR 21FE
ENCODING 8702
SWIDTH 589 0
DWIDTH 9 0
BBX 8 6 1 2
BITMAP
04
06
FD
FD
06
04
ENDCHAR
STARTCHAR 21FF
ENCODING 8703
SWIDTH 589 0
DWIDTH 9 0
BBX 9 6 0 2
BITMAP
2200
6300
7E80
BE80
6300
2200
ENDCHAR
STARTCHAR 2200
ENCODING 8704
SWIDTH 589 0
DWIDTH 9 0
BBX 9 12 0 0
BITMAP
E180
6380
6300
7F00
7F00
3300
3600
3600
3600
1E00
1C00
1C00
ENDCHAR
STARTCHAR 2201
ENCODING 8705
SWIDTH 589 0
DWIDTH 9 0
BBX 9 12 0 0
BITMAP
1E00
7F00
7380
E000
E000
E000
E000
E000
E380
7380
7F00
1E00
ENDCHAR
STARTCHAR 2202
ENCODING 8706
SWIDTH 589 0
DWIDTH 9 0
BBX 7 11 1 0
BITMAP
3C
34
06
06
36
6E
C6
C6
CC
CC
78
ENDCHAR
STARTCHAR 2203
ENCODING 8707
SWIDTH 589 0
DWIDTH 9 0
BBX 7 12 1 0
BITMAP
FE
FE
06
06
06
FE
FE
06
06
06
FE
FE
ENDCHAR
STARTCHAR 2204
ENCODING 8708
SWIDTH 589 0
DWIDTH 9 0
BBX 7 13 1 -1
BITMAP
FE
FE
1E
16
16
FE
FE
26
26
66
FE
FE
40
ENDCHAR
STARTCHAR 2205
ENCODING 8709
SWIDTH 589 0
DWIDTH 9 0
BBX 9 9 0 0
BITMAP
1D00
3F80
6300
4700
4D80
5180
6300
FF00
5C00
ENDCHAR
STARTCHAR 2206
ENCODING 8710
SWIDTH 589 0
DWIDTH 9 0
BBX 9 11 0 0
BITMAP
1C00
1C00
1C00
3600
3600
3600
6300
6300
6300
FF80
FF80
ENDCHAR
STARTCHAR 2207
ENCODING 8711
SWIDTH 589 0
DWIDTH 9 0
BBX 9 11 0 0
BITMAP
FF80
FF80
6300
6300
6300
3600
3600
3600
1C00
1C00
1C00
ENDCHAR
STARTCHAR 2208
ENCODING 8712
SWIDTH 589 0
DWIDTH 9 0
BBX 7 12 1 0
BITMAP
3E
7E
E0
C0
C0
FE
FE
C0
C0
E0
7E
3E
ENDCHAR
STARTCHAR 2209
ENCODING 8713
SWIDTH 589 0
DWIDTH 9 0
BBX 8 16 1 -2
BITMAP
04
03
3E
7E
E4
CC
CC
FE
FE
D8
F0
70
7E
7E
40
20
ENDCHAR
STARTCHAR 220A
ENCODING 8714
SWIDTH 589 0
DWIDTH 9 0
BBX 7 8 1 1
BITMAP
3E
7E
C0
FE
FE
C0
7E
3E
ENDCHAR
STARTCHAR 220B
ENCODING 8715
SWIDTH 589 0
DWIDTH 9 0
BBX 7 12 1 0
BITMAP
F8
FC
06
06
02
FE
FE
02
06
06
FC
F8
ENDCHAR
STARTCHAR 220C
ENCODING 8716
SWIDTH 589 0
DWIDTH 9 0
BBX 8 16 1 -2
BITMAP
08
04
FC
FC
1E
1E
1A
FF
FF
32
66
66
FC
F8
C0
40
ENDCHAR
STARTCHAR 220D
ENCODING 8717
SWIDTH 589 0
DWIDTH 9 0
BBX 7 8 1 1
BITMAP
F8
FE
06
FE
FE
06
FE
F8
ENDCHAR
STARTCHAR 220E
ENCODING 8718
SWIDTH 589 0
DWIDTH 9 0
BBX 5 10 2 0
BITMAP
F8
F8
F8
F8
F8
F8
F8
F8
F8
F8
ENDCHAR
STARTCHAR 220F
ENCODING 8719
SWIDTH 589 0
DWIDTH 9 0
BBX 7 15 1 -3
BITMAP
FE
FE
C6
C6
C6
C6
C6
C6
C6
C6
C6
C6
C6
C6
C6
ENDCHAR
STARTCHAR 2210
ENCODING 8720
SWIDTH 589 0
DWIDTH 9 0
BBX 7 15 1 -3
BITMAP
C6
C6
C6
C6
C6
C6
C6
C6
C6
C6
C6
C6
C6
FE
FE
ENDCHAR
STARTCHAR 2211
ENCODING 8721
SWIDTH 589 0
DWIDTH 9 0
BBX 7 15 1 -3
BITMAP
FE
FE
60
60
30
18
18
0C
18
30
30
60
60
FE
FE
ENDCHAR
STARTCHAR 2212
ENCODING 8722
SWIDTH 589 0
DWIDTH 9 0
BBX 8 2 1 4
BITMAP
FF
FF
ENDCHAR
STARTCHAR 2213
ENCODING 8723
SWIDTH 589 0
DWIDTH 9 0
BBX 8 10 1 0
BITMAP
FF
FF
00
10
10
FF
FF
10
10
10
ENDCHAR
STARTCHAR 2217
ENCODING 8727
SWIDTH 589 0
DWIDTH 9 0
BBX 7 7 1 2
BITMAP
10
92
FE
38
7E
92
10
ENDCHAR
STARTCHAR 2218
ENCODING 8728
SWIDTH 589 0
DWIDTH 9 0
BBX 5 6 2 3
BITMAP
70
F8
C8
88
F8
70
ENDCHAR
STARTCHAR 221A
ENCODING 8730
SWIDTH 589 0
DWIDTH 9 0
BBX 9 14 0 0
BITMAP
0180
0180
0300
0300
0300
0200
2600
E600
B400
3400
1C00
1C00
1800
1800
ENDCHAR
STARTCHAR 221B
ENCODING 8731
SWIDTH 589 0
DWIDTH 9 0
BBX 9 14 0 0
BITMAP
7980
0980
3B00
0F00
0F00
7A00
2600
E600
7400
3400
1C00
1C00
1800
1800
ENDCHAR
STARTCHAR 221C
ENCODING 8732
SWIDTH 589 0
DWIDTH 9 0
BBX 9 14 0 0
BITMAP
1980
3980
5B00
FF00
1B00
1A00
2600
E600
B400
3400
1C00
1C00
1800
1800
ENDCHAR
STARTCHAR 221D
ENCODING 8733
SWIDTH 589 0
DWIDTH 9 0
BBX 7 7 1 2
BITMAP
22
76
DC
CC
CC
7E
72
ENDCHAR
STARTCHAR 221E
ENCODING 8734
SWIDTH 589 0
DWIDTH 9 0
BBX 9 7 0 2
BITMAP
7300
F780
DC80
8880
DC80
F780
7300
ENDCHAR
STARTCHAR 221F
ENCODING 8735
SWIDTH 589 0
DWIDTH 9 0
BBX 8 9 1 2
BITMAP
80
80
80
80
80
80
80
FF
FF
ENDCHAR
STARTCHAR 2220
ENCODING 8736
SWIDTH 589 0
DWIDTH 9 0
BBX 8 9 1 2
BITMAP
02
06
0C
08
18
30
60
7F
FF
ENDCHAR
STARTCHAR 2223
ENCODING 8739
SWIDTH 589 0
DWIDTH 9 0
BBX 1 16 4 -4
BITMAP
80
80
80
80
80
80
80
80
80
80
80
80
80
80
80
80
ENDCHAR
STARTCHAR 2227
ENCODING 8743
SWIDTH 589 0
DWIDTH 9 0
BBX 7 9 1 0
BITMAP
38
38
38
2C
6C
6C
6C
6E
E6
ENDCHAR
STARTCHAR 2228
ENCODING 8744
SWIDTH 589 0
DWIDTH 9 0
BBX 7 9 1 0
BITMAP
E6
6E
6C
6C
6C
2C
38
38
38
ENDCHAR
STARTCHAR 2229
ENCODING 8745
SWIDTH 589 0
DWIDTH 9 0
BBX 7 9 1 0
BITMAP
38
7C
46
C6
C6
C6
C6
C6
C6
ENDCHAR
STARTCHAR 222A
ENCODING 8746
SWIDTH 589 0
DWIDTH 9 0
BBX 7 10 1 0
BITMAP
C6
C6
C6
C6
C6
C6
C6
66
7C
38
ENDCHAR
STARTCHAR 222B
ENCODING 8747
SWIDTH 589 0
DWIDTH 9 0
BBX 8 15 1 -3
BITMAP
06
0B
18
18
18
18
18
18
10
10
10
30
30
E0
E0
ENDCHAR
STARTCHAR 222C
ENCODING 8748
SWIDTH 589 0
DWIDTH 9 0
BBX 9 18 0 -3
BITMAP
3B80
3B80
3300
3200
3200
3200
3200
3200
3200
3200
3200
3200
3200
3200
3200
3200
EE00
EE00
ENDCHAR
STARTCHAR 222D
ENCODING 8749
SWIDTH 589 0
DWIDTH 9 0
BBX 10 17 0 -3
BITMAP
7FC0
6D80
6F00
6F00
6F00
6F00
6F00
6F00
6F00
6F00
6F00
6F00
6F00
6F00
6F00
6B00
DF00
ENDCHAR
STARTCHAR 2234
ENCODING 8756
SWIDTH 589 0
DWIDTH 9 0
BBX 7 9 1 1
BITMAP
38
38
38
00
00
00
E6
E6
E6
ENDCHAR
STARTCHAR 2235
ENCODING 8757
SWIDTH 589 0
DWIDTH 9 0
BBX 7 9 1 1
BITMAP
E6
E6
E6
00
00
00
38
38
38
ENDCHAR
STARTCHAR 2236
ENCODING 8758
SWIDTH 589 0
DWIDTH 9 0
BBX 3 9 3 1
BITMAP
E0
E0
E0
00
00
00
E0
E0
E0
ENDCHAR
STARTCHAR 2237
ENCODING 8759
SWIDTH 589 0
DWIDTH 9 0
BBX 7 9 1 1
BITMAP
E6
E6
E6
00
00
00
E6
E6
E6
ENDCHAR
STARTCHAR 2238
ENCODING 8760
SWIDTH 589 0
DWIDTH 9 0
BBX 8 6 1 4
BITMAP
38
38
38
00
FF
FF
ENDCHAR
STARTCHAR 2239
ENCODING 8761
SWIDTH 589 0
DWIDTH 9 0
BBX 8 9 1 1
BITMAP
07
07
07
00
F8
F8
07
07
07
ENDCHAR
STARTCHAR 223A
ENCODING 8762
SWIDTH 589 0
DWIDTH 9 0
BBX 9 9 0 0
BITMAP
E380
E380
E380
FF80
FF80
0000
E380
E380
E380
ENDCHAR
STARTCHAR 223B
ENCODING 8763
SWIDTH 589 0
DWIDTH 9 0
BBX 8 10 1 0
BITMAP
38
38
38
E1
FF
8E
00
38
38
38
ENDCHAR
STARTCHAR 223C
ENCODING 8764
SWIDTH 589 0
DWIDTH 9 0
BBX 8 3 1 4
BITMAP
E1
FF
8E
ENDCHAR
STARTCHAR 223D
ENCODING 8765
SWIDTH 589 0
DWIDTH 9 0
BBX 8 3 1 4
BITMAP
8E
FF
F1
ENDCHAR
STARTCHAR 2241
ENCODING 8769
SWIDTH 589 0
DWIDTH 9 0
BBX 8 9 1 1
BITMAP
0C
08
18
F9
FF
BE
30
30
20
ENDCHAR
STARTCHAR 2242
ENCODING 8770
SWIDTH 589 0
DWIDTH 9 0
BBX 8 6 1 2
BITMAP
FF
FF
00
E1
FF
8E
ENDCHAR
STARTCHAR 2243
ENCODING 8771
SWIDTH 589 0
DWIDTH 9 0
BBX 8 6 1 2
BITMAP
E1
FF
8E
00
FF
FF
ENDCHAR
STARTCHAR 2244
ENCODING 8772
SWIDTH 589 0
DWIDTH 9 0
BBX 8 10 1 0
BITMAP
06
04
4D
FF
9E
10
FF
FF
40
C0
ENDCHAR
STARTCHAR 2245
ENCODING 8773
SWIDTH 589 0
DWIDTH 9 0
BBX 8 10 1 0
BITMAP
F1
FF
8E
00
FF
FF
00
00
FF
FF
ENDCHAR
STARTCHAR 2246
ENCODING 8774
SWIDTH 589 0
DWIDTH 9 0
BBX 8 11 1 -1
BITMAP
F1
FF
8E
04
FF
FF
18
30
FF
FF
40
ENDCHAR
STARTCHAR 2247
ENCODING 8775
SWIDTH 589 0
DWIDTH 9 0
BBX 8 12 1 -2
BITMAP
06
FD
FF
18
FF
FF
30
30
FF
FF
60
20
ENDCHAR
STARTCHAR 2248
ENCODING 8776
SWIDTH 589 0
DWIDTH 9 0
BBX 8 6 1 2
BITMAP
F1
FF
8E
E1
FF
8E
ENDCHAR
STARTCHAR 2249
ENCODING 8777
SWIDTH 589 0
DWIDTH 9 0
BBX 8 10 1 0
BITMAP
08
0C
FD
FF
9E
F1
FF
BE
60
20
ENDCHAR
STARTCHAR 224A
ENCODING 8778
SWIDTH 589 0
DWIDTH 9 0
BBX 8 9 1 1
BITMAP
F1
FF
8E
E1
FF
8E
00
FF
FF
ENDCHAR
STARTCHAR 224B
ENCODING 8779
SWIDTH 589 0
DWIDTH 9 0
BBX 8 9 1 0
BITMAP
FF
FF
00
F1
FF
8E
E1
FF
8E
ENDCHAR
STARTCHAR 224C
ENCODING 8780
SWIDTH 589 0
DWIDTH 9 0
BBX 8 10 1 0
BITMAP
8E
FF
E1
00
FF
FF
00
00
FF
FF
ENDCHAR
STARTCHAR 224D
ENCODING 8781
SWIDTH 589 0
DWIDTH 9 0
BBX 8 7 1 2
BITMAP
83
FF
38
00
38
FF
83
ENDCHAR
STARTCHAR 224E
ENCODING 8782
SWIDTH 589 0
DWIDTH 9 0
BBX 8 10 1 0
BITMAP
38
7C
EF
C7
00
00
C7
E7
7C
38
ENDCHAR
STARTCHAR 224F
ENCODING 8783
SWIDTH 589 0
DWIDTH 9 0
BBX 8 8 1 2
BITMAP
38
7C
EF
C7
00
00
FF
FF
ENDCHAR
STARTCHAR 2250
ENCODING 8784
SWIDTH 589 0
DWIDTH 9 0
BBX 8 9 1 3
BITMAP
38
38
38
00
FF
FF
00
FF
FF
ENDCHAR
STARTCHAR 2251
ENCODING 8785
SWIDTH 589 0
DWIDTH 9 0
BBX 8 13 1 -1
BITMAP
38
38
38
00
FF
FF
00
FF
FF
00
38
38
38
ENDCHAR
STARTCHAR 2252
ENCODING 8786
SWIDTH 589 0
DWIDTH 9 0
BBX 8 13 1 -1
BITMAP
C0
C0
C0
00
FF
FF
00
FF
FF
00
07
07
07
ENDCHAR
STARTCHAR 2253
ENCODING 8787
SWIDTH 589 0
DWIDTH 9 0
BBX 8 13 1 -1
BITMAP
07
07
07
00
FF
FF
00
FF
FF
00
C0
C0
C0
ENDCHAR
STARTCHAR 2254
ENCODING 8788
SWIDTH 589 0
DWIDTH 9 0
BBX 8 6 1 2
BITMAP
BF
BF
80
80
BF
BF
ENDCHAR
STARTCHAR 2255
ENCODING 8789
SWIDTH 589 0
DWIDTH 9 0
BBX 8 6 1 2
BITMAP
FB
FB
03
03
FB
FB
ENDCHAR
STARTCHAR 2256
ENCODING 8790
SWIDTH 589 0
DWIDTH 9 0
BBX 8 6 1 2
BITMAP
FF
FF
6C
64
FF
FF
ENDCHAR
STARTCHAR 2257
ENCODING 8791
SWIDTH 589 0
DWIDTH 9 0
BBX 8 11 1 2
BITMAP
38
3C
6C
3C
38
FF
FF
00
00
FF
FF
ENDCHAR
STARTCHAR 2258
ENCODING 8792
SWIDTH 589 0
DWIDTH 9 0
BBX 8 9 1 3
BITMAP
7C
FE
82
00
FF
FF
00
FF
FF
ENDCHAR
STARTCHAR 2259
ENCODING 8793
SWIDTH 589 0
DWIDTH 9 0
BBX 8 11 1 2
BITMAP
10
38
38
28
6C
FF
FF
00
00
FF
FF
ENDCHAR
STARTCHAR 225A
ENCODING 8794
SWIDTH 589 0
DWIDTH 9 0
BBX 8 11 1 2
BITMAP
6C
28
38
38
10
FF
FF
00
00
FF
FF
ENDCHAR
STARTCHAR 225B
ENCODING 8795
SWIDTH 589 0
DWIDTH 9 0
BBX 8 13 1 2
BITMAP
10
10
DE
38
38
28
04
FF
FF
00
00
FF
FF
ENDCHAR
STARTCHAR 225C
ENCODING 8796
SWIDTH 589 0
DWIDTH 9 0
BBX 8 12 1 2
BITMAP
10
18
38
28
2C
7C
FF
FF
00
00
FF
FF
ENDCHAR
STARTCHAR 225D
ENCODING 8797
SWIDTH 589 0
DWIDTH 9 0
BBX 8 10 1 2
BITMAP
22
DE
BA
DA
00
FF
FF
00
FF
FF
ENDCHAR
STARTCHAR 225E
ENCODING 8798
SWIDTH 589 0
DWIDTH 9 0
BBX 8 10 1 2
BITMAP
FE
D2
D2
D2
FF
FF
00
00
FF
FF
ENDCHAR
STARTCHAR 225F
ENCODING 8799
SWIDTH 589 0
DWIDTH 9 0
BBX 8 12 1 2
BITMAP
38
08
18
10
10
10
FF
FF
00
00
FF
FF
ENDCHAR
STARTCHAR 2260
ENCODING 8800
SWIDTH 589 0
DWIDTH 9 0
BBX 8 10 1 0
BITMAP
03
06
FF
FF
18
30
FF
FF
C0
C0
ENDCHAR
STARTCHAR 2261
ENCODING 8801
SWIDTH 589 0
DWIDTH 9 0
BBX 8 9 1 0
BITMAP
FF
FF
00
FF
FF
00
00
FF
FF
ENDCHAR
STARTCHAR 2262
ENCODING 8802
SWIDTH 589 0
DWIDTH 9 0
BBX 8 11 1 -1
BITMAP
06
FF
FF
18
FF
FF
30
30
FF
FF
C0
ENDCHAR
STARTCHAR 2263
ENCODING 8803
SWIDTH 589 0
DWIDTH 9 0
BBX 8 12 1 -1
BITMAP
FF
FF
00
FF
FF
00
00
FF
FF
00
FF
FF
ENDCHAR
STARTCHAR 2264
ENCODING 8804
SWIDTH 589 0
DWIDTH 9 0
BBX 8 9 1 0
BITMAP
07
3F
F0
E0
7C
0F
01
FF
FF
ENDCHAR
STARTCHAR 2265
ENCODING 8805
SWIDTH 589 0
DWIDTH 9 0
BBX 8 9 1 0
BITMAP
C0
F8
1F
0F
7C
E0
80
FF
FF
ENDCHAR
STARTCHAR 2266
ENCODING 8806
SWIDTH 589 0
DWIDTH 9 0
BBX 8 12 1 -2
BITMAP
07
3F
F0
E0
7C
0F
01
FF
FF
00
FF
FF
ENDCHAR
STARTCHAR 2267
ENCODING 8807
SWIDTH 589 0
DWIDTH 9 0
BBX 8 12 1 -2
BITMAP
C0
F8
1F
0F
7C
E0
80
FF
FF
00
FF
FF
ENDCHAR
STARTCHAR 2268
ENCODING 8808
SWIDTH 589 0
DWIDTH 9 0
BBX 8 13 1 -3
BITMAP
07
3F
F0
E0
7C
0F
05
FF
FF
18
FF
FF
40
ENDCHAR
STARTCHAR 2269
ENCODING 8809
SWIDTH 589 0
DWIDTH 9 0
BBX 8 13 1 -3
BITMAP
C0
F8
1F
0F
7C
E0
84
FF
FF
18
FF
FF
40
ENDCHAR
STARTCHAR 226D
ENCODING 8813
SWIDTH 589 0
DWIDTH 9 0
BBX 8 11 1 0
BITMAP
04
0C
8F
FF
38
10
38
FF
A3
60
60
ENDCHAR
STARTCHAR 226E
ENCODING 8814
SWIDTH 589 0
DWIDTH 9 0
BBX 8 10 1 0
BITMAP
04
05
0F
3C
F8
D0
78
3F
23
20
ENDCHAR
STARTCHAR 226F
ENCODING 8815
SWIDTH 589 0
DWIDTH 9 0
BBX 8 10 1 0
BITMAP
0C
88
E8
78
1F
17
3E
F0
E0
40
ENDCHAR
STARTCHAR 2270
ENCODING 8816
SWIDTH 589 0
DWIDTH 9 0
BBX 8 13 1 -2
BITMAP
04
04
0F
3F
F8
F8
7C
1F
31
FF
FF
60
20
ENDCHAR
STARTCHAR 2271
ENCODING 8817
SWIDTH 589 0
DWIDTH 9 0
BBX 8 13 1 -2
BITMAP
08
08
D8
F8
1F
3F
7C
E0
E0
FF
FF
C0
40
ENDCHAR
STARTCHAR 2272
ENCODING 8818
SWIDTH 589 0
DWIDTH 9 0
BBX 8 9 1 0
BITMAP
03
1F
F8
C0
FC
1F
03
FF
FF
ENDCHAR
STARTCHAR 2273
ENCODING 8819
SWIDTH 589 0
DWIDTH 9 0
BBX 8 9 1 0
BITMAP
80
F0
3E
07
3E
F0
80
FF
FF
ENDCHAR
STARTCHAR 2274
ENCODING 8820
SWIDTH 589 0
DWIDTH 9 0
BBX 8 11 1 -1
BITMAP
04
07
1F
F8
C8
FC
1F
13
FF
FF
60
ENDCHAR
STARTCHAR 2275
ENCODING 8821
SWIDTH 589 0
DWIDTH 9 0
BBX 8 12 1 -1
BITMAP
08
98
F8
3E
37
3E
F0
E0
61
FF
CE
40
ENDCHAR
STARTCHAR 2276
ENCODING 8822
SWIDTH 589 0
DWIDTH 9 0
BBX 8 12 1 -2
BITMAP
07
7E
F0
F0
3F
87
F0
3E
07
7E
F0
80
ENDCHAR
STARTCHAR 2277
ENCODING 8823
SWIDTH 589 0
DWIDTH 9 0
BBX 8 12 1 -2
BITMAP
E0
FC
0F
1F
F8
C3
1F
F8
C0
FC
1F
01
ENDCHAR
STARTCHAR 2278
ENCODING 8824
SWIDTH 589 0
DWIDTH 9 0
BBX 8 15 1 -3
BITMAP
06
04
0F
7E
FC
F8
3F
9F
F0
3E
37
7E
F0
E0
C0
ENDCHAR
STARTCHAR 2279
ENCODING 8825
SWIDTH 589 0
DWIDTH 9 0
BBX 8 15 1 -3
BITMAP
06
04
EC
FC
0F
1F
F8
DB
3F
F8
F0
FC
7F
61
C0
ENDCHAR
STARTCHAR 227A
ENCODING 8826
SWIDTH 589 0
DWIDTH 9 0
BBX 8 11 1 -1
BITMAP
01
03
06
1C
F8
F0
7C
0E
03
01
01
ENDCHAR
STARTCHAR 227B
ENCODING 8827
SWIDTH 589 0
DWIDTH 9 0
BBX 8 11 1 -1
BITMAP
80
80
C0
78
3F
1F
7C
E0
C0
80
80
ENDCHAR
STARTCHAR 227C
ENCODING 8828
SWIDTH 589 0
DWIDTH 9 0
BBX 8 15 1 -3
BITMAP
01
03
07
1C
F8
F0
7C
0E
E7
F1
1D
0E
07
03
01
ENDCHAR
STARTCHAR 227D
ENCODING 8829
SWIDTH 589 0
DWIDTH 9 0
BBX 8 15 1 -3
BITMAP
80
80
C0
70
3F
1F
7C
E0
C7
9E
F0
E0
C0
80
80
ENDCHAR
STARTCHAR 227E
ENCODING 8830
SWIDTH 589 0
DWIDTH 9 0
BBX 8 14 1 -2
BITMAP
01
01
07
0E
FC
F0
F8
1E
07
03
01
E1
FF
8E
ENDCHAR
STARTCHAR 227F
ENCODING 8831
SWIDTH 589 0
DWIDTH 9 0
BBX 8 14 1 -2
BITMAP
80
80
C0
E0
7F
1F
3F
78
E0
80
80
61
FF
8E
ENDCHAR
STARTCHAR 2280
ENCODING 8832
SWIDTH 589 0
DWIDTH 9 0
BBX 8 13 1 -2
BITMAP
06
07
0F
0E
1C
F8
F8
7C
1E
33
31
21
60
ENDCHAR
STARTCHAR 2281
ENCODING 8833
SWIDTH 589 0
DWIDTH 9 0
BBX 8 13 1 -2
BITMAP
0C
88
98
D8
70
3F
3F
7C
E0
E0
E0
C0
40
ENDCHAR
STARTCHAR 2282
ENCODING 8834
SWIDTH 589 0
DWIDTH 9 0
BBX 8 8 1 1
BITMAP
7F
FF
C0
80
80
C0
FF
7F
ENDCHAR
STARTCHAR 2283
ENCODING 8835
SWIDTH 589 0
DWIDTH 9 0
BBX 8 8 1 1
BITMAP
FC
FE
06
03
03
06
FE
FC
ENDCHAR
STARTCHAR 2284
ENCODING 8836
SWIDTH 589 0
DWIDTH 9 0
BBX 8 12 1 -1
BITMAP
04
0C
7F
FF
D8
98
90
F0
FF
7F
60
40
ENDCHAR
STARTCHAR 2285
ENCODING 8837
SWIDTH 589 0
DWIDTH 9 0
BBX 8 12 1 -1
BITMAP
04
0C
FC
FE
1E
1B
13
36
FE
FC
60
40
ENDCHAR
STARTCHAR 2286
ENCODING 8838
SWIDTH 589 0
DWIDTH 9 0
BBX 8 11 1 0
BITMAP
3F
FF
C0
80
80
C0
FF
7F
00
FF
FF
ENDCHAR
STARTCHAR 2287
ENCODING 8839
SWIDTH 589 0
DWIDTH 9 0
BBX 8 11 1 0
BITMAP
F8
FE
06
03
03
06
FE
FC
00
FF
FF
ENDCHAR
STARTCHAR 2288
ENCODING 8840
SWIDTH 589 0
DWIDTH 9 0
BBX 8 14 1 -2
BITMAP
04
3F
FF
C8
98
90
D0
FF
7F
60
FF
FF
C0
40
ENDCHAR
STARTCHAR 2289
ENCODING 8841
SWIDTH 589 0
DWIDTH 9 0
BBX 8 14 1 -2
BITMAP
04
FC
FE
0E
1B
13
16
FE
FC
60
FF
FF
C0
40
ENDCHAR
STARTCHAR 228A
ENCODING 8842
SWIDTH 589 0
DWIDTH 9 0
BBX 8 13 1 -2
BITMAP
3F
FF
C0
80
80
C0
FF
7F
0C
FF
FF
70
20
ENDCHAR
STARTCHAR 228B
ENCODING 8843
SWIDTH 589 0
DWIDTH 9 0
BBX 8 13 1 -2
BITMAP
F8
FE
06
03
03
06
FE
FC
0C
FF
FF
70
20
ENDCHAR
STARTCHAR 228D
ENCODING 8845
SWIDTH 589 0
DWIDTH 9 0
BBX 8 11 1 0
BITMAP
83
83
83
83
83
9B
9B
C2
C6
FE
7C
ENDCHAR
STARTCHAR 228E
ENCODING 8846
SWIDTH 589 0
DWIDTH 9 0
BBX 8 11 1 0
BITMAP
83
83
83
83
93
BB
93
C2
C6
FE
7C
ENDCHAR
STARTCHAR 228F
ENCODING 8847
SWIDTH 589 0
DWIDTH 9 0
BBX 8 9 1 1
BITMAP
FF
FF
80
80
80
80
80
FF
FF
ENDCHAR
STARTCHAR 2290
ENCODING 8848
SWIDTH 589 0
DWIDTH 9 0
BBX 8 9 1 1
BITMAP
FF
FF
03
03
03
03
03
FF
FF
ENDCHAR
STARTCHAR 2291
ENCODING 8849
SWIDTH 589 0
DWIDTH 9 0
BBX 8 10 1 0
BITMAP
FF
FF
80
80
80
FF
FF
00
FF
FF
ENDCHAR
STARTCHAR 2292
ENCODING 8850
SWIDTH 589 0
DWIDTH 9 0
BBX 8 10 1 0
BITMAP
FF
FF
03
03
03
FF
FF
00
FF
FF
ENDCHAR
STARTCHAR 2293
ENCODING 8851
SWIDTH 589 0
DWIDTH 9 0
BBX 9 10 0 0
BITMAP
FF80
FF80
C180
C180
C180
C180
C180
C180
C180
C180
ENDCHAR
STARTCHAR 2294
ENCODING 8852
SWIDTH 589 0
DWIDTH 9 0
BBX 9 10 0 0
BITMAP
C180
C180
C180
C180
C180
C180
C180
C180
FF80
FF80
ENDCHAR
STARTCHAR 2295
ENCODING 8853
SWIDTH 589 0
DWIDTH 9 0
BBX 9 10 0 0
BITMAP
1C00
3F00
6300
C980
FE80
FE80
C980
6B00
7F00
1E00
ENDCHAR
STARTCHAR 2296
ENCODING 8854
SWIDTH 589 0
DWIDTH 9 0
BBX 9 10 0 0
BITMAP
1C00
3F00
6300
C180
FE80
FE80
C180
6300
7F00
1E00
ENDCHAR
STARTCHAR 2297
ENCODING 8855
SWIDTH 589 0
DWIDTH 9 0
BBX 9 10 0 0
BITMAP
1C00
3F00
6300
F780
DC80
DC80
F780
6300
7F00
1E00
ENDCHAR
STARTCHAR 2298
ENCODING 8856
SWIDTH 589 0
DWIDTH 9 0
BBX 9 10 0 0
BITMAP
1C00
3F00
6300
C780
CC80
D880
F180
6300
7F00
1E00
ENDCHAR
STARTCHAR 2299
ENCODING 8857
SWIDTH 589 0
DWIDTH 9 0
BBX 9 10 0 0
BITMAP
1C00
3F00
6300
C180
DC80
DC80
DD80
6300
7F00
1E00
ENDCHAR
STARTCHAR 229A
ENCODING 8858
SWIDTH 589 0
DWIDTH 9 0
BBX 9 10 0 0
BITMAP
1C00
3F00
6300
DD80
DC80
D680
DD80
6F00
7F00
1E00
ENDCHAR
STARTCHAR 229B
ENCODING 8859
SWIDTH 589 0
DWIDTH 9 0
BBX 9 9 0 0
BITMAP
1E00
7F00
4980
FF80
DC80
FF80
4980
7F00
1E00
ENDCHAR
STARTCHAR 229C
ENCODING 8860
SWIDTH 589 0
DWIDTH 9 0
BBX 9 10 0 0
BITMAP
1C00
3F00
6300
C180
FE80
C080
FF80
6300
7F00
1E00
ENDCHAR
STARTCHAR 229D
ENCODING 8861
SWIDTH 589 0
DWIDTH 9 0
BBX 9 10 0 0
BITMAP
1C00
3F00
6300
C180
DC80
DC80
C180
6300
7F00
1E00
ENDCHAR
STARTCHAR 229E
ENCODING 8862
SWIDTH 589 0
DWIDTH 9 0
BBX 9 9 0 1
BITMAP
FF80
FF80
C880
C880
FE80
FE80
C880
FF80
FF80
ENDCHAR
STARTCHAR 229F
ENCODING 8863
SWIDTH 589 0
DWIDTH 9 0
BBX 9 9 0 1
BITMAP
FF80
FF80
C080
C080
FE80
FE80
C080
FF80
FF80
ENDCHAR
STARTCHAR 22A0
ENCODING 8864
SWIDTH 589 0
DWIDTH 9 0
BBX 9 9 0 1
BITMAP
FF80
FF80
E280
D680
CC80
D680
E280
FF80
FF80
ENDCHAR
STARTCHAR 22A1
ENCODING 8865
SWIDTH 589 0
DWIDTH 9 0
BBX 9 9 0 1
BITMAP
FF80
FF80
C080
DC80
DC80
DC80
C080
FF80
FF80
ENDCHAR
STARTCHAR 22A2
ENCODING 8866
SWIDTH 589 0
DWIDTH 9 0
BBX 8 10 1 0
BITMAP
80
80
80
80
FF
FF
80
80
80
80
ENDCHAR
STARTCHAR 22A3
ENCODING 8867
SWIDTH 589 0
DWIDTH 9 0
BBX 8 10 1 0
BITMAP
03
03
03
03
FF
FF
03
03
03
03
ENDCHAR
STARTCHAR 22A4
ENCODING 8868
SWIDTH 589 0
DWIDTH 9 0
BBX 8 10 1 0
BITMAP
FF
FF
10
10
10
10
10
10
10
10
ENDCHAR
STARTCHAR 22B2
ENCODING 8882
SWIDTH 589 0
DWIDTH 9 0
BBX 8 8 1 1
BITMAP
01
0F
3F
F3
C3
7B
1F
03
ENDCHAR
STARTCHAR 22B3
ENCODING 8883
SWIDTH 589 0
DWIDTH 9 0
BBX 8 8 1 1
BITMAP
80
E0
F8
8F
87
BE
F0
80
ENDCHAR
STARTCHAR 22B4
ENCODING 8884
SWIDTH 589 0
DWIDTH 9 0
BBX 8 9 1 0
BITMAP
07
3F
F3
E3
7F
0F
01
FF
FF
ENDCHAR
STARTCHAR 22B5
ENCODING 8885
SWIDTH 589 0
DWIDTH 9 0
BBX 8 9 1 0
BITMAP
C0
F8
9F
8F
FC
E0
80
FF
FF
ENDCHAR
STARTCHAR 22B8
ENCODING 8888
SWIDTH 589 0
DWIDTH 9 0
BBX 9 4 0 3
BITMAP
0700
FC80
FC80
0700
ENDCHAR
STARTCHAR 22C2
ENCODING 8898
SWIDTH 589 0
DWIDTH 9 0
BBX 8 15 1 -3
BITMAP
7C
FE
C6
C2
83
83
83
83
83
83
83
83
83
83
83
ENDCHAR
STARTCHAR 22C3
ENCODING 8899
SWIDTH 589 0
DWIDTH 9 0
BBX 8 16 1 -4
BITMAP
83
83
83
83
83
83
83
83
83
83
83
83
C2
C6
FE
7C
ENDCHAR
STARTCHAR 22C4
ENCODING 8900
SWIDTH 589 0
DWIDTH 9 0
BBX 9 9 0 1
BITMAP
0800
1C00
3600
6300
C180
6100
3200
1C00
0800
ENDCHAR
STARTCHAR 22C5
ENCODING 8901
SWIDTH 589 0
DWIDTH 9 0
BBX 3 3 3 4
BITMAP
E0
E0
E0
ENDCHAR
STARTCHAR 22C6
ENCODING 8902
SWIDTH 589 0
DWIDTH 9 0
BBX 6 6 2 3
BITMAP
20
20
FC
70
50
88
ENDCHAR
STARTCHAR 22CD
ENCODING 8909
SWIDTH 589 0
DWIDTH 9 0
BBX 8 6 1 2
BITMAP
8E
FF
F1
00
FF
FF
ENDCHAR
STARTCHAR 22CE
ENCODING 8910
SWIDTH 589 0
DWIDTH 9 0
BBX 9 10 0 0
BITMAP
E380
7700
3600
1E00
1C00
1C00
1C00
1C00
0C00
0C00
ENDCHAR
STARTCHAR 22CF
ENCODING 8911
SWIDTH 589 0
DWIDTH 9 0
BBX 9 10 0 0
BITMAP
0C00
0C00
1C00
1C00
1C00
1C00
1E00
3600
7700
E380
ENDCHAR
STARTCHAR 22D0
ENCODING 8912
SWIDTH 589 0
DWIDTH 9 0
BBX 8 11 1 0
BITMAP
1F
7F
60
DF
9F
B0
9F
DF
E0
7F
1F
ENDCHAR
STARTCHAR 22D1
ENCODING 8913
SWIDTH 589 0
DWIDTH 9 0
BBX 8 11 1 0
BITMAP
F0
FC
0E
F6
FA
1B
FA
F6
0E
FC
F8
ENDCHAR
STARTCHAR 22DA
ENCODING 8922
SWIDTH 589 0
DWIDTH 9 0
BBX 8 16 1 -4
BITMAP
07
3F
F0
E0
7C
0F
01
FF
FF
80
E0
FC
0F
1F
FC
E0
ENDCHAR
STARTCHAR 22DB
ENCODING 8923
SWIDTH 589 0
DWIDTH 9 0
BBX 8 16 1 -4
BITMAP
C0
F8
1F
0F
7C
E0
80
FF
FF
01
0F
7E
E0
F0
3E
07
ENDCHAR
STARTCHAR 22DC
ENCODING 8924
SWIDTH 589 0
DWIDTH 9 0
BBX 8 9 1 0
BITMAP
FF
FF
01
0F
7E
F0
F0
3E
07
ENDCHAR
STARTCHAR 22DD
ENCODING 8925
SWIDTH 589 0
DWIDTH 9 0
BBX 8 9 1 0
BITMAP
FF
FF
80
E0
FC
0F
1F
FC
E0
ENDCHAR
STARTCHAR 22DE
ENCODING 8926
SWIDTH 589 0
DWIDTH 9 0
BBX 8 15 1 -3
BITMAP
01
03
07
0E
1D
F1
E7
0E
7C
F0
F8
1C
07
03
01
ENDCHAR
STARTCHAR 22DF
ENCODING 8927
SWIDTH 589 0
DWIDTH 9 0
BBX 8 15 1 -3
BITMAP
80
80
C0
E0
F0
9E
C7
E0
7C
1F
3F
70
C0
80
80
ENDCHAR
STARTCHAR 22E0
ENCODING 8928
SWIDTH 589 0
DWIDTH 9 0
BBX 8 17 1 -4
BITMAP
0C
0D
0F
0E
1C
F8
F8
3C
1E
F3
F9
3D
3E
23
63
61
20
ENDCHAR
STARTCHAR 22E1
ENCODING 8929
SWIDTH 589 0
DWIDTH 9 0
BBX 8 16 1 -3
BITMAP
0C
8C
8C
E8
78
1F
1F
78
F0
FF
BE
70
F0
E0
E0
E0
ENDCHAR
STARTCHAR 22E2
ENCODING 8930
SWIDTH 589 0
DWIDTH 9 0
BBX 8 14 1 -2
BITMAP
06
04
FF
FF
88
98
98
FF
FF
30
FF
FF
60
C0
ENDCHAR
STARTCHAR 22E3
ENCODING 8931
SWIDTH 589 0
DWIDTH 9 0
BBX 8 14 1 -2
BITMAP
06
04
FF
FF
0B
1B
1B
FF
FF
30
FF
FF
60
C0
ENDCHAR
STARTCHAR 22E4
ENCODING 8932
SWIDTH 589 0
DWIDTH 9 0
BBX 8 12 1 -2
BITMAP
FF
FF
80
80
80
FF
FF
0C
FF
FF
70
20
ENDCHAR
STARTCHAR 22E5
ENCODING 8933
SWIDTH 589 0
DWIDTH 9 0
BBX 8 12 1 -2
BITMAP
FF
FF
03
03
03
FF
FF
0C
FF
FF
70
20
ENDCHAR
STARTCHAR 22E6
ENCODING 8934
SWIDTH 589 0
DWIDTH 9 0
BBX 8 11 1 -2
BITMAP
03
1F
F8
C0
FC
1F
1B
FF
FF
30
30
ENDCHAR
STARTCHAR 22E7
ENCODING 8935
SWIDTH 589 0
DWIDTH 9 0
BBX 8 11 1 -2
BITMAP
80
F0
3E
07
3E
F8
98
FF
FF
30
30
ENDCHAR
STARTCHAR 22E8
ENCODING 8936
SWIDTH 589 0
DWIDTH 9 0
BBX 8 16 1 -4
BITMAP
01
01
07
0E
FC
F0
F8
1E
07
0B
19
F9
FF
BE
30
30
ENDCHAR
STARTCHAR 22E9
ENCODING 8937
SWIDTH 589 0
DWIDTH 9 0
BBX 8 16 1 -4
BITMAP
80
80
C0
E0
7F
1F
3F
78
E0
90
98
79
FF
BE
30
30
ENDCHAR
STARTCHAR 22EF
ENCODING 8943
SWIDTH 589 0
DWIDTH 9 0
BBX 9 3 0 4
BITMAP
FD80
FD80
FD80
ENDCHAR
STARTCHAR 2304
ENCODING 8964
SWIDTH 589 0
DWIDTH 9 0
BBX 7 5 1 -2
BITMAP
C6
44
28
38
10
ENDCHAR
STARTCHAR 2308
ENCODING 8968
SWIDTH 589 0
DWIDTH 9 0
BBX 4 15 3 -3
BITMAP
F0
F0
C0
C0
C0
C0
C0
C0
C0
C0
C0
C0
C0
C0
C0
ENDCHAR
STARTCHAR 2309
ENCODING 8969
SWIDTH 589 0
DWIDTH 9 0
BBX 4 15 2 -3
BITMAP
F0
F0
30
30
30
30
30
30
30
30
30
30
30
30
30
ENDCHAR
STARTCHAR 230A
ENCODING 8970
SWIDTH 589 0
DWIDTH 9 0
BBX 4 14 3 -2
BITMAP
C0
C0
C0
C0
C0
C0
C0
C0
C0
C0
C0
C0
C0
F0
ENDCHAR
STARTCHAR 230B
ENCODING 8971
SWIDTH 589 0
DWIDTH 9 0
BBX 4 14 2 -2
BITMAP
30
30
30
30
30
30
30
30
30
30
30
30
30
F0
ENDCHAR
STARTCHAR 2310
ENCODING 8976
SWIDTH 589 0
DWIDTH 9 0
BBX 8 4 1 3
BITMAP
FF
FF
80
80
ENDCHAR
STARTCHAR 2320
ENCODING 8992
SWIDTH 589 0
DWIDTH 9 0
BBX 5 18 4 -4
BITMAP
70
58
C0
C0
C0
C0
C0
C0
C0
C0
C0
C0
C0
C0
C0
C0
C0
C0
ENDCHAR
STARTCHAR 2321
ENCODING 8993
SWIDTH 589 0
DWIDTH 9 0
BBX 5 18 1 -4
BITMAP
18
18
18
18
18
18
18
18
18
18
10
10
10
10
30
30
A0
E0
ENDCHAR
STARTCHAR 239B
ENCODING 9115
SWIDTH 589 0
DWIDTH 9 0
BBX 5 18 2 -4
BITMAP
18
18
30
30
70
60
60
60
E0
C0
C0
C0
C0
C0
C0
C0
C0
C0
ENDCHAR
STARTCHAR 239C
ENCODING 9116
SWIDTH 589 0
DWIDTH 9 0
BBX 2 18 2 -4
BITMAP
C0
C0
C0
C0
C0
C0
C0
C0
C0
C0
C0
C0
C0
C0
C0
C0
C0
C0
ENDCHAR
STARTCHAR 239D
ENCODING 9117
SWIDTH 589 0
DWIDTH 9 0
BBX 5 18 2 -4
BITMAP
C0
C0
C0
C0
C0
C0
C0
C0
C0
C0
60
60
60
70
30
30
18
18
ENDCHAR
STARTCHAR 239E
ENCODING 9118
SWIDTH 589 0
DWIDTH 9 0
BBX 5 18 2 -4
BITMAP
C0
E0
60
60
30
30
30
38
18
18
18
18
18
18
18
18
18
18
ENDCHAR
STARTCHAR 239F
ENCODING 9119
SWIDTH 589 0
DWIDTH 9 0
BBX 2 18 5 -4
BITMAP
C0
C0
C0
C0
C0
C0
C0
C0
C0
C0
C0
C0
C0
C0
C0
C0
C0
C0
ENDCHAR
STARTCHAR 23A0
ENCODING 9120
SWIDTH 589 0
DWIDTH 9 0
BBX 5 18 2 -4
BITMAP
18
18
18
18
18
18
18
18
18
18
18
30
30
30
60
60
C0
C0
ENDCHAR
STARTCHAR 23A1
ENCODING 9121
SWIDTH 589 0
DWIDTH 9 0
BBX 5 18 2 -4
BITMAP
F8
F8
C0
C0
C0
C0
C0
C0
C0
C0
C0
C0
C0
C0
C0
C0
C0
C0
ENDCHAR
STARTCHAR 23A2
ENCODING 9122
SWIDTH 589 0
DWIDTH 9 0
BBX 2 18 2 -4
BITMAP
C0
C0
C0
C0
C0
C0
C0
C0
C0
C0
C0
C0
C0
C0
C0
C0
C0
C0
ENDCHAR
STARTCHAR 23A3
ENCODING 9123
SWIDTH 589 0
DWIDTH 9 0
BBX 5 18 2 -4
BITMAP
C0
C0
C0
C0
C0
C0
C0
C0
C0
C0
C0
C0
C0
C0
C0
C0
F8
F8
ENDCHAR
STARTCHAR 23A4
ENCODING 9124
SWIDTH 589 0
DWIDTH 9 0
BBX 5 18 2 -4
BITMAP
F8
F8
18
18
18
18
18
18
18
18
18
18
18
18
18
18
18
18
ENDCHAR
STARTCHAR 23A5
ENCODING 9125
SWIDTH 589 0
DWIDTH 9 0
BBX 2 18 5 -4
BITMAP
C0
C0
C0
C0
C0
C0
C0
C0
C0
C0
C0
C0
C0
C0
C0
C0
C0
C0
ENDCHAR
STARTCHAR 23A6
ENCODING 9126
SWIDTH 589 0
DWIDTH 9 0
BBX 5 18 2 -4
BITMAP
18
18
18
18
18
18
18
18
18
18
18
18
18
18
18
18
F8
F8
ENDCHAR
STARTCHAR 23A7
ENCODING 9127
SWIDTH 589 0
DWIDTH 9 0
BBX 5 19 4 -5
BITMAP
78
F8
C0
C0
C0
C0
C0
C0
C0
C0
C0
C0
C0
C0
C0
C0
C0
C0
C0
ENDCHAR
STARTCHAR 23A8
ENCODING 9128
SWIDTH 589 0
DWIDTH 9 0
BBX 6 18 0 -4
BITMAP
0C
0C
0C
0C
0C
0C
1C
18
F8
F8
18
1C
0C
0C
0C
0C
0C
0C
ENDCHAR
STARTCHAR 23A9
ENCODING 9129
SWIDTH 589 0
DWIDTH 9 0
BBX 5 18 4 -4
BITMAP
C0
C0
C0
C0
C0
C0
C0
C0
C0
C0
C0
C0
C0
C0
C0
C0
F8
78
ENDCHAR
STARTCHAR 23AA
ENCODING 9130
SWIDTH 589 0
DWIDTH 9 0
BBX 2 18 4 -4
BITMAP
C0
C0
C0
C0
C0
C0
C0
C0
C0
C0
C0
C0
C0
C0
C0
C0
C0
C0
ENDCHAR
STARTCHAR 23AB
ENCODING 9131
SWIDTH 589 0
DWIDTH 9 0
BBX 6 19 0 -5
BITMAP
F0
F8
18
0C
0C
0C
0C
0C
0C
0C
0C
0C
0C
0C
0C
0C
0C
0C
0C
ENDCHAR
STARTCHAR 23AC
ENCODING 9132
SWIDTH 589 0
DWIDTH 9 0
BBX 5 18 4 -4
BITMAP
C0
C0
C0
C0
C0
C0
C0
C0
F8
78
E0
C0
C0
C0
C0
C0
C0
C0
ENDCHAR
STARTCHAR 23AD
ENCODING 9133
SWIDTH 589 0
DWIDTH 9 0
BBX 6 18 0 -4
BITMAP
0C
0C
0C
0C
0C
0C
0C
0C
0C
0C
0C
0C
0C
0C
0C
18
F8
F0
ENDCHAR
STARTCHAR 23AE
ENCODING 9134
SWIDTH 589 0
DWIDTH 9 0
BBX 2 18 4 -4
BITMAP
C0
C0
C0
C0
C0
C0
C0
C0
C0
C0
C0
C0
C0
C0
C0
C0
C0
C0
ENDCHAR
STARTCHAR 2500
ENCODING 9472
SWIDTH 589 0
DWIDTH 9 0
BBX 9 2 0 5
BITMAP
FF80
FF80
ENDCHAR
STARTCHAR 2501
ENCODING 9473
SWIDTH 589 0
DWIDTH 9 0
BBX 9 3 0 4
BITMAP
FF80
FF80
FF80
ENDCHAR
STARTCHAR 2502
ENCODING 9474
SWIDTH 589 0
DWIDTH 9 0
BBX 1 18 4 -4
BITMAP
80
80
80
80
80
80
80
80
80
80
80
80
80
80
80
80
80
80
ENDCHAR
STARTCHAR 2503
ENCODING 9475
SWIDTH 589 0
DWIDTH 9 0
BBX 3 18 3 -4
BITMAP
E0
E0
E0
E0
E0
E0
E0
E0
E0
E0
E0
E0
E0
E0
E0
E0
E0
E0
ENDCHAR
STARTCHAR 2504
ENCODING 9476
SWIDTH 589 0
DWIDTH 9 0
BBX 9 2 0 5
BITMAP
ED80
ED80
ENDCHAR
STARTCHAR 2505
ENCODING 9477
SWIDTH 589 0
DWIDTH 9 0
BBX 9 3 0 4
BITMAP
ED80
ED80
ED80
ENDCHAR
STARTCHAR 2506
ENCODING 9478
SWIDTH 589 0
DWIDTH 9 0
BBX 1 17 4 -3
BITMAP
80
80
80
80
80
00
80
80
80
80
80
00
80
80
80
80
80
ENDCHAR
STARTCHAR 2507
ENCODING 9479
SWIDTH 589 0
DWIDTH 9 0
BBX 3 17 3 -3
BITMAP
E0
E0
E0
E0
E0
00
E0
E0
E0
E0
E0
00
E0
E0
E0
E0
E0
ENDCHAR
STARTCHAR 2508
ENCODING 9480
SWIDTH 589 0
DWIDTH 9 0
BBX 9 2 0 5
BITMAP
D580
D580
ENDCHAR
STARTCHAR 2509
ENCODING 9481
SWIDTH 589 0
DWIDTH 9 0
BBX 9 3 0 4
BITMAP
D580
D580
D580
ENDCHAR
STARTCHAR 250A
ENCODING 9482
SWIDTH 589 0
DWIDTH 9 0
BBX 1 17 4 -3
BITMAP
80
80
80
00
00
80
80
80
00
80
80
80
00
00
80
80
80
ENDCHAR
STARTCHAR 250B
ENCODING 9483
SWIDTH 589 0
DWIDTH 9 0
BBX 3 17 3 -3
BITMAP
E0
E0
E0
00
00
E0
E0
E0
00
E0
E0
E0
00
00
E0
E0
E0
ENDCHAR
STARTCHAR 250C
ENCODING 9484
SWIDTH 589 0
DWIDTH 9 0
BBX 5 11 4 -4
BITMAP
F8
F8
80
80
80
80
80
80
80
80
80
ENDCHAR
STARTCHAR 250D
ENCODING 9485
SWIDTH 589 0
DWIDTH 9 0
BBX 5 11 4 -4
BITMAP
F8
F8
F8
80
80
80
80
80
80
80
80
ENDCHAR
STARTCHAR 250E
ENCODING 9486
SWIDTH 589 0
DWIDTH 9 0
BBX 6 11 3 -4
BITMAP
FC
FC
E0
E0
E0
E0
E0
E0
E0
E0
E0
ENDCHAR
STARTCHAR 250F
ENCODING 9487
SWIDTH 589 0
DWIDTH 9 0
BBX 6 11 3 -4
BITMAP
FC
FC
FC
E0
E0
E0
E0
E0
E0
E0
E0
ENDCHAR
STARTCHAR 2510
ENCODING 9488
SWIDTH 589 0
DWIDTH 9 0
BBX 5 11 0 -4
BITMAP
F8
F8
08
08
08
08
08
08
08
08
08
ENDCHAR
STARTCHAR 2511
ENCODING 9489
SWIDTH 589 0
DWIDTH 9 0
BBX 5 11 0 -4
BITMAP
F8
F8
F8
08
08
08
08
08
08
08
08
ENDCHAR
STARTCHAR 2512
ENCODING 9490
SWIDTH 589 0
DWIDTH 9 0
BBX 6 11 0 -4
BITMAP
FC
FC
1C
1C
1C
1C
1C
1C
1C
1C
1C
ENDCHAR
STARTCHAR 2513
ENCODING 9491
SWIDTH 589 0
DWIDTH 9 0
BBX 6 11 0 -4
BITMAP
FC
FC
FC
1C
1C
1C
1C
1C
1C
1C
1C
ENDCHAR
STARTCHAR 2514
ENCODING 9492
SWIDTH 589 0
DWIDTH 9 0
BBX 5 10 4 4
BITMAP
80
80
80
80
80
80
80
80
80
F8
ENDCHAR
STARTCHAR 2515
ENCODING 9493
SWIDTH 589 0
DWIDTH 9 0
BBX 5 11 4 3
BITMAP
80
80
80
80
80
80
80
80
F8
F8
F8
ENDCHAR
STARTCHAR 2516
ENCODING 9494
SWIDTH 589 0
DWIDTH 9 0
BBX 6 10 3 4
BITMAP
E0
E0
E0
E0
E0
E0
E0
E0
E0
FC
ENDCHAR
STARTCHAR 2517
ENCODING 9495
SWIDTH 589 0
DWIDTH 9 0
BBX 6 11 3 3
BITMAP
E0
E0
E0
E0
E0
E0
E0
E0
FC
FC
FC
ENDCHAR
STARTCHAR 2518
ENCODING 9496
SWIDTH 589 0
DWIDTH 9 0
BBX 5 10 0 4
BITMAP
08
08
08
08
08
08
08
08
08
F8
ENDCHAR
STARTCHAR 2519
ENCODING 9497
SWIDTH 589 0
DWIDTH 9 0
BBX 5 11 0 3
BITMAP
08
08
08
08
08
08
08
08
F8
F8
F8
ENDCHAR
STARTCHAR 251A
ENCODING 9498
SWIDTH 589 0
DWIDTH 9 0
BBX 6 10 0 4
BITMAP
1C
1C
1C
1C
1C
1C
1C
1C
1C
FC
ENDCHAR
STARTCHAR 251B
ENCODING 9499
SWIDTH 589 0
DWIDTH 9 0
BBX 6 11 0 3
BITMAP
1C
1C
1C
1C
1C
1C
1C
1C
FC
FC
FC
ENDCHAR
STARTCHAR 251C
ENCODING 9500
SWIDTH 589 0
DWIDTH 9 0
BBX 5 18 4 -4
BITMAP
80
80
80
80
80
80
80
F8
F8
80
80
80
80
80
80
80
80
80
ENDCHAR
STARTCHAR 251D
ENCODING 9501
SWIDTH 589 0
DWIDTH 9 0
BBX 5 18 4 -4
BITMAP
80
80
80
80
80
80
80
F8
F8
F8
80
80
80
80
80
80
80
80
ENDCHAR
STARTCHAR 251E
ENCODING 9502
SWIDTH 589 0
DWIDTH 9 0
BBX 6 18 3 -4
BITMAP
E0
E0
E0
E0
E0
E0
E0
FC
FC
40
40
40
40
40
40
40
40
40
ENDCHAR
STARTCHAR 251F
ENCODING 9503
SWIDTH 589 0
DWIDTH 9 0
BBX 6 18 3 -4
BITMAP
40
40
40
40
40
40
40
40
FC
E0
E0
E0
E0
E0
E0
E0
E0
E0
ENDCHAR
STARTCHAR 2520
ENCODING 9504
SWIDTH 589 0
DWIDTH 9 0
BBX 6 18 3 -4
BITMAP
E0
E0
E0
E0
E0
E0
E0
FC
FC
E0
E0
E0
E0
E0
E0
E0
E0
E0
ENDCHAR
STARTCHAR 2521
ENCODING 9505
SWIDTH 589 0
DWIDTH 9 0
BBX 6 18 3 -4
BITMAP
E0
E0
E0
E0
E0
E0
E0
FC
FC
FC
40
40
40
40
40
40
40
40
ENDCHAR
STARTCHAR 2522
ENCODING 9506
SWIDTH 589 0
DWIDTH 9 0
BBX 6 18 3 -4
BITMAP
40
40
40
40
40
40
40
FC
FC
FC
E0
E0
E0
E0
E0
E0
E0
E0
ENDCHAR
STARTCHAR 2523
ENCODING 9507
SWIDTH 589 0
DWIDTH 9 0
BBX 6 18 3 -4
BITMAP
E0
E0
E0
E0
E0
E0
E0
FC
FC
FC
E0
E0
E0
E0
E0
E0
E0
E0
ENDCHAR
STARTCHAR 2524
ENCODING 9508
SWIDTH 589 0
DWIDTH 9 0
BBX 5 18 0 -4
BITMAP
08
08
08
08
08
08
08
F8
F8
08
08
08
08
08
08
08
08
08
ENDCHAR
STARTCHAR 2525
ENCODING 9509
SWIDTH 589 0
DWIDTH 9 0
BBX 5 18 0 -4
BITMAP
08
08
08
08
08
08
08
F8
F8
F8
08
08
08
08
08
08
08
08
ENDCHAR
STARTCHAR 2526
ENCODING 9510
SWIDTH 589 0
DWIDTH 9 0
BBX 6 18 0 -4
BITMAP
1C
1C
1C
1C
1C
1C
1C
1C
FC
08
08
08
08
08
08
08
08
08
ENDCHAR
STARTCHAR 2527
ENCODING 9511
SWIDTH 589 0
DWIDTH 9 0
BBX 6 18 0 -4
BITMAP
08
08
08
08
08
08
08
08
FC
1C
1C
1C
1C
1C
1C
1C
1C
1C
ENDCHAR
STARTCHAR 2528
ENCODING 9512
SWIDTH 589 0
DWIDTH 9 0
BBX 6 18 0 -4
BITMAP
1C
1C
1C
1C
1C
1C
1C
FC
FC
1C
1C
1C
1C
1C
1C
1C
1C
1C
ENDCHAR
STARTCHAR 2529
ENCODING 9513
SWIDTH 589 0
DWIDTH 9 0
BBX 6 18 0 -4
BITMAP
1C
1C
1C
1C
1C
1C
1C
FC
FC
FC
08
08
08
08
08
08
08
08
ENDCHAR
STARTCHAR 252A
ENCODING 9514
SWIDTH 589 0
DWIDTH 9 0
BBX 6 18 0 -4
BITMAP
08
08
08
08
08
08
08
FC
FC
FC
1C
1C
1C
1C
1C
1C
1C
1C
ENDCHAR
STARTCHAR 252B
ENCODING 9515
SWIDTH 589 0
DWIDTH 9 0
BBX 6 18 0 -4
BITMAP
1C
1C
1C
1C
1C
1C
1C
FC
FC
FC
1C
1C
1C
1C
1C
1C
1C
1C
ENDCHAR
STARTCHAR 252C
ENCODING 9516
SWIDTH 589 0
DWIDTH 9 0
BBX 9 11 0 -4
BITMAP
FF80
FF80
0800
0800
0800
0800
0800
0800
0800
0800
0800
ENDCHAR
STARTCHAR 252D
ENCODING 9517
SWIDTH 589 0
DWIDTH 9 0
BBX 9 11 0 -4
BITMAP
FF80
FF80
F800
0800
0800
0800
0800
0800
0800
0800
0800
ENDCHAR
STARTCHAR 252E
ENCODING 9518
SWIDTH 589 0
DWIDTH 9 0
BBX 9 11 0 -4
BITMAP
FF80
FF80
0F80
0800
0800
0800
0800
0800
0800
0800
0800
ENDCHAR
STARTCHAR 252F
ENCODING 9519
SWIDTH 589 0
DWIDTH 9 0
BBX 9 11 0 -4
BITMAP
FF80
FF80
FF80
0800
0800
0800
0800
0800
0800
0800
0800
ENDCHAR
STARTCHAR 2530
ENCODING 9520
SWIDTH 589 0
DWIDTH 9 0
BBX 9 11 0 -4
BITMAP
FF80
FF80
1C00
1C00
1C00
1C00
1C00
1C00
1C00
1C00
1C00
ENDCHAR
STARTCHAR 2531
ENCODING 9521
SWIDTH 589 0
DWIDTH 9 0
BBX 9 11 0 -4
BITMAP
FF80
FF80
FC00
1C00
1C00
1C00
1C00
1C00
1C00
1C00
1C00
ENDCHAR
STARTCHAR 2532
ENCODING 9522
SWIDTH 589 0
DWIDTH 9 0
BBX 9 11 0 -4
BITMAP
FF80
FF80
1F80
1C00
1C00
1C00
1C00
1C00
1C00
1C00
1C00
ENDCHAR
STARTCHAR 2533
ENCODING 9523
SWIDTH 589 0
DWIDTH 9 0
BBX 9 11 0 -4
BITMAP
FF80
FF80
FF80
1C00
1C00
1C00
1C00
1C00
1C00
1C00
1C00
ENDCHAR
STARTCHAR 2534
ENCODING 9524
SWIDTH 589 0
DWIDTH 9 0
BBX 9 10 0 4
BITMAP
0800
0800
0800
0800
0800
0800
0800
0800
0800
FF80
ENDCHAR
STARTCHAR 2535
ENCODING 9525
SWIDTH 589 0
DWIDTH 9 0
BBX 9 11 0 3
BITMAP
0800
0800
0800
0800
0800
0800
0800
0800
F800
FF80
FF80
ENDCHAR
STARTCHAR 2536
ENCODING 9526
SWIDTH 589 0
DWIDTH 9 0
BBX 9 11 0 3
BITMAP
0800
0800
0800
0800
0800
0800
0800
0800
0F80
FF80
FF80
ENDCHAR
STARTCHAR 2537
ENCODING 9527
SWIDTH 589 0
DWIDTH 9 0
BBX 9 11 0 3
BITMAP
0800
0800
0800
0800
0800
0800
0800
0800
FF80
FF80
FF80
ENDCHAR
STARTCHAR 2538
ENCODING 9528
SWIDTH 589 0
DWIDTH 9 0
BBX 9 10 0 4
BITMAP
1C00
1C00
1C00
1C00
1C00
1C00
1C00
1C00
1C00
FF80
ENDCHAR
STARTCHAR 2539
ENCODING 9529
SWIDTH 589 0
DWIDTH 9 0
BBX 9 11 0 3
BITMAP
1C00
1C00
1C00
1C00
1C00
1C00
1C00
1C00
FC00
FF80
FF80
ENDCHAR
STARTCHAR 253A
ENCODING 9530
SWIDTH 589 0
DWIDTH 9 0
BBX 9 11 0 3
BITMAP
1C00
1C00
1C00
1C00
1C00
1C00
1C00
1C00
1F80
FF80
FF80
ENDCHAR
STARTCHAR 253B
ENCODING 9531
SWIDTH 589 0
DWIDTH 9 0
BBX 9 11 0 3
BITMAP
1C00
1C00
1C00
1C00
1C00
1C00
1C00
1C00
FF80
FF80
FF80
ENDCHAR
STARTCHAR 253C
ENCODING 9532
SWIDTH 589 0
DWIDTH 9 0
BBX 9 18 0 -4
BITMAP
0800
0800
0800
0800
0800
0800
0800
FF80
FF80
0800
0800
0800
0800
0800
0800
0800
0800
0800
ENDCHAR
STARTCHAR 253D
ENCODING 9533
SWIDTH 589 0
DWIDTH 9 0
BBX 9 18 0 -4
BITMAP
0800
0800
0800
0800
0800
0800
0800
FF80
FF80
F800
0800
0800
0800
0800
0800
0800
0800
0800
ENDCHAR
STARTCHAR 253E
ENCODING 9534
SWIDTH 589 0
DWIDTH 9 0
BBX 9 18 0 -4
BITMAP
0800
0800
0800
0800
0800
0800
0800
FF80
FF80
0F80
0800
0800
0800
0800
0800
0800
0800
0800
ENDCHAR
STARTCHAR 253F
ENCODING 9535
SWIDTH 589 0
DWIDTH 9 0
BBX 9 18 0 -4
BITMAP
0800
0800
0800
0800
0800
0800
0800
FF80
FF80
FF80
0800
0800
0800
0800
0800
0800
0800
0800
ENDCHAR
STARTCHAR 2540
ENCODING 9536
SWIDTH 589 0
DWIDTH 9 0
BBX 9 18 0 -4
BITMAP
1C00
1C00
1C00
1C00
1C00
1C00
1C00
1C00
FF80
0800
0800
0800
0800
0800
0800
0800
0800
0800
ENDCHAR
STARTCHAR 2541
ENCODING 9537
SWIDTH 589 0
DWIDTH 9 0
BBX 9 18 0 -4
BITMAP
0800
0800
0800
0800
0800
0800
0800
0800
FF80
1C00
1C00
1C00
1C00
1C00
1C00
1C00
1C00
1C00
ENDCHAR
STARTCHAR 2542
ENCODING 9538
SWIDTH 589 0
DWIDTH 9 0
BBX 9 18 0 -4
BITMAP
1C00
1C00
1C00
1C00
1C00
1C00
1C00
FF80
FF80
1C00
1C00
1C00
1C00
1C00
1C00
1C00
1C00
1C00
ENDCHAR
STARTCHAR 2543
ENCODING 9539
SWIDTH 589 0
DWIDTH 9 0
BBX 9 18 0 -4
BITMAP
1C00
1C00
1C00
1C00
1C00
1C00
1C00
FF80
FF80
FC00
0800
0800
0800
0800
0800
0800
0800
0800
ENDCHAR
STARTCHAR 2544
ENCODING 9540
SWIDTH 589 0
DWIDTH 9 0
BBX 9 18 0 -4
BITMAP
1C00
1C00
1C00
1C00
1C00
1C00
1C00
FF80
FF80
1F80
0800
0800
0800
0800
0800
0800
0800
0800
ENDCHAR
STARTCHAR 2545
ENCODING 9541
SWIDTH 589 0
DWIDTH 9 0
BBX 9 18 0 -4
BITMAP
0800
0800
0800
0800
0800
0800
0800
FF80
FF80
FC00
1C00
1C00
1C00
1C00
1C00
1C00
1C00
1C00
ENDCHAR
STARTCHAR 2546
ENCODING 9542
SWIDTH 589 0
DWIDTH 9 0
BBX 9 18 0 -4
BITMAP
0800
0800
0800
0800
0800
0800
0800
FF80
FF80
1F80
1C00
1C00
1C00
1C00
1C00
1C00
1C00
1C00
ENDCHAR
STARTCHAR 2547
ENCODING 9543
SWIDTH 589 0
DWIDTH 9 0
BBX 9 18 0 -4
BITMAP
1C00
1C00
1C00
1C00
1C00
1C00
1C00
FF80
FF80
FF80
0800
0800
0800
0800
0800
0800
0800
0800
ENDCHAR
STARTCHAR 2548
ENCODING 9544
SWIDTH 589 0
DWIDTH 9 0
BBX 9 18 0 -4
BITMAP
0800
0800
0800
0800
0800
0800
0800
FF80
FF80
FF80
1C00
1C00
1C00
1C00
1C00
1C00
1C00
1C00
ENDCHAR
STARTCHAR 2549
ENCODING 9545
SWIDTH 589 0
DWIDTH 9 0
BBX 9 18 0 -4
BITMAP
1C00
1C00
1C00
1C00
1C00
1C00
1C00
FF80
FF80
FC00
1C00
1C00
1C00
1C00
1C00
1C00
1C00
1C00
ENDCHAR
STARTCHAR 254A
ENCODING 9546
SWIDTH 589 0
DWIDTH 9 0
BBX 9 18 0 -4
BITMAP
1C00
1C00
1C00
1C00
1C00
1C00
1C00
FF80
FF80
1F80
1C00
1C00
1C00
1C00
1C00
1C00
1C00
1C00
ENDCHAR
STARTCHAR 254B
ENCODING 9547
SWIDTH 589 0
DWIDTH 9 0
BBX 9 18 0 -4
BITMAP
1C00
1C00
1C00
1C00
1C00
1C00
1C00
FF80
FF80
FF80
1C00
1C00
1C00
1C00
1C00
1C00
1C00
1C00
ENDCHAR
STARTCHAR 254C
ENCODING 9548
SWIDTH 589 0
DWIDTH 9 0
BBX 9 2 0 5
BITMAP
F780
F780
ENDCHAR
STARTCHAR 254D
ENCODING 9549
SWIDTH 589 0
DWIDTH 9 0
BBX 9 3 0 4
BITMAP
F780
F780
F780
ENDCHAR
STARTCHAR 254E
ENCODING 9550
SWIDTH 589 0
DWIDTH 9 0
BBX 1 16 4 -2
BITMAP
80
80
80
80
80
80
80
00
00
80
80
80
80
80
80
80
ENDCHAR
STARTCHAR 254F
ENCODING 9551
SWIDTH 589 0
DWIDTH 9 0
BBX 3 16 3 -2
BITMAP
E0
E0
E0
E0
E0
E0
E0
00
00
E0
E0
E0
E0
E0
E0
E0
ENDCHAR
STARTCHAR 2550
ENCODING 9552
SWIDTH 589 0
DWIDTH 9 0
BBX 9 4 0 3
BITMAP
FF80
FF80
FF80
FF80
ENDCHAR
STARTCHAR 2551
ENCODING 9553
SWIDTH 589 0
DWIDTH 9 0
BBX 3 18 3 -4
BITMAP
A0
A0
A0
A0
A0
A0
A0
A0
A0
A0
A0
A0
A0
A0
A0
A0
A0
A0
ENDCHAR
STARTCHAR 2552
ENCODING 9554
SWIDTH 589 0
DWIDTH 9 0
BBX 5 12 4 -4
BITMAP
F8
F8
80
F8
F8
80
80
80
80
80
80
80
ENDCHAR
STARTCHAR 2553
ENCODING 9555
SWIDTH 589 0
DWIDTH 9 0
BBX 6 11 3 -4
BITMAP
FC
FC
A0
A0
A0
A0
A0
A0
A0
A0
A0
ENDCHAR
STARTCHAR 2554
ENCODING 9556
SWIDTH 589 0
DWIDTH 9 0
BBX 6 12 3 -4
BITMAP
FC
FC
80
BC
BC
A0
A0
A0
A0
A0
A0
A0
ENDCHAR
STARTCHAR 2555
ENCODING 9557
SWIDTH 589 0
DWIDTH 9 0
BBX 5 12 0 -4
BITMAP
F8
F8
08
F8
F8
08
08
08
08
08
08
08
ENDCHAR
STARTCHAR 2556
ENCODING 9558
SWIDTH 589 0
DWIDTH 9 0
BBX 6 11 0 -4
BITMAP
FC
FC
14
14
14
14
14
14
14
14
14
ENDCHAR
STARTCHAR 2557
ENCODING 9559
SWIDTH 589 0
DWIDTH 9 0
BBX 6 12 0 -4
BITMAP
FC
FC
04
F4
F4
14
14
14
14
14
14
14
ENDCHAR
STARTCHAR 2558
ENCODING 9560
SWIDTH 589 0
DWIDTH 9 0
BBX 5 12 4 2
BITMAP
80
80
80
80
80
80
80
80
F8
80
80
F8
ENDCHAR
STARTCHAR 2559
ENCODING 9561
SWIDTH 589 0
DWIDTH 9 0
BBX 6 10 3 4
BITMAP
A0
A0
A0
A0
A0
A0
A0
A0
A0
FC
ENDCHAR
STARTCHAR 255A
ENCODING 9562
SWIDTH 589 0
DWIDTH 9 0
BBX 6 12 3 2
BITMAP
A0
A0
A0
A0
A0
A0
A0
A0
BC
80
80
FC
ENDCHAR
STARTCHAR 255B
ENCODING 9563
SWIDTH 589 0
DWIDTH 9 0
BBX 5 12 0 2
BITMAP
08
08
08
08
08
08
08
08
F8
08
08
F8
ENDCHAR
STARTCHAR 255C
ENCODING 9564
SWIDTH 589 0
DWIDTH 9 0
BBX 6 10 0 4
BITMAP
14
14
14
14
14
14
14
14
14
FC
ENDCHAR
STARTCHAR 255D
ENCODING 9565
SWIDTH 589 0
DWIDTH 9 0
BBX 6 12 0 2
BITMAP
14
14
14
14
14
14
14
14
F4
04
04
FC
ENDCHAR
STARTCHAR 255E
ENCODING 9566
SWIDTH 589 0
DWIDTH 9 0
BBX 5 18 4 -4
BITMAP
80
80
80
80
80
80
F8
F8
80
F8
F8
80
80
80
80
80
80
80
ENDCHAR
STARTCHAR 255F
ENCODING 9567
SWIDTH 589 0
DWIDTH 9 0
BBX 6 18 3 -4
BITMAP
A0
A0
A0
A0
A0
A0
A0
BC
BC
A0
A0
A0
A0
A0
A0
A0
A0
A0
ENDCHAR
STARTCHAR 2560
ENCODING 9568
SWIDTH 589 0
DWIDTH 9 0
BBX 6 18 3 -4
BITMAP
A0
A0
A0
A0
A0
A0
BC
BC
80
BC
BC
A0
A0
A0
A0
A0
A0
A0
ENDCHAR
STARTCHAR 2561
ENCODING 9569
SWIDTH 589 0
DWIDTH 9 0
BBX 5 18 0 -4
BITMAP
08
08
08
08
08
08
F8
F8
08
F8
F8
08
08
08
08
08
08
08
ENDCHAR
STARTCHAR 2562
ENCODING 9570
SWIDTH 589 0
DWIDTH 9 0
BBX 6 18 0 -4
BITMAP
14
14
14
14
14
14
14
F4
F4
14
14
14
14
14
14
14
14
14
ENDCHAR
STARTCHAR 2563
ENCODING 9571
SWIDTH 589 0
DWIDTH 9 0
BBX 6 18 0 -4
BITMAP
14
14
14
14
14
14
F4
F4
04
F4
F4
14
14
14
14
14
14
14
ENDCHAR
STARTCHAR 2564
ENCODING 9572
SWIDTH 589 0
DWIDTH 9 0
BBX 9 12 0 -4
BITMAP
FF80
FF80
0000
FF80
FF80
0800
0800
0800
0800
0800
0800
0800
ENDCHAR
STARTCHAR 2565
ENCODING 9573
SWIDTH 589 0
DWIDTH 9 0
BBX 9 11 0 -4
BITMAP
FF80
FF80
1400
1400
1400
1400
1400
1400
1400
1400
1400
ENDCHAR
STARTCHAR 2566
ENCODING 9574
SWIDTH 589 0
DWIDTH 9 0
BBX 9 12 0 -4
BITMAP
FF80
FF80
0000
F780
F780
1400
1400
1400
1400
1400
1400
1400
ENDCHAR
STARTCHAR 2567
ENCODING 9575
SWIDTH 589 0
DWIDTH 9 0
BBX 9 12 0 2
BITMAP
0800
0800
0800
0800
0800
0800
0800
FF80
FF80
0000
FF80
FF80
ENDCHAR
STARTCHAR 2568
ENCODING 9576
SWIDTH 589 0
DWIDTH 9 0
BBX 9 10 0 4
BITMAP
1400
1400
1400
1400
1400
1400
1400
1400
1400
FF80
ENDCHAR
STARTCHAR 2569
ENCODING 9577
SWIDTH 589 0
DWIDTH 9 0
BBX 9 12 0 2
BITMAP
1400
1400
1400
1400
1400
1400
1400
F780
F780
0000
FF80
FF80
ENDCHAR
STARTCHAR 256A
ENCODING 9578
SWIDTH 589 0
DWIDTH 9 0
BBX 9 18 0 -4
BITMAP
0800
0800
0800
0800
0800
0800
FF80
FF80
0800
FF80
FF80
0800
0800
0800
0800
0800
0800
0800
ENDCHAR
STARTCHAR 256B
ENCODING 9579
SWIDTH 589 0
DWIDTH 9 0
BBX 9 18 0 -4
BITMAP
1400
1400
1400
1400
1400
1400
1400
FF80
FF80
1400
1400
1400
1400
1400
1400
1400
1400
1400
ENDCHAR
STARTCHAR 256C
ENCODING 9580
SWIDTH 589 0
DWIDTH 9 0
BBX 9 18 0 -4
BITMAP
1400
1400
1400
1400
1400
1400
F780
F780
0000
F780
F780
1400
1400
1400
1400
1400
1400
1400
ENDCHAR
STARTCHAR 256D
ENCODING 9581
SWIDTH 589 0
DWIDTH 9 0
BBX 5 11 4 -4
BITMAP
78
F8
C0
80
80
80
80
80
80
80
80
ENDCHAR
STARTCHAR 256E
ENCODING 9582
SWIDTH 589 0
DWIDTH 9 0
BBX 5 11 0 -4
BITMAP
F0
F8
08
08
08
08
08
08
08
08
08
ENDCHAR
STARTCHAR 256F
ENCODING 9583
SWIDTH 589 0
DWIDTH 9 0
BBX 5 11 0 3
BITMAP
08
08
08
08
08
08
08
08
08
F8
F0
ENDCHAR
STARTCHAR 2570
ENCODING 9584
SWIDTH 589 0
DWIDTH 9 0
BBX 5 11 4 3
BITMAP
80
80
80
80
80
80
80
80
C0
F8
78
ENDCHAR
STARTCHAR 2571
ENCODING 9585
SWIDTH 589 0
DWIDTH 9 0
BBX 11 18 -1 -4
BITMAP
0060
0040
00C0
0080
0180
0100
0300
0200
0600
0400
0800
0800
1000
1000
2000
2000
4000
C000
ENDCHAR
STARTCHAR 2572
ENCODING 9586
SWIDTH 589 0
DWIDTH 9 0
BBX 11 18 -1 -4
BITMAP
C000
4000
2000
2000
1000
1000
0800
0800
0400
0600
0200
0300
0100
0180
0080
00C0
0040
0060
ENDCHAR
STARTCHAR 2573
ENCODING 9587
SWIDTH 589 0
DWIDTH 9 0
BBX 11 18 -1 -4
BITMAP
C060
4040
20C0
2080
1180
1100
0B00
0A00
0600
0400
0E00
0A00
1100
1180
2080
20C0
4040
C060
ENDCHAR
STARTCHAR 2574
ENCODING 9588
SWIDTH 589 0
DWIDTH 9 0
BBX 5 2 0 5
BITMAP
F8
F8
ENDCHAR
STARTCHAR 2575
ENCODING 9589
SWIDTH 589 0
DWIDTH 9 0
BBX 1 9 4 5
BITMAP
80
80
80
80
80
80
80
80
80
ENDCHAR
STARTCHAR 2576
ENCODING 9590
SWIDTH 589 0
DWIDTH 9 0
BBX 4 2 5 5
BITMAP
F0
F0
ENDCHAR
STARTCHAR 2577
ENCODING 9591
SWIDTH 589 0
DWIDTH 9 0
BBX 1 10 4 -4
BITMAP
80
80
80
80
80
80
80
80
80
80
ENDCHAR
STARTCHAR 2578
ENCODING 9592
SWIDTH 589 0
DWIDTH 9 0
BBX 5 3 0 4
BITMAP
F8
F8
F8
ENDCHAR
STARTCHAR 2579
ENCODING 9593
SWIDTH 589 0
DWIDTH 9 0
BBX 3 9 3 5
BITMAP
E0
E0
E0
E0
E0
E0
E0
E0
E0
ENDCHAR
STARTCHAR 257A
ENCODING 9594
SWIDTH 589 0
DWIDTH 9 0
BBX 4 3 5 4
BITMAP
F0
F0
F0
ENDCHAR
STARTCHAR 257B
ENCODING 9595
SWIDTH 589 0
DWIDTH 9 0
BBX 3 10 3 -4
BITMAP
E0
E0
E0
E0
E0
E0
E0
E0
E0
E0
ENDCHAR
STARTCHAR 257C
ENCODING 9596
SWIDTH 589 0
DWIDTH 9 0
BBX 9 3 0 4
BITMAP
0780
FF80
FF80
ENDCHAR
STARTCHAR 257D
ENCODING 9597
SWIDTH 589 0
DWIDTH 9 0
BBX 3 18 3 -4
BITMAP
40
40
40
40
40
40
40
40
E0
E0
E0
E0
E0
E0
E0
E0
E0
E0
ENDCHAR
STARTCHAR 257E
ENCODING 9598
SWIDTH 589 0
DWIDTH 9 0
BBX 9 3 0 4
BITMAP
F800
FF80
FF80
ENDCHAR
STARTCHAR 257F
ENCODING 9599
SWIDTH 589 0
DWIDTH 9 0
BBX 3 18 3 -4
BITMAP
E0
E0
E0
E0
E0
E0
E0
E0
E0
40
40
40
40
40
40
40
40
40
ENDCHAR
STARTCHAR 2580
ENCODING 9600
SWIDTH 589 0
DWIDTH 9 0
BBX 9 9 0 5
BITMAP
FF80
FF80
FF80
FF80
FF80
FF80
FF80
FF80
FF80
ENDCHAR
STARTCHAR 2581
ENCODING 9601
SWIDTH 589 0
DWIDTH 9 0
BBX 9 3 0 -4
BITMAP
FF80
FF80
FF80
ENDCHAR
STARTCHAR 2582
ENCODING 9602
SWIDTH 589 0
DWIDTH 9 0
BBX 9 5 0 -4
BITMAP
FF80
FF80
FF80
FF80
FF80
ENDCHAR
STARTCHAR 2583
ENCODING 9603
SWIDTH 589 0
DWIDTH 9 0
BBX 9 7 0 -4
BITMAP
FF80
FF80
FF80
FF80
FF80
FF80
FF80
ENDCHAR
STARTCHAR 2584
ENCODING 9604
SWIDTH 589 0
DWIDTH 9 0
BBX 9 10 0 -4
BITMAP
FF80
FF80
FF80
FF80
FF80
FF80
FF80
FF80
FF80
FF80
ENDCHAR
STARTCHAR 2585
ENCODING 9605
SWIDTH 589 0
DWIDTH 9 0
BBX 9 12 0 -4
BITMAP
FF80
FF80
FF80
FF80
FF80
FF80
FF80
FF80
FF80
FF80
FF80
FF80
ENDCHAR
STARTCHAR 2586
ENCODING 9606
SWIDTH 589 0
DWIDTH 9 0
BBX 9 14 0 -4
BITMAP
FF80
FF80
FF80
FF80
FF80
FF80
FF80
FF80
FF80
FF80
FF80
FF80
FF80
FF80
ENDCHAR
STARTCHAR 2587
ENCODING 9607
SWIDTH 589 0
DWIDTH 9 0
BBX 9 16 0 -4
BITMAP
FF80
FF80
FF80
FF80
FF80
FF80
FF80
FF80
FF80
FF80
FF80
FF80
FF80
FF80
FF80
FF80
ENDCHAR
STARTCHAR 2588
ENCODING 9608
SWIDTH 589 0
DWIDTH 9 0
BBX 9 18 0 -4
BITMAP
FF80
FF80
FF80
FF80
FF80
FF80
FF80
FF80
FF80
FF80
FF80
FF80
FF80
FF80
FF80
FF80
FF80
FF80
ENDCHAR
STARTCHAR 2589
ENCODING 9609
SWIDTH 589 0
DWIDTH 9 0
BBX 8 18 0 -4
BITMAP
FF
FF
FF
FF
FF
FF
FF
FF
FF
FF
FF
FF
FF
FF
FF
FF
FF
FF
ENDCHAR
STARTCHAR 258A
ENCODING 9610
SWIDTH 589 0
DWIDTH 9 0
BBX 7 18 0 -4
BITMAP
FE
FE
FE
FE
FE
FE
FE
FE
FE
FE
FE
FE
FE
FE
FE
FE
FE
FE
ENDCHAR
STARTCHAR 258B
ENCODING 9611
SWIDTH 589 0
DWIDTH 9 0
BBX 6 18 0 -4
BITMAP
FC
FC
FC
FC
FC
FC
FC
FC
FC
FC
FC
FC
FC
FC
FC
FC
FC
FC
ENDCHAR
STARTCHAR 258C
ENCODING 9612
SWIDTH 589 0
DWIDTH 9 0
BBX 5 18 0 -4
BITMAP
F8
F8
F8
F8
F8
F8
F8
F8
F8
F8
F8
F8
F8
F8
F8
F8
F8
F8
ENDCHAR
STARTCHAR 258D
ENCODING 9613
SWIDTH 589 0
DWIDTH 9 0
BBX 3 18 0 -4
BITMAP
E0
E0
E0
E0
E0
E0
E0
E0
E0
E0
E0
E0
E0
E0
E0
E0
E0
E0
ENDCHAR
STARTCHAR 258E
ENCODING 9614
SWIDTH 589 0
DWIDTH 9 0
BBX 2 18 0 -4
BITMAP
C0
C0
C0
C0
C0
C0
C0
C0
C0
C0
C0
C0
C0
C0
C0
C0
C0
C0
ENDCHAR
STARTCHAR 258F
ENCODING 9615
SWIDTH 589 0
DWIDTH 9 0
BBX 1 18 0 -4
BITMAP
80
80
80
80
80
80
80
80
80
80
80
80
80
80
80
80
80
80
ENDCHAR
STARTCHAR 2590
ENCODING 9616
SWIDTH 589 0
DWIDTH 9 0
BBX 4 18 5 -4
BITMAP
F0
F0
F0
F0
F0
F0
F0
F0
F0
F0
F0
F0
F0
F0
F0
F0
F0
F0
ENDCHAR
STARTCHAR 2591
ENCODING 9617
SWIDTH 589 0
DWIDTH 9 0
BBX 8 18 0 -4
BITMAP
84
84
21
21
84
84
21
21
00
84
84
21
21
00
84
84
21
21
ENDCHAR
STARTCHAR 2592
ENCODING 9618
SWIDTH 589 0
DWIDTH 9 0
BBX 9 18 0 -4
BITMAP
DB00
FF80
2480
DB00
DB00
2480
2480
DB00
DB00
2480
DB00
DB00
2480
2480
DB00
DB00
2480
2480
ENDCHAR
STARTCHAR 2593
ENCODING 9619
SWIDTH 589 0
DWIDTH 9 0
BBX 9 18 0 -4
BITMAP
7B80
FF80
DE80
FF80
7B80
7B80
DE80
DE80
FF80
7B80
7B80
DE80
DE80
FF80
7B80
7B80
DE80
DE80
ENDCHAR
STARTCHAR 2594
ENCODING 9620
SWIDTH 589 0
DWIDTH 9 0
BBX 9 3 0 11
BITMAP
FF80
FF80
FF80
ENDCHAR
STARTCHAR 2595
ENCODING 9621
SWIDTH 589 0
DWIDTH 9 0
BBX 1 18 8 -4
BITMAP
80
80
80
80
80
80
80
80
80
80
80
80
80
80
80
80
80
80
ENDCHAR
STARTCHAR 2596
ENCODING 9622
SWIDTH 589 0
DWIDTH 9 0
BBX 5 10 0 -4
BITMAP
F8
F8
F8
F8
F8
F8
F8
F8
F8
F8
ENDCHAR
STARTCHAR 2597
ENCODING 9623
SWIDTH 589 0
DWIDTH 9 0
BBX 4 10 5 -4
BITMAP
F0
F0
F0
F0
F0
F0
F0
F0
F0
F0
ENDCHAR
STARTCHAR 2598
ENCODING 9624
SWIDTH 589 0
DWIDTH 9 0
BBX 5 9 0 5
BITMAP
F8
F8
F8
F8
F8
F8
F8
F8
F8
ENDCHAR
STARTCHAR 2599
ENCODING 9625
SWIDTH 589 0
DWIDTH 9 0
BBX 9 18 0 -4
BITMAP
F800
F800
F800
F800
F800
F800
F800
F800
FF80
FF80
FF80
FF80
FF80
FF80
FF80
FF80
FF80
FF80
ENDCHAR
STARTCHAR 259A
ENCODING 9626
SWIDTH 589 0
DWIDTH 9 0
BBX 9 18 0 -4
BITMAP
F800
F800
F800
F800
F800
F800
F800
F800
FF80
0780
0780
0780
0780
0780
0780
0780
0780
0780
ENDCHAR
STARTCHAR 259B
ENCODING 9627
SWIDTH 589 0
DWIDTH 9 0
BBX 9 18 0 -4
BITMAP
FF80
FF80
FF80
FF80
FF80
FF80
FF80
FF80
FF80
F800
F800
F800
F800
F800
F800
F800
F800
F800
ENDCHAR
STARTCHAR 259C
ENCODING 9628
SWIDTH 589 0
DWIDTH 9 0
BBX 9 18 0 -4
BITMAP
FF80
FF80
FF80
FF80
FF80
FF80
FF80
FF80
FF80
0780
0780
0780
0780
0780
0780
0780
0780
0780
ENDCHAR
STARTCHAR 259D
ENCODING 9629
SWIDTH 589 0
DWIDTH 9 0
BBX 4 9 5 5
BITMAP
F0
F0
F0
F0
F0
F0
F0
F0
F0
ENDCHAR
STARTCHAR 259E
ENCODING 9630
SWIDTH 589 0
DWIDTH 9 0
BBX 9 18 0 -4
BITMAP
0780
0780
0780
0780
0780
0780
0780
0780
FF80
F800
F800
F800
F800
F800
F800
F800
F800
F800
ENDCHAR
STARTCHAR 259F
ENCODING 9631
SWIDTH 589 0
DWIDTH 9 0
BBX 9 18 0 -4
BITMAP
0780
0780
0780
0780
0780
0780
0780
0780
FF80
FF80
FF80
FF80
FF80
FF80
FF80
FF80
FF80
FF80
ENDCHAR
STARTCHAR 25A0
ENCODING 9632
SWIDTH 589 0
DWIDTH 9 0
BBX 9 10 0 -1
BITMAP
FF80
FF80
FF80
FF80
FF80
FF80
FF80
FF80
FF80
FF80
ENDCHAR
STARTCHAR 25A1
ENCODING 9633
SWIDTH 589 0
DWIDTH 9 0
BBX 9 10 0 -1
BITMAP
FF80
8080
8080
8080
8080
8080
8080
8080
8080
FF80
ENDCHAR
STARTCHAR 25A2
ENCODING 9634
SWIDTH 589 0
DWIDTH 9 0
BBX 9 10 0 -1
BITMAP
7F00
8080
8080
8080
8080
8080
8080
8080
8080
7F00
ENDCHAR
STARTCHAR 25A3
ENCODING 9635
SWIDTH 589 0
DWIDTH 9 0
BBX 9 10 0 -1
BITMAP
FF80
8080
BF80
BF80
BF80
BF80
BF80
BF80
8080
FF80
ENDCHAR
STARTCHAR 25A4
ENCODING 9636
SWIDTH 589 0
DWIDTH 9 0
BBX 9 10 0 -1
BITMAP
FF80
8080
FF80
FF80
8080
FF80
8080
FF80
8080
FF80
ENDCHAR
STARTCHAR 25A5
ENCODING 9637
SWIDTH 589 0
DWIDTH 9 0
BBX 9 10 0 -1
BITMAP
FF80
B580
B580
B580
B580
B580
B580
B580
B580
FF80
ENDCHAR
STARTCHAR 25A6
ENCODING 9638
SWIDTH 589 0
DWIDTH 9 0
BBX 9 9 0 0
BITMAP
FF80
B580
FF80
FF80
B580
FF80
B580
FF80
B580
ENDCHAR
STARTCHAR 25A7
ENCODING 9639
SWIDTH 589 0
DWIDTH 9 0
BBX 9 10 0 -1
BITMAP
FF80
AD80
D580
AA80
B580
DA80
A980
D580
EA80
FF80
ENDCHAR
STARTCHAR 25A8
ENCODING 9640
SWIDTH 589 0
DWIDTH 9 0
BBX 9 10 0 -1
BITMAP
FF80
EA80
D580
AB80
D280
B580
EA80
D580
A980
FF80
ENDCHAR
STARTCHAR 25A9
ENCODING 9641
SWIDTH 589 0
DWIDTH 9 0
BBX 9 10 0 -1
BITMAP
FF80
EF80
D580
EB80
F780
FF80
EB80
D580
EB80
FF80
ENDCHAR
STARTCHAR 25AA
ENCODING 9642
SWIDTH 589 0
DWIDTH 9 0
BBX 6 6 2 1
BITMAP
FC
FC
FC
FC
FC
FC
ENDCHAR
STARTCHAR 25AB
ENCODING 9643
SWIDTH 589 0
DWIDTH 9 0
BBX 6 6 2 1
BITMAP
FC
84
84
84
84
FC
ENDCHAR
STARTCHAR 25AC
ENCODING 9644
SWIDTH 589 0
DWIDTH 9 0
BBX 9 5 0 2
BITMAP
FF80
FF80
FF80
FF80
FF80
ENDCHAR
STARTCHAR 25AD
ENCODING 9645
SWIDTH 589 0
DWIDTH 9 0
BBX 9 5 0 2
BITMAP
FF80
8080
8080
8080
FF80
ENDCHAR
STARTCHAR 25AE
ENCODING 9646
SWIDTH 589 0
DWIDTH 9 0
BBX 5 10 2 -1
BITMAP
F8
F8
F8
F8
F8
F8
F8
F8
F8
F8
ENDCHAR
STARTCHAR 25AF
ENCODING 9647
SWIDTH 589 0
DWIDTH 9 0
BBX 5 10 2 -1
BITMAP
F8
88
88
88
88
88
88
88
88
F8
ENDCHAR
STARTCHAR 25B0
ENCODING 9648
SWIDTH 589 0
DWIDTH 9 0
BBX 9 5 0 2
BITMAP
3F80
3F00
7F00
7F00
FE00
ENDCHAR
STARTCHAR 25B1
ENCODING 9649
SWIDTH 589 0
DWIDTH 9 0
BBX 9 5 0 2
BITMAP
3F80
2080
4100
4100
FE00
ENDCHAR
STARTCHAR 25B2
ENCODING 9650
SWIDTH 589 0
DWIDTH 9 0
BBX 9 9 0 -1
BITMAP
0800
0800
1C00
1C00
3E00
3E00
7F00
7F00
FF80
ENDCHAR
STARTCHAR 25B3
ENCODING 9651
SWIDTH 589 0
DWIDTH 9 0
BBX 9 9 0 -1
BITMAP
0800
0800
1400
1200
2200
2100
4100
4080
FF80
ENDCHAR
STARTCHAR 25B4
ENCODING 9652
SWIDTH 589 0
DWIDTH 9 0
BBX 6 6 2 1
BITMAP
20
20
70
70
F8
FC
ENDCHAR
STARTCHAR 25B5
ENCODING 9653
SWIDTH 589 0
DWIDTH 9 0
BBX 6 6 2 1
BITMAP
20
20
50
50
88
FC
ENDCHAR
STARTCHAR 25B6
ENCODING 9654
SWIDTH 589 0
DWIDTH 9 0
BBX 9 10 0 -1
BITMAP
8000
C000
F000
FC00
FF00
FF80
FC00
F000
C000
8000
ENDCHAR
STARTCHAR 25B7
ENCODING 9655
SWIDTH 589 0
DWIDTH 9 0
BBX 9 10 0 -1
BITMAP
8000
C000
B000
8C00
8300
8380
8C00
B000
C000
8000
ENDCHAR
STARTCHAR 25B8
ENCODING 9656
SWIDTH 589 0
DWIDTH 9 0
BBX 6 6 2 1
BITMAP
80
E0
F8
FC
E0
80
ENDCHAR
STARTCHAR 25B9
ENCODING 9657
SWIDTH 589 0
DWIDTH 9 0
BBX 6 6 2 1
BITMAP
80
E0
98
9C
E0
80
ENDCHAR
STARTCHAR 25BA
ENCODING 9658
SWIDTH 589 0
DWIDTH 9 0
BBX 9 6 0 1
BITMAP
8000
F000
FF00
FF80
F800
C000
ENDCHAR
STARTCHAR 25BB
ENCODING 9659
SWIDTH 589 0
DWIDTH 9 0
BBX 9 6 0 1
BITMAP
8000
F800
8700
8780
B800
C000
ENDCHAR
STARTCHAR 25BC
ENCODING 9660
SWIDTH 589 0
DWIDTH 9 0
BBX 9 10 0 -1
BITMAP
FF80
7F00
7F00
3E00
3E00
1E00
1C00
0C00
0800
0800
ENDCHAR
STARTCHAR 25BD
ENCODING 9661
SWIDTH 589 0
DWIDTH 9 0
BBX 9 10 0 -1
BITMAP
FF80
4080
4100
2100
2200
1200
1400
0C00
0800
0800
ENDCHAR
STARTCHAR 25BE
ENCODING 9662
SWIDTH 589 0
DWIDTH 9 0
BBX 6 6 2 1
BITMAP
FC
F8
70
70
20
20
ENDCHAR
STARTCHAR 25BF
ENCODING 9663
SWIDTH 589 0
DWIDTH 9 0
BBX 6 6 2 1
BITMAP
FC
88
50
50
20
20
ENDCHAR
STARTCHAR 25C0
ENCODING 9664
SWIDTH 589 0
DWIDTH 9 0
BBX 9 10 0 -1
BITMAP
0080
0180
0780
1F80
7F80
FF80
1F80
0780
0180
0080
ENDCHAR
STARTCHAR 25C1
ENCODING 9665
SWIDTH 589 0
DWIDTH 9 0
BBX 9 10 0 -1
BITMAP
0080
0180
0680
1880
6080
E080
1880
0680
0180
0080
ENDCHAR
STARTCHAR 25C2
ENCODING 9666
SWIDTH 589 0
DWIDTH 9 0
BBX 6 6 2 1
BITMAP
04
1C
7C
FC
1C
04
ENDCHAR
STARTCHAR 25C3
ENCODING 9667
SWIDTH 589 0
DWIDTH 9 0
BBX 6 6 2 1
BITMAP
04
1C
64
C4
34
0C
ENDCHAR
STARTCHAR 25C4
ENCODING 9668
SWIDTH 589 0
DWIDTH 9 0
BBX 9 6 0 1
BITMAP
0080
0780
3F80
FF80
0780
0080
ENDCHAR
STARTCHAR 25C5
ENCODING 9669
SWIDTH 589 0
DWIDTH 9 0
BBX 9 6 0 1
BITMAP
0080
0F80
3080
F080
0F80
0080
ENDCHAR
STARTCHAR 25C6
ENCODING 9670
SWIDTH 589 0
DWIDTH 9 0
BBX 9 10 0 -1
BITMAP
0800
0C00
1E00
3F00
7F80
FF80
3F00
1E00
0C00
0800
ENDCHAR
STARTCHAR 25C7
ENCODING 9671
SWIDTH 589 0
DWIDTH 9 0
BBX 9 10 0 -1
BITMAP
0800
0C00
1600
2300
4180
C180
2300
1600
0C00
0800
ENDCHAR
STARTCHAR 25C8
ENCODING 9672
SWIDTH 589 0
DWIDTH 9 0
BBX 9 10 0 -1
BITMAP
0800
0C00
1E00
3F00
7F80
FE80
3D00
1A00
0C00
0800
ENDCHAR
STARTCHAR 25C9
ENCODING 9673
SWIDTH 589 0
DWIDTH 9 0
BBX 9 10 0 -1
BITMAP
1E00
6300
5D80
BE80
BF80
BF80
BE80
5D80
6300
1E00
ENDCHAR
STARTCHAR 25CA
ENCODING 9674
SWIDTH 589 0
DWIDTH 9 0
BBX 7 16 1 -4
BITMAP
10
10
28
28
44
44
82
82
82
42
44
24
28
18
10
10
ENDCHAR
STARTCHAR 25CB
ENCODING 9675
SWIDTH 589 0
DWIDTH 9 0
BBX 9 11 0 -2
BITMAP
1C00
7F00
6300
C180
8080
8080
8080
C180
6300
3F00
1C00
ENDCHAR
STARTCHAR 25CC
ENCODING 9676
SWIDTH 589 0
DWIDTH 9 0
BBX 9 11 0 -2
BITMAP
1C00
2D00
6300
0000
8080
8080
8080
4100
6300
2D00
1C00
ENDCHAR
STARTCHAR 25CD
ENCODING 9677
SWIDTH 589 0
DWIDTH 9 0
BBX 9 10 0 -1
BITMAP
1E00
7700
7580
B580
B580
B580
B580
7580
7700
1E00
ENDCHAR
STARTCHAR 25CE
ENCODING 9678
SWIDTH 589 0
DWIDTH 9 0
BBX 9 11 0 -2
BITMAP
1C00
7F00
6300
DD80
9480
9480
9C80
C180
6300
3F00
1C00
ENDCHAR
STARTCHAR 25CF
ENCODING 9679
SWIDTH 589 0
DWIDTH 9 0
BBX 9 10 0 -1
BITMAP
1E00
7F00
7F80
FF80
FF80
FF80
FF80
7F80
7F00
1E00
ENDCHAR
STARTCHAR 25D0
ENCODING 9680
SWIDTH 589 0
DWIDTH 9 0
BBX 9 10 0 -1
BITMAP
1E00
7B00
7980
F880
F880
F880
F880
7980
7B00
1E00
ENDCHAR
STARTCHAR 25D1
ENCODING 9681
SWIDTH 589 0
DWIDTH 9 0
BBX 9 10 0 -1
BITMAP
1E00
6700
4780
8780
8780
8780
8780
4780
6700
1E00
ENDCHAR
STARTCHAR 25D2
ENCODING 9682
SWIDTH 589 0
DWIDTH 9 0
BBX 9 10 0 -1
BITMAP
1E00
6300
4180
8080
8080
FF80
FF80
7F80
7F00
1E00
ENDCHAR
STARTCHAR 25D3
ENCODING 9683
SWIDTH 589 0
DWIDTH 9 0
BBX 9 10 0 -1
BITMAP
1E00
7F00
7F80
FF80
FF80
8080
8080
4180
6300
1E00
ENDCHAR
STARTCHAR 25D4
ENCODING 9684
SWIDTH 589 0
DWIDTH 9 0
BBX 9 10 0 -1
BITMAP
1E00
6700
4780
8780
8780
8080
8080
4180
6300
1E00
ENDCHAR
STARTCHAR 25D5
ENCODING 9685
SWIDTH 589 0
DWIDTH 9 0
BBX 9 10 0 -1
BITMAP
1E00
6700
4780
8780
8780
FF80
FF80
7F80
7F00
1E00
ENDCHAR
STARTCHAR 25D6
ENCODING 9686
SWIDTH 589 0
DWIDTH 9 0
BBX 5 10 2 -1
BITMAP
18
38
78
78
F8
F8
78
78
38
18
ENDCHAR
STARTCHAR 25D7
ENCODING 9687
SWIDTH 589 0
DWIDTH 9 0
BBX 5 10 2 -1
BITMAP
C0
F0
F0
F8
F8
F8
F8
F0
F0
C0
ENDCHAR
STARTCHAR 25D8
ENCODING 9688
SWIDTH 589 0
DWIDTH 9 0
BBX 9 12 0 0
BITMAP
FF80
FF80
FF80
E380
C180
C180
C180
C180
E380
FF80
FF80
FF80
ENDCHAR
STARTCHAR 25D9
ENCODING 9689
SWIDTH 589 0
DWIDTH 9 0
BBX 9 16 0 -4
BITMAP
FF80
FF80
FF80
E180
9C80
BE80
FF80
FF80
FF80
FF80
BE80
9C80
E180
FF80
FF80
FF80
ENDCHAR
STARTCHAR 25DA
ENCODING 9690
SWIDTH 589 0
DWIDTH 9 0
BBX 9 8 0 4
BITMAP
FF80
FF80
FF80
E180
9C80
BE80
FF80
FF80
ENDCHAR
STARTCHAR 25DB
ENCODING 9691
SWIDTH 589 0
DWIDTH 9 0
BBX 9 8 0 -4
BITMAP
FF80
FF80
BE80
9C80
E180
FF80
FF80
FF80
ENDCHAR
STARTCHAR 25DC
ENCODING 9692
SWIDTH 589 0
DWIDTH 9 0
BBX 5 5 2 4
BITMAP
18
20
40
80
80
ENDCHAR
STARTCHAR 25DD
ENCODING 9693
SWIDTH 589 0
DWIDTH 9 0
BBX 5 5 2 4
BITMAP
C0
30
10
08
08
ENDCHAR
STARTCHAR 25DE
ENCODING 9694
SWIDTH 589 0
DWIDTH 9 0
BBX 5 5 2 -1
BITMAP
08
08
10
30
C0
ENDCHAR
STARTCHAR 25DF
ENCODING 9695
SWIDTH 589 0
DWIDTH 9 0
BBX 5 5 2 -1
BITMAP
80
80
40
20
18
ENDCHAR
STARTCHAR 25E0
ENCODING 9696
SWIDTH 589 0
DWIDTH 9 0
BBX 9 5 0 4
BITMAP
1C00
7F00
4180
C080
8080
ENDCHAR
STARTCHAR 25E1
ENCODING 9697
SWIDTH 589 0
DWIDTH 9 0
BBX 9 5 0 -1
BITMAP
8080
8080
4180
6300
1E00
ENDCHAR
STARTCHAR 25E2
ENCODING 9698
SWIDTH 589 0
DWIDTH 9 0
BBX 9 10 0 -1
BITMAP
0080
0080
0180
0380
0780
0F80
1F80
3F80
7F80
FF80
ENDCHAR
STARTCHAR 25E3
ENCODING 9699
SWIDTH 589 0
DWIDTH 9 0
BBX 9 10 0 -1
BITMAP
8000
8000
C000
E000
F000
F800
FC00
FE00
FF00
FF80
ENDCHAR
STARTCHAR 25E4
ENCODING 9700
SWIDTH 589 0
DWIDTH 9 0
BBX 9 10 0 -1
BITMAP
FF80
FF00
FE00
FC00
F800
F000
E000
C000
8000
8000
ENDCHAR
STARTCHAR 25E5
ENCODING 9701
SWIDTH 589 0
DWIDTH 9 0
BBX 9 10 0 -1
BITMAP
FF80
7F80
3F80
1F80
0F80
0780
0380
0180
0080
0080
ENDCHAR
STARTCHAR 25E6
ENCODING 9702
SWIDTH 589 0
DWIDTH 9 0
BBX 5 6 2 3
BITMAP
70
88
88
88
88
70
ENDCHAR
STARTCHAR 25E7
ENCODING 9703
SWIDTH 589 0
DWIDTH 9 0
BBX 9 10 0 -1
BITMAP
FF80
F880
F880
F880
F880
F880
F880
F880
F880
FF80
ENDCHAR
STARTCHAR 25E8
ENCODING 9704
SWIDTH 589 0
DWIDTH 9 0
BBX 9 10 0 -1
BITMAP
FF80
8780
8780
8780
8780
8780
8780
8780
8780
FF80
ENDCHAR
STARTCHAR 25E9
ENCODING 9705
SWIDTH 589 0
DWIDTH 9 0
BBX 9 10 0 -1
BITMAP
FF80
FF80
FE80
FC80
F880
F080
E080
C080
8080
FF80
ENDCHAR
STARTCHAR 25EA
ENCODING 9706
SWIDTH 589 0
DWIDTH 9 0
BBX 9 9 0 0
BITMAP
FF80
8080
8180
8380
8780
8F80
9F80
BF80
FF80
ENDCHAR
STARTCHAR 25EB
ENCODING 9707
SWIDTH 589 0
DWIDTH 9 0
BBX 9 10 0 -1
BITMAP
FF80
8880
8880
8880
8880
8880
8880
8880
8880
FF80
ENDCHAR
STARTCHAR 25EC
ENCODING 9708
SWIDTH 589 0
DWIDTH 9 0
BBX 9 9 0 -1
BITMAP
0800
0800
1400
1400
2200
2A00
4D00
4080
FF80
ENDCHAR
STARTCHAR 25ED
ENCODING 9709
SWIDTH 589 0
DWIDTH 9 0
BBX 9 9 0 -1
BITMAP
0800
0800
1C00
1A00
3A00
3900
7900
7880
FF80
ENDCHAR
STARTCHAR 25EE
ENCODING 9710
SWIDTH 589 0
DWIDTH 9 0
BBX 9 9 0 -1
BITMAP
0800
0800
1400
1400
2600
2600
4700
4700
FF80
ENDCHAR
STARTCHAR 25EF
ENCODING 9711
SWIDTH 589 0
DWIDTH 9 0
BBX 9 10 0 -1
BITMAP
1E00
6300
C080
8080
8080
8080
8080
C080
6300
1E00
ENDCHAR
STARTCHAR 25F0
ENCODING 9712
SWIDTH 589 0
DWIDTH 9 0
BBX 9 10 0 -1
BITMAP
FF80
8880
8880
8880
F880
8080
8080
8080
8080
FF80
ENDCHAR
STARTCHAR 25F1
ENCODING 9713
SWIDTH 589 0
DWIDTH 9 0
BBX 9 10 0 -1
BITMAP
FF80
8080
8080
8080
F880
8880
8880
8880
8880
FF80
ENDCHAR
STARTCHAR 25F2
ENCODING 9714
SWIDTH 589 0
DWIDTH 9 0
BBX 9 10 0 -1
BITMAP
FF80
8080
8080
8080
8F80
8880
8880
8880
8880
FF80
ENDCHAR
STARTCHAR 25F3
ENCODING 9715
SWIDTH 589 0
DWIDTH 9 0
BBX 9 10 0 -1
BITMAP
FF80
8880
8880
8880
8F80
8080
8080
8080
8080
FF80
ENDCHAR
STARTCHAR 25F4
ENCODING 9716
SWIDTH 589 0
DWIDTH 9 0
BBX 9 10 0 -1
BITMAP
1E00
6B00
4880
8880
F880
8080
8080
4180
6300
1E00
ENDCHAR
STARTCHAR 25F5
ENCODING 9717
SWIDTH 589 0
DWIDTH 9 0
BBX 9 9 0 0
BITMAP
1E00
6300
4080
8080
F880
8880
8880
4900
3E00
ENDCHAR
STARTCHAR 25F6
ENCODING 9718
SWIDTH 589 0
DWIDTH 9 0
BBX 9 9 0 0
BITMAP
1E00
6300
4080
8080
8F80
8880
8880
4900
3E00
ENDCHAR
STARTCHAR 25F7
ENCODING 9719
SWIDTH 589 0
DWIDTH 9 0
BBX 9 10 0 -1
BITMAP
1E00
6900
4880
8880
8F80
8080
8080
4180
6300
1E00
ENDCHAR
STARTCHAR 25F8
ENCODING 9720
SWIDTH 589 0
DWIDTH 9 0
BBX 9 10 0 -1
BITMAP
FF80
8300
8600
8400
8800
9000
A000
C000
8000
8000
ENDCHAR
STARTCHAR 25F9
ENCODING 9721
SWIDTH 589 0
DWIDTH 9 0
BBX 9 10 0 -1
BITMAP
FF80
6080
3080
1880
0C80
0680
0380
0180
0080
0080
ENDCHAR
STARTCHAR 25FA
ENCODING 9722
SWIDTH 589 0
DWIDTH 9 0
BBX 9 10 0 -1
BITMAP
8000
8000
C000
A000
9000
8800
8400
8200
8300
FF80
ENDCHAR
STARTCHAR 25FB
ENCODING 9723
SWIDTH 589 0
DWIDTH 9 0
BBX 7 8 1 0
BITMAP
FE
82
82
82
82
82
82
FE
ENDCHAR
STARTCHAR 25FC
ENCODING 9724
SWIDTH 589 0
DWIDTH 9 0
BBX 7 8 1 0
BITMAP
FE
FE
FE
FE
FE
FE
FE
FE
ENDCHAR
STARTCHAR 25FD
ENCODING 9725
SWIDTH 589 0
DWIDTH 9 0
BBX 7 7 1 1
BITMAP
FE
82
82
82
82
82
FE
ENDCHAR
STARTCHAR 25FE
ENCODING 9726
SWIDTH 589 0
DWIDTH 9 0
BBX 7 7 1 1
BITMAP
FE
FE
FE
FE
FE
FE
FE
ENDCHAR
STARTCHAR 25FF
ENCODING 9727
SWIDTH 589 0
DWIDTH 9 0
BBX 9 10 0 -1
BITMAP
0080
0080
0180
0280
0680
0C80
1880
3080
6080
FF80
ENDCHAR
STARTCHAR 266A
ENCODING 9834
SWIDTH 589 0
DWIDTH 9 0
BBX 9 14 0 -2
BITMAP
0E00
0F00
0F00
0D80
0D80
0D80
0D80
0C00
0C00
0C00
7C00
FC00
FC00
7800
ENDCHAR
STARTCHAR 2756
ENCODING 10070
SWIDTH 589 0
DWIDTH 9 0
BBX 9 9 0 0
BITMAP
0800
0C00
1E00
2B00
F780
6B00
3E00
1C00
0800
ENDCHAR
STARTCHAR 2768
ENCODING 10088
SWIDTH 589 0
DWIDTH 9 0
BBX 5 12 2 -1
BITMAP
18
30
60
C0
C0
C0
C0
C0
C0
60
30
18
ENDCHAR
STARTCHAR 2769
ENCODING 10089
SWIDTH 589 0
DWIDTH 9 0
BBX 5 12 2 -1
BITMAP
C0
60
30
18
18
18
18
18
18
30
60
C0
ENDCHAR
STARTCHAR 276A
ENCODING 10090
SWIDTH 589 0
DWIDTH 9 0
BBX 4 12 3 -1
BITMAP
70
60
C0
C0
C0
C0
C0
C0
C0
C0
60
70
ENDCHAR
STARTCHAR 276B
ENCODING 10091
SWIDTH 589 0
DWIDTH 9 0
BBX 3 11 3 -1
BITMAP
C0
E0
60
60
60
60
60
60
60
E0
C0
ENDCHAR
STARTCHAR 276C
ENCODING 10092
SWIDTH 589 0
DWIDTH 9 0
BBX 5 12 2 -1
BITMAP
18
30
30
20
60
40
C0
60
20
30
30
18
ENDCHAR
STARTCHAR 276D
ENCODING 10093
SWIDTH 589 0
DWIDTH 9 0
BBX 5 12 2 -1
BITMAP
C0
60
20
30
10
18
18
10
30
20
60
C0
ENDCHAR
STARTCHAR 276E
ENCODING 10094
SWIDTH 589 0
DWIDTH 9 0
BBX 6 12 2 -1
BITMAP
1C
38
30
70
E0
C0
C0
E0
60
30
38
1C
ENDCHAR
STARTCHAR 276F
ENCODING 10095
SWIDTH 589 0
DWIDTH 9 0
BBX 6 12 2 -1
BITMAP
C0
E0
70
30
38
18
1C
38
30
70
E0
C0
ENDCHAR
STARTCHAR 2770
ENCODING 10096
SWIDTH 589 0
DWIDTH 9 0
BBX 6 13 2 -1
BITMAP
3C
38
70
70
F0
E0
E0
E0
E0
70
70
38
3C
ENDCHAR
STARTCHAR 2771
ENCODING 10097
SWIDTH 589 0
DWIDTH 9 0
BBX 6 13 2 -1
BITMAP
E0
E0
70
70
38
38
1C
38
38
70
70
E0
E0
ENDCHAR
STARTCHAR 2772
ENCODING 10098
SWIDTH 589 0
DWIDTH 9 0
BBX 3 12 3 -2
BITMAP
60
C0
80
80
80
80
80
80
80
80
40
20
ENDCHAR
STARTCHAR 2773
ENCODING 10099
SWIDTH 589 0
DWIDTH 9 0
BBX 3 12 3 -2
BITMAP
C0
20
20
20
20
20
20
20
20
20
60
C0
ENDCHAR
STARTCHAR 2774
ENCODING 10100
SWIDTH 589 0
DWIDTH 9 0
BBX 5 13 2 -2
BITMAP
38
30
30
30
30
20
E0
60
30
30
30
30
38
ENDCHAR
STARTCHAR 2775
ENCODING 10101
SWIDTH 589 0
DWIDTH 9 0
BBX 5 13 2 -2
BITMAP
E0
60
30
30
30
30
38
30
30
30
30
60
E0
ENDCHAR
STARTCHAR 2794
ENCODING 10132
SWIDTH 589 0
DWIDTH 9 0
BBX 8 5 1 3
BITMAP
1C
06
FF
06
1C
ENDCHAR
STARTCHAR 2798
ENCODING 10136
SWIDTH 589 0
DWIDTH 9 0
BBX 7 8 1 1
BITMAP
80
C0
60
32
1A
0E
0E
1E
ENDCHAR
STARTCHAR 2799
ENCODING 10137
SWIDTH 589 0
DWIDTH 9 0
BBX 8 5 1 3
BITMAP
08
04
FF
04
04
ENDCHAR
STARTCHAR 279A
ENCODING 10138
SWIDTH 589 0
DWIDTH 9 0
BBX 7 8 1 1
BITMAP
1E
0E
0E
1A
32
60
C0
80
ENDCHAR
STARTCHAR 279B
ENCODING 10139
SWIDTH 589 0
DWIDTH 9 0
BBX 9 5 0 3
BITMAP
1000
0C00
FF80
0C00
1000
ENDCHAR
STARTCHAR 279C
ENCODING 10140
SWIDTH 589 0
DWIDTH 9 0
BBX 8 6 1 3
BITMAP
08
04
FF
06
0C
08
ENDCHAR
STARTCHAR 279D
ENCODING 10141
SWIDTH 589 0
DWIDTH 9 0
BBX 8 5 1 3
BITMAP
04
06
FF
06
04
ENDCHAR
STARTCHAR 279E
ENCODING 10142
SWIDTH 589 0
DWIDTH 9 0
BBX 9 6 0 3
BITMAP
0200
0300
FF00
FF80
0300
0200
ENDCHAR
STARTCHAR 279F
ENCODING 10143
SWIDTH 589 0
DWIDTH 9 0
BBX 9 4 0 3
BITMAP
0200
FF00
FF80
0200
ENDCHAR
STARTCHAR 27A0
ENCODING 10144
SWIDTH 589 0
DWIDTH 9 0
BBX 8 5 1 3
BITMAP
04
FC
FF
FC
04
ENDCHAR
STARTCHAR 27A1
ENCODING 10145
SWIDTH 589 0
DWIDTH 9 0
BBX 8 4 1 3
BITMAP
04
FE
FF
04
ENDCHAR
STARTCHAR 27A2
ENCODING 10146
SWIDTH 589 0
DWIDTH 9 0
BBX 7 6 1 3
BITMAP
80
70
2E
3C
60
80
ENDCHAR
STARTCHAR 27A3
ENCODING 10147
SWIDTH 589 0
DWIDTH 9 0
BBX 7 5 1 4
BITMAP
80
60
3E
2C
F0
ENDCHAR
STARTCHAR 27A4
ENCODING 10148
SWIDTH 589 0
DWIDTH 9 0
BBX 7 7 1 2
BITMAP
80
60
78
3E
78
60
80
ENDCHAR
STARTCHAR 27A5
ENCODING 10149
SWIDTH 589 0
DWIDTH 9 0
BBX 9 5 0 3
BITMAP
8200
FF00
FF80
7F00
0200
ENDCHAR
STARTCHAR 27A6
ENCODING 10150
SWIDTH 589 0
DWIDTH 9 0
BBX 9 5 0 4
BITMAP
0200
7F00
FF80
FF00
8200
ENDCHAR
STARTCHAR 27A7
ENCODING 10151
SWIDTH 589 0
DWIDTH 9 0
BBX 4 8 3 2
BITMAP
40
40
E0
F0
E0
E0
40
40
ENDCHAR
STARTCHAR 27A8
ENCODING 10152
SWIDTH 589 0
DWIDTH 9 0
BBX 9 5 0 3
BITMAP
0400
FE00
FF80
FE00
0400
ENDCHAR
STARTCHAR 27A9
ENCODING 10153
SWIDTH 589 0
DWIDTH 9 0
BBX 7 5 1 3
BITMAP
08
F4
82
F6
0C
ENDCHAR
STARTCHAR 27AA
ENCODING 10154
SWIDTH 589 0
DWIDTH 9 0
BBX 7 5 1 2
BITMAP
0C
FA
82
FA
0C
ENDCHAR
STARTCHAR 27AB
ENCODING 10155
SWIDTH 589 0
DWIDTH 9 0
BBX 9 6 0 2
BITMAP
0100
3E80
4080
7D80
FF00
0C00
ENDCHAR
STARTCHAR 27AC
ENCODING 10156
SWIDTH 589 0
DWIDTH 9 0
BBX 7 5 1 2
BITMAP
18
F6
8A
7E
02
ENDCHAR
STARTCHAR 27AD
ENCODING 10157
SWIDTH 589 0
DWIDTH 9 0
BBX 7 7 1 2
BITMAP
18
F4
82
82
F6
FC
08
ENDCHAR
STARTCHAR 27AE
ENCODING 10158
SWIDTH 589 0
DWIDTH 9 0
BBX 8 8 1 1
BITMAP
08
FC
FE
87
82
84
F8
10
ENDCHAR
STARTCHAR 27AF
ENCODING 10159
SWIDTH 589 0
DWIDTH 9 0
BBX 9 6 0 3
BITMAP
0400
FE00
4100
4180
FF00
0600
ENDCHAR
STARTCHAR 27B1
ENCODING 10161
SWIDTH 589 0
DWIDTH 9 0
BBX 9 7 0 2
BITMAP
0600
FE00
8100
4080
4100
FE00
0400
ENDCHAR
STARTCHAR 27B2
ENCODING 10162
SWIDTH 589 0
DWIDTH 9 0
BBX 7 8 1 1
BITMAP
78
FC
06
02
02
06
FC
38
ENDCHAR
STARTCHAR 27B3
ENCODING 10163
SWIDTH 589 0
DWIDTH 9 0
BBX 8 4 1 2
BITMAP
E4
E2
7F
E4
ENDCHAR
STARTCHAR 27B4
ENCODING 10164
SWIDTH 589 0
DWIDTH 9 0
BBX 7 8 1 2
BITMAP
20
20
F0
58
28
38
06
06
ENDCHAR
STARTCHAR 27B5
ENCODING 10165
SWIDTH 589 0
DWIDTH 9 0
BBX 8 3 1 4
BITMAP
F2
0F
F2
ENDCHAR
STARTCHAR 27B6
ENCODING 10166
SWIDTH 589 0
DWIDTH 9 0
BBX 7 8 1 1
BITMAP
06
06
0A
38
78
B0
20
20
ENDCHAR
STARTCHAR 27B7
ENCODING 10167
SWIDTH 589 0
DWIDTH 9 0
BBX 8 8 1 2
BITMAP
60
70
F8
70
38
05
06
07
ENDCHAR
STARTCHAR 27B8
ENCODING 10168
SWIDTH 589 0
DWIDTH 9 0
BBX 9 3 0 3
BITMAP
F100
7F80
F100
ENDCHAR
STARTCHAR 27B9
ENCODING 10169
SWIDTH 589 0
DWIDTH 9 0
BBX 7 8 1 1
BITMAP
06
06
0A
30
70
F8
20
40
ENDCHAR
STARTCHAR 27BA
ENCODING 10170
SWIDTH 589 0
DWIDTH 9 0
BBX 9 5 0 3
BITMAP
0600
0700
7E80
E100
0600
ENDCHAR
STARTCHAR 27BB
ENCODING 10171
SWIDTH 589 0
DWIDTH 9 0
BBX 9 5 0 3
BITMAP
0200
7300
FF80
7300
0200
ENDCHAR
STARTCHAR 27BC
ENCODING 10172
SWIDTH 589 0
DWIDTH 9 0
BBX 9 4 0 3
BITMAP
F900
7980
7F80
F900
ENDCHAR
STARTCHAR 27BD
ENCODING 10173
SWIDTH 589 0
DWIDTH 9 0
BBX 9 5 0 3
BITMAP
FA00
7B00
7F80
7B00
FA00
ENDCHAR
STARTCHAR 27BE
ENCODING 10174
SWIDTH 589 0
DWIDTH 9 0
BBX 9 5 0 2
BITMAP
0A00
FD00
0080
FD00
0A00
ENDCHAR
STARTCHAR 27C2
ENCODING 10178
SWIDTH 589 0
DWIDTH 9 0
BBX 8 10 1 0
BITMAP
10
10
10
10
10
10
10
10
FF
FF
ENDCHAR
STARTCHAR 27C5
ENCODING 10181
SWIDTH 589 0
DWIDTH 9 0
BBX 5 15 2 -3
BITMAP
20
F8
58
10
30
30
60
60
60
C0
C0
C0
E0
F8
38
ENDCHAR
STARTCHAR 27C6
ENCODING 10182
SWIDTH 589 0
DWIDTH 9 0
BBX 5 15 2 -3
BITMAP
70
78
50
60
60
20
30
30
18
18
18
18
18
F8
E0
ENDCHAR
STARTCHAR 27DC
ENCODING 10204
SWIDTH 589 0
DWIDTH 9 0
BBX 9 4 0 3
BITMAP
7000
9F80
9F80
7000
ENDCHAR
STARTCHAR 27E0
ENCODING 10208
SWIDTH 589 0
DWIDTH 9 0
BBX 7 17 1 -4
BITMAP
10
10
28
28
24
44
42
82
FE
82
42
44
24
28
28
10
10
ENDCHAR
STARTCHAR 27E6
ENCODING 10214
SWIDTH 589 0
DWIDTH 9 0
BBX 5 14 2 -2
BITMAP
F8
A0
A0
A0
A0
A0
A0
A0
A0
A0
A0
A0
A0
F8
ENDCHAR
STARTCHAR 27E7
ENCODING 10215
SWIDTH 589 0
DWIDTH 9 0
BBX 5 14 2 -2
BITMAP
F8
28
28
28
28
28
28
28
28
28
28
28
28
F8
ENDCHAR
STARTCHAR 27E8
ENCODING 10216
SWIDTH 589 0
DWIDTH 9 0
BBX 4 14 3 -2
BITMAP
30
60
60
60
C0
C0
C0
C0
C0
C0
60
60
60
30
ENDCHAR
STARTCHAR 27E9
ENCODING 10217
SWIDTH 589 0
DWIDTH 9 0
BBX 4 14 3 -2
BITMAP
C0
C0
C0
60
60
60
20
30
60
60
60
C0
C0
C0
ENDCHAR
STARTCHAR 27EA
ENCODING 10218
SWIDTH 589 0
DWIDTH 9 0
BBX 8 14 1 -2
BITMAP
37
66
66
6C
CC
CC
CC
DC
CC
CC
6C
66
66
37
ENDCHAR
STARTCHAR 27EB
ENCODING 10219
SWIDTH 589 0
DWIDTH 9 0
BBX 8 14 1 -2
BITMAP
DC
CC
CC
6C
66
66
36
37
66
66
6C
CC
CC
DC
ENDCHAR
STARTCHAR 27F5
ENCODING 10229
SWIDTH 589 0
DWIDTH 9 0
BBX 11 6 -1 2
BITMAP
2000
6000
FFE0
FFE0
6000
2000
ENDCHAR
STARTCHAR 27F6
ENCODING 10230
SWIDTH 589 0
DWIDTH 9 0
BBX 11 6 -1 2
BITMAP
0080
00C0
FFE0
FFE0
00C0
0080
ENDCHAR
STARTCHAR 27F7
ENCODING 10231
SWIDTH 589 0
DWIDTH 9 0
BBX 11 6 -1 2
BITMAP
2080
60C0
FFE0
FFE0
60C0
2080
ENDCHAR
STARTCHAR 2987
ENCODING 10631
SWIDTH 589 0
DWIDTH 9 0
BBX 5 14 2 -2
BITMAP
08
18
28
68
C8
C8
C8
C8
C8
C8
48
68
38
08
ENDCHAR
STARTCHAR 2988
ENCODING 10632
SWIDTH 589 0
DWIDTH 9 0
BBX 5 14 2 -2
BITMAP
80
C0
B0
90
98
98
98
98
98
98
98
B0
E0
C0
ENDCHAR
STARTCHAR 2997
ENCODING 10647
SWIDTH 589 0
DWIDTH 9 0
BBX 5 14 3 -2
BITMAP
18
30
60
C0
C0
C0
C0
C0
C0
C0
C0
E0
70
18
ENDCHAR
STARTCHAR 2998
ENCODING 10648
SWIDTH 589 0
DWIDTH 9 0
BBX 4 14 2 -2
BITMAP
80
C0
60
30
30
30
30
30
30
30
30
30
60
C0
ENDCHAR
STARTCHAR 29EB
ENCODING 10731
SWIDTH 589 0
DWIDTH 9 0
BBX 7 16 1 -4
BITMAP
10
10
38
38
7C
7C
FE
FE
FE
7C
7C
38
38
18
10
10
ENDCHAR
STARTCHAR 29FA
ENCODING 10746
SWIDTH 589 0
DWIDTH 9 0
BBX 8 9 1 1
BITMAP
64
64
64
64
FF
FF
64
64
64
ENDCHAR
STARTCHAR 29FB
ENCODING 10747
SWIDTH 589 0
DWIDTH 9 0
BBX 8 9 1 1
BITMAP
D6
D6
D6
D6
FF
FF
D6
D6
D6
ENDCHAR
STARTCHAR 2A00
ENCODING 10752
SWIDTH 589 0
DWIDTH 9 0
BBX 8 16 1 -4
BITMAP
38
7C
C6
C2
82
82
83
BB
BB
BB
82
82
C2
C6
7C
38
ENDCHAR
STARTCHAR 2A2F
ENCODING 10799
SWIDTH 589 0
DWIDTH 9 0
BBX 7 8 1 1
BITMAP
42
C6
6E
3C
38
7C
E6
42
ENDCHAR
STARTCHAR 2A6A
ENCODING 10858
SWIDTH 589 0
DWIDTH 9 0
BBX 8 6 1 4
BITMAP
38
38
38
E1
FF
8E
ENDCHAR
STARTCHAR 2A6B
ENCODING 10859
SWIDTH 589 0
DWIDTH 9 0
BBX 8 10 1 0
BITMAP
0E
0E
0E
E1
FF
8E
00
60
60
60
ENDCHAR
STARTCHAR 2B05
ENCODING 11013
SWIDTH 589 0
DWIDTH 9 0
BBX 8 4 1 3
BITMAP
40
FF
FF
40
ENDCHAR
STARTCHAR 2B06
ENCODING 11014
SWIDTH 589 0
DWIDTH 9 0
BBX 5 8 2 1
BITMAP
20
F8
30
30
30
30
30
30
ENDCHAR
STARTCHAR 2B07
ENCODING 11015
SWIDTH 589 0
DWIDTH 9 0
BBX 5 8 2 2
BITMAP
30
30
30
30
30
30
F8
20
ENDCHAR
STARTCHAR 2B08
ENCODING 11016
SWIDTH 589 0
DWIDTH 9 0
BBX 6 7 1 2
BITMAP
1C
1C
1C
38
70
E0
40
ENDCHAR
STARTCHAR 2B09
ENCODING 11017
SWIDTH 589 0
DWIDTH 9 0
BBX 6 7 2 2
BITMAP
E0
E0
F0
38
1C
1C
08
ENDCHAR
STARTCHAR 2B0A
ENCODING 11018
SWIDTH 589 0
DWIDTH 9 0
BBX 6 7 2 2
BITMAP
40
C0
E0
70
3C
1C
1C
ENDCHAR
STARTCHAR 2B0B
ENCODING 11019
SWIDTH 589 0
DWIDTH 9 0
BBX 6 7 1 2
BITMAP
08
0C
1C
38
F0
E0
E0
ENDCHAR
STARTCHAR 2B0C
ENCODING 11020
SWIDTH 589 0
DWIDTH 9 0
BBX 8 4 1 3
BITMAP
44
FE
FF
44
ENDCHAR
STARTCHAR 2B0D
ENCODING 11021
SWIDTH 589 0
DWIDTH 9 0
BBX 5 8 2 2
BITMAP
20
70
F8
30
30
30
F8
20
ENDCHAR
STARTCHAR 2B16
ENCODING 11030
SWIDTH 589 0
DWIDTH 9 0
BBX 9 10 0 -1
BITMAP
0800
0C00
1E00
3B00
7980
F880
3900
1A00
0C00
0800
ENDCHAR
STARTCHAR 2B17
ENCODING 11031
SWIDTH 589 0
DWIDTH 9 0
BBX 9 10 0 -1
BITMAP
0800
0C00
1600
2700
4780
C780
2700
1600
0C00
0800
ENDCHAR
STARTCHAR 2B18
ENCODING 11032
SWIDTH 589 0
DWIDTH 9 0
BBX 9 10 0 -1
BITMAP
0800
1C00
3E00
7F00
FF80
4080
6100
3200
1C00
0800
ENDCHAR
STARTCHAR 2B19
ENCODING 11033
SWIDTH 589 0
DWIDTH 9 0
BBX 9 10 0 -1
BITMAP
0800
1400
3200
6100
C080
7F80
7F00
3E00
1C00
0800
ENDCHAR
STARTCHAR 2B1A
ENCODING 11034
SWIDTH 589 0
DWIDTH 9 0
BBX 9 10 0 -1
BITMAP
D480
8080
8080
8080
0000
8080
8080
0000
8080
D480
ENDCHAR
STARTCHAR 2C7D
ENCODING 11389
SWIDTH 589 0
DWIDTH 9 0
BBX 5 6 2 5
BITMAP
88
D8
58
50
50
30
ENDCHAR
STARTCHAR 2E18
ENCODING 11800
SWIDTH 589 0
DWIDTH 9 0
BBX 7 12 1 0
BITMAP
18
18
18
00
18
18
38
78
78
DA
FE
7C
ENDCHAR
STARTCHAR 2E1F
ENCODING 11807
SWIDTH 589 0
DWIDTH 9 0
BBX 8 7 1 0
BITMAP
E1
FF
8E
00
38
38
38
ENDCHAR
STARTCHAR 2E22
ENCODING 11810
SWIDTH 589 0
DWIDTH 9 0
BBX 4 6 3 6
BITMAP
F0
F0
C0
C0
C0
C0
ENDCHAR
STARTCHAR 2E23
ENCODING 11811
SWIDTH 589 0
DWIDTH 9 0
BBX 4 6 2 6
BITMAP
F0
F0
30
30
30
30
ENDCHAR
STARTCHAR 2E24
ENCODING 11812
SWIDTH 589 0
DWIDTH 9 0
BBX 4 6 3 -2
BITMAP
C0
C0
C0
C0
F0
F0
ENDCHAR
STARTCHAR 2E25
ENCODING 11813
SWIDTH 589 0
DWIDTH 9 0
BBX 4 6 2 -2
BITMAP
30
30
30
30
30
F0
ENDCHAR
STARTCHAR 2E2E
ENCODING 11822
SWIDTH 589 0
DWIDTH 9 0
BBX 6 12 1 0
BITMAP
7C
FC
C4
E0
60
30
18
18
00
18
18
18
ENDCHAR
STARTCHAR E0A0
ENCODING 57504
SWIDTH 589 0
DWIDTH 9 0
BBX 6 16 2 -2
BITMAP
C0
C0
C8
DC
E8
C8
C8
C8
98
30
60
C0
C0
C0
C0
C0
ENDCHAR
STARTCHAR E0A1
ENCODING 57505
SWIDTH 589 0
DWIDTH 9 0
BBX 5 16 2 -2
BITMAP
80
80
80
80
80
80
F0
00
68
68
68
78
58
58
48
48
ENDCHAR
STARTCHAR E0A2
ENCODING 57506
SWIDTH 589 0
DWIDTH 9 0
BBX 7 16 1 -2
BITMAP
38
7C
44
44
44
44
FE
FE
E6
C6
EE
EE
EE
EE
FE
FE
ENDCHAR
STARTCHAR E0B0
ENCODING 57520
SWIDTH 589 0
DWIDTH 9 0
BBX 8 19 0 -4
BITMAP
80
80
C0
E0
F0
F8
FC
FE
FF
FF
FE
FC
F8
F8
F0
E0
C0
80
80
ENDCHAR
STARTCHAR E0B1
ENCODING 57521
SWIDTH 589 0
DWIDTH 9 0
BBX 8 15 1 -2
BITMAP
C0
40
20
10
08
04
02
01
02
04
0C
18
30
20
C0
ENDCHAR
STARTCHAR E0B2
ENCODING 57522
SWIDTH 589 0
DWIDTH 9 0
BBX 8 19 1 -4
BITMAP
01
01
03
07
0F
1F
3F
3F
7F
FF
7F
3F
1F
0F
07
07
03
01
01
ENDCHAR
STARTCHAR E0B3
ENCODING 57523
SWIDTH 589 0
DWIDTH 9 0
BBX 8 15 0 -2
BITMAP
01
02
04
08
10
20
40
80
40
20
10
18
0C
06
03
ENDCHAR
STARTCHAR FEFF
ENCODING 65279
SWIDTH 589 0
DWIDTH 9 0
BBX 0 0 0 0
BITMAP
ENDCHAR
ENDFONT
